%TF.GenerationSoftware,KiCad,Pcbnew,5.1.7-a382d34a8~87~ubuntu20.04.1*%
%TF.CreationDate,2020-10-16T18:55:23+02:00*%
%TF.ProjectId,3Channel-PiezoAmp,33436861-6e6e-4656-9c2d-5069657a6f41,rev?*%
%TF.SameCoordinates,Original*%
%TF.FileFunction,Legend,Bot*%
%TF.FilePolarity,Positive*%
%FSLAX46Y46*%
G04 Gerber Fmt 4.6, Leading zero omitted, Abs format (unit mm)*
G04 Created by KiCad (PCBNEW 5.1.7-a382d34a8~87~ubuntu20.04.1) date 2020-10-16 18:55:23*
%MOMM*%
%LPD*%
G01*
G04 APERTURE LIST*
%ADD10C,0.120000*%
%ADD11C,0.150000*%
G04 APERTURE END LIST*
D10*
%TO.C,C1*%
X55067252Y-99732000D02*
X53644748Y-99732000D01*
X55067252Y-102452000D02*
X53644748Y-102452000D01*
%TO.C,C14*%
X67220000Y-98348748D02*
X67220000Y-99771252D01*
X69940000Y-98348748D02*
X69940000Y-99771252D01*
%TO.C,D1*%
X45331000Y-62916000D02*
X45331000Y-66976000D01*
X45331000Y-66976000D02*
X43061000Y-66976000D01*
X43061000Y-66976000D02*
X43061000Y-62916000D01*
%TO.C,D2*%
X43061000Y-60880000D02*
X43061000Y-56820000D01*
X45331000Y-60880000D02*
X43061000Y-60880000D01*
X45331000Y-56820000D02*
X45331000Y-60880000D01*
%TO.C,D3*%
X63619000Y-62916000D02*
X63619000Y-66976000D01*
X63619000Y-66976000D02*
X61349000Y-66976000D01*
X61349000Y-66976000D02*
X61349000Y-62916000D01*
%TO.C,D4*%
X61349000Y-60880000D02*
X61349000Y-56820000D01*
X63619000Y-60880000D02*
X61349000Y-60880000D01*
X63619000Y-56820000D02*
X63619000Y-60880000D01*
%TO.C,D5*%
X80145000Y-66976000D02*
X80145000Y-62916000D01*
X82415000Y-66976000D02*
X80145000Y-66976000D01*
X82415000Y-62916000D02*
X82415000Y-66976000D01*
%TO.C,D6*%
X82415000Y-56820000D02*
X82415000Y-60880000D01*
X82415000Y-60880000D02*
X80145000Y-60880000D01*
X80145000Y-60880000D02*
X80145000Y-56820000D01*
%TO.C,R1*%
X59909064Y-95356000D02*
X58454936Y-95356000D01*
X59909064Y-97176000D02*
X58454936Y-97176000D01*
%TO.C,R2*%
X53559064Y-97176000D02*
X52104936Y-97176000D01*
X53559064Y-95356000D02*
X52104936Y-95356000D01*
%TO.C,R3*%
X64804936Y-90318000D02*
X66259064Y-90318000D01*
X64804936Y-88498000D02*
X66259064Y-88498000D01*
%TO.C,R4*%
X74895064Y-90318000D02*
X73440936Y-90318000D01*
X74895064Y-88498000D02*
X73440936Y-88498000D01*
%TO.C,R5*%
X64296936Y-75078000D02*
X65751064Y-75078000D01*
X64296936Y-73258000D02*
X65751064Y-73258000D01*
%TO.C,R6*%
X52035064Y-73554000D02*
X50580936Y-73554000D01*
X52035064Y-71734000D02*
X50580936Y-71734000D01*
%TO.C,R7*%
X83531064Y-71734000D02*
X82076936Y-71734000D01*
X83531064Y-73554000D02*
X82076936Y-73554000D01*
%TO.C,R8*%
X115535064Y-71734000D02*
X114080936Y-71734000D01*
X115535064Y-73554000D02*
X114080936Y-73554000D01*
%TO.C,R9*%
X107407064Y-77830000D02*
X105952936Y-77830000D01*
X107407064Y-79650000D02*
X105952936Y-79650000D01*
%TO.C,R10*%
X107407064Y-83206000D02*
X105952936Y-83206000D01*
X107407064Y-81386000D02*
X105952936Y-81386000D01*
%TO.C,R11*%
X107407064Y-86762000D02*
X105952936Y-86762000D01*
X107407064Y-84942000D02*
X105952936Y-84942000D01*
%TO.C,R12*%
X76927064Y-75078000D02*
X75472936Y-75078000D01*
X76927064Y-73258000D02*
X75472936Y-73258000D01*
%TO.C,U1*%
X66242000Y-79028000D02*
X66242000Y-77338000D01*
X65402000Y-79028000D02*
X66242000Y-79028000D01*
X65402000Y-81788000D02*
X65402000Y-79028000D01*
X65402000Y-84548000D02*
X66242000Y-84548000D01*
X65402000Y-81788000D02*
X65402000Y-84548000D01*
X75822000Y-79028000D02*
X74982000Y-79028000D01*
X75822000Y-81788000D02*
X75822000Y-79028000D01*
X75822000Y-84548000D02*
X74982000Y-84548000D01*
X75822000Y-81788000D02*
X75822000Y-84548000D01*
%TO.C,C2*%
X53035252Y-68982000D02*
X51612748Y-68982000D01*
X53035252Y-67162000D02*
X51612748Y-67162000D01*
%TO.C,C3*%
X71323252Y-68982000D02*
X69900748Y-68982000D01*
X71323252Y-67162000D02*
X69900748Y-67162000D01*
%TO.C,C4*%
X88188748Y-67162000D02*
X89611252Y-67162000D01*
X88188748Y-68982000D02*
X89611252Y-68982000D01*
%TO.C,C5*%
X64820748Y-93366000D02*
X66243252Y-93366000D01*
X64820748Y-91546000D02*
X66243252Y-91546000D01*
%TO.C,C6*%
X74879252Y-93366000D02*
X73456748Y-93366000D01*
X74879252Y-91546000D02*
X73456748Y-91546000D01*
%TO.C,C7*%
X64312748Y-72030000D02*
X65735252Y-72030000D01*
X64312748Y-70210000D02*
X65735252Y-70210000D01*
%TO.C,C8*%
X57200748Y-71734000D02*
X58623252Y-71734000D01*
X57200748Y-73554000D02*
X58623252Y-73554000D01*
%TO.C,C9*%
X89204748Y-71734000D02*
X90627252Y-71734000D01*
X89204748Y-73554000D02*
X90627252Y-73554000D01*
%TO.C,C10*%
X120700748Y-73554000D02*
X122123252Y-73554000D01*
X120700748Y-71734000D02*
X122123252Y-71734000D01*
%TO.C,C11*%
X99872748Y-79650000D02*
X101295252Y-79650000D01*
X99872748Y-77830000D02*
X101295252Y-77830000D01*
%TO.C,C12*%
X99872748Y-83206000D02*
X101295252Y-83206000D01*
X99872748Y-81386000D02*
X101295252Y-81386000D01*
%TO.C,C13*%
X99872748Y-86762000D02*
X101295252Y-86762000D01*
X99872748Y-84942000D02*
X101295252Y-84942000D01*
%TO.C,C15*%
X76911252Y-70210000D02*
X75488748Y-70210000D01*
X76911252Y-72030000D02*
X75488748Y-72030000D01*
%TO.C,C17*%
X112318748Y-67670000D02*
X113741252Y-67670000D01*
X112318748Y-69490000D02*
X113741252Y-69490000D01*
%TO.C,J1*%
X48970000Y-62740000D02*
X47570000Y-62740000D01*
X48970000Y-64290000D02*
X47570000Y-64290000D01*
X55170000Y-63840000D02*
X55170000Y-53315000D01*
X48970000Y-64290000D02*
X48970000Y-65415000D01*
X48970000Y-60340000D02*
X48970000Y-62740000D01*
X48970000Y-57340000D02*
X48970000Y-58690000D01*
X48970000Y-53315000D02*
X48970000Y-55690000D01*
X55170000Y-65415000D02*
X48970000Y-65415000D01*
X48970000Y-53315000D02*
X49570000Y-53315000D01*
X54570000Y-53315000D02*
X55170000Y-53315000D01*
X49570000Y-51315000D02*
X54570000Y-51315000D01*
X49570000Y-53315000D02*
X49570000Y-51315000D01*
X54570000Y-53315000D02*
X54570000Y-51315000D01*
%TO.C,J2*%
X72985000Y-53315000D02*
X72985000Y-51315000D01*
X67985000Y-53315000D02*
X67985000Y-51315000D01*
X67985000Y-51315000D02*
X72985000Y-51315000D01*
X72985000Y-53315000D02*
X73585000Y-53315000D01*
X67385000Y-53315000D02*
X67985000Y-53315000D01*
X73585000Y-65415000D02*
X67385000Y-65415000D01*
X67385000Y-53315000D02*
X67385000Y-55690000D01*
X67385000Y-57340000D02*
X67385000Y-58690000D01*
X67385000Y-60340000D02*
X67385000Y-62740000D01*
X67385000Y-64290000D02*
X67385000Y-65415000D01*
X73585000Y-63840000D02*
X73585000Y-53315000D01*
X67385000Y-64290000D02*
X65985000Y-64290000D01*
X67385000Y-62740000D02*
X65985000Y-62740000D01*
%TO.C,J3*%
X85800000Y-62740000D02*
X84400000Y-62740000D01*
X85800000Y-64290000D02*
X84400000Y-64290000D01*
X92000000Y-63840000D02*
X92000000Y-53315000D01*
X85800000Y-64290000D02*
X85800000Y-65415000D01*
X85800000Y-60340000D02*
X85800000Y-62740000D01*
X85800000Y-57340000D02*
X85800000Y-58690000D01*
X85800000Y-53315000D02*
X85800000Y-55690000D01*
X92000000Y-65415000D02*
X85800000Y-65415000D01*
X85800000Y-53315000D02*
X86400000Y-53315000D01*
X91400000Y-53315000D02*
X92000000Y-53315000D01*
X86400000Y-51315000D02*
X91400000Y-51315000D01*
X86400000Y-53315000D02*
X86400000Y-51315000D01*
X91400000Y-53315000D02*
X91400000Y-51315000D01*
%TO.C,J4*%
X119340000Y-53315000D02*
X119340000Y-51315000D01*
X114340000Y-53315000D02*
X114340000Y-51315000D01*
X114340000Y-51315000D02*
X119340000Y-51315000D01*
X119340000Y-53315000D02*
X119940000Y-53315000D01*
X113740000Y-53315000D02*
X114340000Y-53315000D01*
X119940000Y-65415000D02*
X113740000Y-65415000D01*
X113740000Y-53315000D02*
X113740000Y-55690000D01*
X113740000Y-57340000D02*
X113740000Y-58690000D01*
X113740000Y-60340000D02*
X113740000Y-62740000D01*
X113740000Y-64290000D02*
X113740000Y-65415000D01*
X119940000Y-63840000D02*
X119940000Y-53315000D01*
X113740000Y-64290000D02*
X112340000Y-64290000D01*
X113740000Y-62740000D02*
X112340000Y-62740000D01*
%TO.C,C1*%
D11*
X54522666Y-99149142D02*
X54570285Y-99196761D01*
X54713142Y-99244380D01*
X54808380Y-99244380D01*
X54951238Y-99196761D01*
X55046476Y-99101523D01*
X55094095Y-99006285D01*
X55141714Y-98815809D01*
X55141714Y-98672952D01*
X55094095Y-98482476D01*
X55046476Y-98387238D01*
X54951238Y-98292000D01*
X54808380Y-98244380D01*
X54713142Y-98244380D01*
X54570285Y-98292000D01*
X54522666Y-98339619D01*
X53570285Y-99244380D02*
X54141714Y-99244380D01*
X53856000Y-99244380D02*
X53856000Y-98244380D01*
X53951238Y-98387238D01*
X54046476Y-98482476D01*
X54141714Y-98530095D01*
%TO.C,C14*%
X66637142Y-98417142D02*
X66684761Y-98369523D01*
X66732380Y-98226666D01*
X66732380Y-98131428D01*
X66684761Y-97988571D01*
X66589523Y-97893333D01*
X66494285Y-97845714D01*
X66303809Y-97798095D01*
X66160952Y-97798095D01*
X65970476Y-97845714D01*
X65875238Y-97893333D01*
X65780000Y-97988571D01*
X65732380Y-98131428D01*
X65732380Y-98226666D01*
X65780000Y-98369523D01*
X65827619Y-98417142D01*
X66732380Y-99369523D02*
X66732380Y-98798095D01*
X66732380Y-99083809D02*
X65732380Y-99083809D01*
X65875238Y-98988571D01*
X65970476Y-98893333D01*
X66018095Y-98798095D01*
X66065714Y-100226666D02*
X66732380Y-100226666D01*
X65684761Y-99988571D02*
X66399047Y-99750476D01*
X66399047Y-100369523D01*
%TO.C,D1*%
X46468380Y-63777904D02*
X45468380Y-63777904D01*
X45468380Y-64016000D01*
X45516000Y-64158857D01*
X45611238Y-64254095D01*
X45706476Y-64301714D01*
X45896952Y-64349333D01*
X46039809Y-64349333D01*
X46230285Y-64301714D01*
X46325523Y-64254095D01*
X46420761Y-64158857D01*
X46468380Y-64016000D01*
X46468380Y-63777904D01*
X46468380Y-65301714D02*
X46468380Y-64730285D01*
X46468380Y-65016000D02*
X45468380Y-65016000D01*
X45611238Y-64920761D01*
X45706476Y-64825523D01*
X45754095Y-64730285D01*
%TO.C,D2*%
X46468380Y-57681904D02*
X45468380Y-57681904D01*
X45468380Y-57920000D01*
X45516000Y-58062857D01*
X45611238Y-58158095D01*
X45706476Y-58205714D01*
X45896952Y-58253333D01*
X46039809Y-58253333D01*
X46230285Y-58205714D01*
X46325523Y-58158095D01*
X46420761Y-58062857D01*
X46468380Y-57920000D01*
X46468380Y-57681904D01*
X45563619Y-58634285D02*
X45516000Y-58681904D01*
X45468380Y-58777142D01*
X45468380Y-59015238D01*
X45516000Y-59110476D01*
X45563619Y-59158095D01*
X45658857Y-59205714D01*
X45754095Y-59205714D01*
X45896952Y-59158095D01*
X46468380Y-58586666D01*
X46468380Y-59205714D01*
%TO.C,D3*%
X64756380Y-63777904D02*
X63756380Y-63777904D01*
X63756380Y-64016000D01*
X63804000Y-64158857D01*
X63899238Y-64254095D01*
X63994476Y-64301714D01*
X64184952Y-64349333D01*
X64327809Y-64349333D01*
X64518285Y-64301714D01*
X64613523Y-64254095D01*
X64708761Y-64158857D01*
X64756380Y-64016000D01*
X64756380Y-63777904D01*
X63756380Y-64682666D02*
X63756380Y-65301714D01*
X64137333Y-64968380D01*
X64137333Y-65111238D01*
X64184952Y-65206476D01*
X64232571Y-65254095D01*
X64327809Y-65301714D01*
X64565904Y-65301714D01*
X64661142Y-65254095D01*
X64708761Y-65206476D01*
X64756380Y-65111238D01*
X64756380Y-64825523D01*
X64708761Y-64730285D01*
X64661142Y-64682666D01*
%TO.C,D4*%
X64756380Y-57681904D02*
X63756380Y-57681904D01*
X63756380Y-57920000D01*
X63804000Y-58062857D01*
X63899238Y-58158095D01*
X63994476Y-58205714D01*
X64184952Y-58253333D01*
X64327809Y-58253333D01*
X64518285Y-58205714D01*
X64613523Y-58158095D01*
X64708761Y-58062857D01*
X64756380Y-57920000D01*
X64756380Y-57681904D01*
X64089714Y-59110476D02*
X64756380Y-59110476D01*
X63708761Y-58872380D02*
X64423047Y-58634285D01*
X64423047Y-59253333D01*
%TO.C,D5*%
X83552380Y-63777904D02*
X82552380Y-63777904D01*
X82552380Y-64016000D01*
X82600000Y-64158857D01*
X82695238Y-64254095D01*
X82790476Y-64301714D01*
X82980952Y-64349333D01*
X83123809Y-64349333D01*
X83314285Y-64301714D01*
X83409523Y-64254095D01*
X83504761Y-64158857D01*
X83552380Y-64016000D01*
X83552380Y-63777904D01*
X82552380Y-65254095D02*
X82552380Y-64777904D01*
X83028571Y-64730285D01*
X82980952Y-64777904D01*
X82933333Y-64873142D01*
X82933333Y-65111238D01*
X82980952Y-65206476D01*
X83028571Y-65254095D01*
X83123809Y-65301714D01*
X83361904Y-65301714D01*
X83457142Y-65254095D01*
X83504761Y-65206476D01*
X83552380Y-65111238D01*
X83552380Y-64873142D01*
X83504761Y-64777904D01*
X83457142Y-64730285D01*
%TO.C,D6*%
X83552380Y-57681904D02*
X82552380Y-57681904D01*
X82552380Y-57920000D01*
X82600000Y-58062857D01*
X82695238Y-58158095D01*
X82790476Y-58205714D01*
X82980952Y-58253333D01*
X83123809Y-58253333D01*
X83314285Y-58205714D01*
X83409523Y-58158095D01*
X83504761Y-58062857D01*
X83552380Y-57920000D01*
X83552380Y-57681904D01*
X82552380Y-59110476D02*
X82552380Y-58920000D01*
X82600000Y-58824761D01*
X82647619Y-58777142D01*
X82790476Y-58681904D01*
X82980952Y-58634285D01*
X83361904Y-58634285D01*
X83457142Y-58681904D01*
X83504761Y-58729523D01*
X83552380Y-58824761D01*
X83552380Y-59015238D01*
X83504761Y-59110476D01*
X83457142Y-59158095D01*
X83361904Y-59205714D01*
X83123809Y-59205714D01*
X83028571Y-59158095D01*
X82980952Y-59110476D01*
X82933333Y-59015238D01*
X82933333Y-58824761D01*
X82980952Y-58729523D01*
X83028571Y-58681904D01*
X83123809Y-58634285D01*
%TO.C,R1*%
X59348666Y-94898380D02*
X59682000Y-94422190D01*
X59920095Y-94898380D02*
X59920095Y-93898380D01*
X59539142Y-93898380D01*
X59443904Y-93946000D01*
X59396285Y-93993619D01*
X59348666Y-94088857D01*
X59348666Y-94231714D01*
X59396285Y-94326952D01*
X59443904Y-94374571D01*
X59539142Y-94422190D01*
X59920095Y-94422190D01*
X58396285Y-94898380D02*
X58967714Y-94898380D01*
X58682000Y-94898380D02*
X58682000Y-93898380D01*
X58777238Y-94041238D01*
X58872476Y-94136476D01*
X58967714Y-94184095D01*
%TO.C,R2*%
X52998666Y-94898380D02*
X53332000Y-94422190D01*
X53570095Y-94898380D02*
X53570095Y-93898380D01*
X53189142Y-93898380D01*
X53093904Y-93946000D01*
X53046285Y-93993619D01*
X52998666Y-94088857D01*
X52998666Y-94231714D01*
X53046285Y-94326952D01*
X53093904Y-94374571D01*
X53189142Y-94422190D01*
X53570095Y-94422190D01*
X52617714Y-93993619D02*
X52570095Y-93946000D01*
X52474857Y-93898380D01*
X52236761Y-93898380D01*
X52141523Y-93946000D01*
X52093904Y-93993619D01*
X52046285Y-94088857D01*
X52046285Y-94184095D01*
X52093904Y-94326952D01*
X52665333Y-94898380D01*
X52046285Y-94898380D01*
%TO.C,R3*%
X65698666Y-91680380D02*
X66032000Y-91204190D01*
X66270095Y-91680380D02*
X66270095Y-90680380D01*
X65889142Y-90680380D01*
X65793904Y-90728000D01*
X65746285Y-90775619D01*
X65698666Y-90870857D01*
X65698666Y-91013714D01*
X65746285Y-91108952D01*
X65793904Y-91156571D01*
X65889142Y-91204190D01*
X66270095Y-91204190D01*
X65365333Y-90680380D02*
X64746285Y-90680380D01*
X65079619Y-91061333D01*
X64936761Y-91061333D01*
X64841523Y-91108952D01*
X64793904Y-91156571D01*
X64746285Y-91251809D01*
X64746285Y-91489904D01*
X64793904Y-91585142D01*
X64841523Y-91632761D01*
X64936761Y-91680380D01*
X65222476Y-91680380D01*
X65317714Y-91632761D01*
X65365333Y-91585142D01*
%TO.C,R4*%
X74334666Y-88040380D02*
X74668000Y-87564190D01*
X74906095Y-88040380D02*
X74906095Y-87040380D01*
X74525142Y-87040380D01*
X74429904Y-87088000D01*
X74382285Y-87135619D01*
X74334666Y-87230857D01*
X74334666Y-87373714D01*
X74382285Y-87468952D01*
X74429904Y-87516571D01*
X74525142Y-87564190D01*
X74906095Y-87564190D01*
X73477523Y-87373714D02*
X73477523Y-88040380D01*
X73715619Y-86992761D02*
X73953714Y-87707047D01*
X73334666Y-87707047D01*
%TO.C,R5*%
X65190666Y-76440380D02*
X65524000Y-75964190D01*
X65762095Y-76440380D02*
X65762095Y-75440380D01*
X65381142Y-75440380D01*
X65285904Y-75488000D01*
X65238285Y-75535619D01*
X65190666Y-75630857D01*
X65190666Y-75773714D01*
X65238285Y-75868952D01*
X65285904Y-75916571D01*
X65381142Y-75964190D01*
X65762095Y-75964190D01*
X64285904Y-75440380D02*
X64762095Y-75440380D01*
X64809714Y-75916571D01*
X64762095Y-75868952D01*
X64666857Y-75821333D01*
X64428761Y-75821333D01*
X64333523Y-75868952D01*
X64285904Y-75916571D01*
X64238285Y-76011809D01*
X64238285Y-76249904D01*
X64285904Y-76345142D01*
X64333523Y-76392761D01*
X64428761Y-76440380D01*
X64666857Y-76440380D01*
X64762095Y-76392761D01*
X64809714Y-76345142D01*
%TO.C,R6*%
X51474666Y-71276380D02*
X51808000Y-70800190D01*
X52046095Y-71276380D02*
X52046095Y-70276380D01*
X51665142Y-70276380D01*
X51569904Y-70324000D01*
X51522285Y-70371619D01*
X51474666Y-70466857D01*
X51474666Y-70609714D01*
X51522285Y-70704952D01*
X51569904Y-70752571D01*
X51665142Y-70800190D01*
X52046095Y-70800190D01*
X50617523Y-70276380D02*
X50808000Y-70276380D01*
X50903238Y-70324000D01*
X50950857Y-70371619D01*
X51046095Y-70514476D01*
X51093714Y-70704952D01*
X51093714Y-71085904D01*
X51046095Y-71181142D01*
X50998476Y-71228761D01*
X50903238Y-71276380D01*
X50712761Y-71276380D01*
X50617523Y-71228761D01*
X50569904Y-71181142D01*
X50522285Y-71085904D01*
X50522285Y-70847809D01*
X50569904Y-70752571D01*
X50617523Y-70704952D01*
X50712761Y-70657333D01*
X50903238Y-70657333D01*
X50998476Y-70704952D01*
X51046095Y-70752571D01*
X51093714Y-70847809D01*
%TO.C,R7*%
X82970666Y-71276380D02*
X83304000Y-70800190D01*
X83542095Y-71276380D02*
X83542095Y-70276380D01*
X83161142Y-70276380D01*
X83065904Y-70324000D01*
X83018285Y-70371619D01*
X82970666Y-70466857D01*
X82970666Y-70609714D01*
X83018285Y-70704952D01*
X83065904Y-70752571D01*
X83161142Y-70800190D01*
X83542095Y-70800190D01*
X82637333Y-70276380D02*
X81970666Y-70276380D01*
X82399238Y-71276380D01*
%TO.C,R8*%
X114974666Y-71276380D02*
X115308000Y-70800190D01*
X115546095Y-71276380D02*
X115546095Y-70276380D01*
X115165142Y-70276380D01*
X115069904Y-70324000D01*
X115022285Y-70371619D01*
X114974666Y-70466857D01*
X114974666Y-70609714D01*
X115022285Y-70704952D01*
X115069904Y-70752571D01*
X115165142Y-70800190D01*
X115546095Y-70800190D01*
X114403238Y-70704952D02*
X114498476Y-70657333D01*
X114546095Y-70609714D01*
X114593714Y-70514476D01*
X114593714Y-70466857D01*
X114546095Y-70371619D01*
X114498476Y-70324000D01*
X114403238Y-70276380D01*
X114212761Y-70276380D01*
X114117523Y-70324000D01*
X114069904Y-70371619D01*
X114022285Y-70466857D01*
X114022285Y-70514476D01*
X114069904Y-70609714D01*
X114117523Y-70657333D01*
X114212761Y-70704952D01*
X114403238Y-70704952D01*
X114498476Y-70752571D01*
X114546095Y-70800190D01*
X114593714Y-70895428D01*
X114593714Y-71085904D01*
X114546095Y-71181142D01*
X114498476Y-71228761D01*
X114403238Y-71276380D01*
X114212761Y-71276380D01*
X114117523Y-71228761D01*
X114069904Y-71181142D01*
X114022285Y-71085904D01*
X114022285Y-70895428D01*
X114069904Y-70800190D01*
X114117523Y-70752571D01*
X114212761Y-70704952D01*
%TO.C,R9*%
X106846666Y-77372380D02*
X107180000Y-76896190D01*
X107418095Y-77372380D02*
X107418095Y-76372380D01*
X107037142Y-76372380D01*
X106941904Y-76420000D01*
X106894285Y-76467619D01*
X106846666Y-76562857D01*
X106846666Y-76705714D01*
X106894285Y-76800952D01*
X106941904Y-76848571D01*
X107037142Y-76896190D01*
X107418095Y-76896190D01*
X106370476Y-77372380D02*
X106180000Y-77372380D01*
X106084761Y-77324761D01*
X106037142Y-77277142D01*
X105941904Y-77134285D01*
X105894285Y-76943809D01*
X105894285Y-76562857D01*
X105941904Y-76467619D01*
X105989523Y-76420000D01*
X106084761Y-76372380D01*
X106275238Y-76372380D01*
X106370476Y-76420000D01*
X106418095Y-76467619D01*
X106465714Y-76562857D01*
X106465714Y-76800952D01*
X106418095Y-76896190D01*
X106370476Y-76943809D01*
X106275238Y-76991428D01*
X106084761Y-76991428D01*
X105989523Y-76943809D01*
X105941904Y-76896190D01*
X105894285Y-76800952D01*
%TO.C,R10*%
X107322857Y-80928380D02*
X107656190Y-80452190D01*
X107894285Y-80928380D02*
X107894285Y-79928380D01*
X107513333Y-79928380D01*
X107418095Y-79976000D01*
X107370476Y-80023619D01*
X107322857Y-80118857D01*
X107322857Y-80261714D01*
X107370476Y-80356952D01*
X107418095Y-80404571D01*
X107513333Y-80452190D01*
X107894285Y-80452190D01*
X106370476Y-80928380D02*
X106941904Y-80928380D01*
X106656190Y-80928380D02*
X106656190Y-79928380D01*
X106751428Y-80071238D01*
X106846666Y-80166476D01*
X106941904Y-80214095D01*
X105751428Y-79928380D02*
X105656190Y-79928380D01*
X105560952Y-79976000D01*
X105513333Y-80023619D01*
X105465714Y-80118857D01*
X105418095Y-80309333D01*
X105418095Y-80547428D01*
X105465714Y-80737904D01*
X105513333Y-80833142D01*
X105560952Y-80880761D01*
X105656190Y-80928380D01*
X105751428Y-80928380D01*
X105846666Y-80880761D01*
X105894285Y-80833142D01*
X105941904Y-80737904D01*
X105989523Y-80547428D01*
X105989523Y-80309333D01*
X105941904Y-80118857D01*
X105894285Y-80023619D01*
X105846666Y-79976000D01*
X105751428Y-79928380D01*
%TO.C,R11*%
X107322857Y-84484380D02*
X107656190Y-84008190D01*
X107894285Y-84484380D02*
X107894285Y-83484380D01*
X107513333Y-83484380D01*
X107418095Y-83532000D01*
X107370476Y-83579619D01*
X107322857Y-83674857D01*
X107322857Y-83817714D01*
X107370476Y-83912952D01*
X107418095Y-83960571D01*
X107513333Y-84008190D01*
X107894285Y-84008190D01*
X106370476Y-84484380D02*
X106941904Y-84484380D01*
X106656190Y-84484380D02*
X106656190Y-83484380D01*
X106751428Y-83627238D01*
X106846666Y-83722476D01*
X106941904Y-83770095D01*
X105418095Y-84484380D02*
X105989523Y-84484380D01*
X105703809Y-84484380D02*
X105703809Y-83484380D01*
X105799047Y-83627238D01*
X105894285Y-83722476D01*
X105989523Y-83770095D01*
%TO.C,R12*%
X76842857Y-72800380D02*
X77176190Y-72324190D01*
X77414285Y-72800380D02*
X77414285Y-71800380D01*
X77033333Y-71800380D01*
X76938095Y-71848000D01*
X76890476Y-71895619D01*
X76842857Y-71990857D01*
X76842857Y-72133714D01*
X76890476Y-72228952D01*
X76938095Y-72276571D01*
X77033333Y-72324190D01*
X77414285Y-72324190D01*
X75890476Y-72800380D02*
X76461904Y-72800380D01*
X76176190Y-72800380D02*
X76176190Y-71800380D01*
X76271428Y-71943238D01*
X76366666Y-72038476D01*
X76461904Y-72086095D01*
X75509523Y-71895619D02*
X75461904Y-71848000D01*
X75366666Y-71800380D01*
X75128571Y-71800380D01*
X75033333Y-71848000D01*
X74985714Y-71895619D01*
X74938095Y-71990857D01*
X74938095Y-72086095D01*
X74985714Y-72228952D01*
X75557142Y-72800380D01*
X74938095Y-72800380D01*
%TO.C,U1*%
X64014380Y-81026095D02*
X64823904Y-81026095D01*
X64919142Y-81073714D01*
X64966761Y-81121333D01*
X65014380Y-81216571D01*
X65014380Y-81407047D01*
X64966761Y-81502285D01*
X64919142Y-81549904D01*
X64823904Y-81597523D01*
X64014380Y-81597523D01*
X65014380Y-82597523D02*
X65014380Y-82026095D01*
X65014380Y-82311809D02*
X64014380Y-82311809D01*
X64157238Y-82216571D01*
X64252476Y-82121333D01*
X64300095Y-82026095D01*
%TO.C,C2*%
X52490666Y-66579142D02*
X52538285Y-66626761D01*
X52681142Y-66674380D01*
X52776380Y-66674380D01*
X52919238Y-66626761D01*
X53014476Y-66531523D01*
X53062095Y-66436285D01*
X53109714Y-66245809D01*
X53109714Y-66102952D01*
X53062095Y-65912476D01*
X53014476Y-65817238D01*
X52919238Y-65722000D01*
X52776380Y-65674380D01*
X52681142Y-65674380D01*
X52538285Y-65722000D01*
X52490666Y-65769619D01*
X52109714Y-65769619D02*
X52062095Y-65722000D01*
X51966857Y-65674380D01*
X51728761Y-65674380D01*
X51633523Y-65722000D01*
X51585904Y-65769619D01*
X51538285Y-65864857D01*
X51538285Y-65960095D01*
X51585904Y-66102952D01*
X52157333Y-66674380D01*
X51538285Y-66674380D01*
%TO.C,C3*%
X70778666Y-66579142D02*
X70826285Y-66626761D01*
X70969142Y-66674380D01*
X71064380Y-66674380D01*
X71207238Y-66626761D01*
X71302476Y-66531523D01*
X71350095Y-66436285D01*
X71397714Y-66245809D01*
X71397714Y-66102952D01*
X71350095Y-65912476D01*
X71302476Y-65817238D01*
X71207238Y-65722000D01*
X71064380Y-65674380D01*
X70969142Y-65674380D01*
X70826285Y-65722000D01*
X70778666Y-65769619D01*
X70445333Y-65674380D02*
X69826285Y-65674380D01*
X70159619Y-66055333D01*
X70016761Y-66055333D01*
X69921523Y-66102952D01*
X69873904Y-66150571D01*
X69826285Y-66245809D01*
X69826285Y-66483904D01*
X69873904Y-66579142D01*
X69921523Y-66626761D01*
X70016761Y-66674380D01*
X70302476Y-66674380D01*
X70397714Y-66626761D01*
X70445333Y-66579142D01*
%TO.C,C4*%
X89066666Y-70279142D02*
X89114285Y-70326761D01*
X89257142Y-70374380D01*
X89352380Y-70374380D01*
X89495238Y-70326761D01*
X89590476Y-70231523D01*
X89638095Y-70136285D01*
X89685714Y-69945809D01*
X89685714Y-69802952D01*
X89638095Y-69612476D01*
X89590476Y-69517238D01*
X89495238Y-69422000D01*
X89352380Y-69374380D01*
X89257142Y-69374380D01*
X89114285Y-69422000D01*
X89066666Y-69469619D01*
X88209523Y-69707714D02*
X88209523Y-70374380D01*
X88447619Y-69326761D02*
X88685714Y-70041047D01*
X88066666Y-70041047D01*
%TO.C,C5*%
X65698666Y-94663142D02*
X65746285Y-94710761D01*
X65889142Y-94758380D01*
X65984380Y-94758380D01*
X66127238Y-94710761D01*
X66222476Y-94615523D01*
X66270095Y-94520285D01*
X66317714Y-94329809D01*
X66317714Y-94186952D01*
X66270095Y-93996476D01*
X66222476Y-93901238D01*
X66127238Y-93806000D01*
X65984380Y-93758380D01*
X65889142Y-93758380D01*
X65746285Y-93806000D01*
X65698666Y-93853619D01*
X64793904Y-93758380D02*
X65270095Y-93758380D01*
X65317714Y-94234571D01*
X65270095Y-94186952D01*
X65174857Y-94139333D01*
X64936761Y-94139333D01*
X64841523Y-94186952D01*
X64793904Y-94234571D01*
X64746285Y-94329809D01*
X64746285Y-94567904D01*
X64793904Y-94663142D01*
X64841523Y-94710761D01*
X64936761Y-94758380D01*
X65174857Y-94758380D01*
X65270095Y-94710761D01*
X65317714Y-94663142D01*
%TO.C,C6*%
X74334666Y-90963142D02*
X74382285Y-91010761D01*
X74525142Y-91058380D01*
X74620380Y-91058380D01*
X74763238Y-91010761D01*
X74858476Y-90915523D01*
X74906095Y-90820285D01*
X74953714Y-90629809D01*
X74953714Y-90486952D01*
X74906095Y-90296476D01*
X74858476Y-90201238D01*
X74763238Y-90106000D01*
X74620380Y-90058380D01*
X74525142Y-90058380D01*
X74382285Y-90106000D01*
X74334666Y-90153619D01*
X73477523Y-90058380D02*
X73668000Y-90058380D01*
X73763238Y-90106000D01*
X73810857Y-90153619D01*
X73906095Y-90296476D01*
X73953714Y-90486952D01*
X73953714Y-90867904D01*
X73906095Y-90963142D01*
X73858476Y-91010761D01*
X73763238Y-91058380D01*
X73572761Y-91058380D01*
X73477523Y-91010761D01*
X73429904Y-90963142D01*
X73382285Y-90867904D01*
X73382285Y-90629809D01*
X73429904Y-90534571D01*
X73477523Y-90486952D01*
X73572761Y-90439333D01*
X73763238Y-90439333D01*
X73858476Y-90486952D01*
X73906095Y-90534571D01*
X73953714Y-90629809D01*
%TO.C,C7*%
X65190666Y-73327142D02*
X65238285Y-73374761D01*
X65381142Y-73422380D01*
X65476380Y-73422380D01*
X65619238Y-73374761D01*
X65714476Y-73279523D01*
X65762095Y-73184285D01*
X65809714Y-72993809D01*
X65809714Y-72850952D01*
X65762095Y-72660476D01*
X65714476Y-72565238D01*
X65619238Y-72470000D01*
X65476380Y-72422380D01*
X65381142Y-72422380D01*
X65238285Y-72470000D01*
X65190666Y-72517619D01*
X64857333Y-72422380D02*
X64190666Y-72422380D01*
X64619238Y-73422380D01*
%TO.C,C8*%
X58078666Y-74851142D02*
X58126285Y-74898761D01*
X58269142Y-74946380D01*
X58364380Y-74946380D01*
X58507238Y-74898761D01*
X58602476Y-74803523D01*
X58650095Y-74708285D01*
X58697714Y-74517809D01*
X58697714Y-74374952D01*
X58650095Y-74184476D01*
X58602476Y-74089238D01*
X58507238Y-73994000D01*
X58364380Y-73946380D01*
X58269142Y-73946380D01*
X58126285Y-73994000D01*
X58078666Y-74041619D01*
X57507238Y-74374952D02*
X57602476Y-74327333D01*
X57650095Y-74279714D01*
X57697714Y-74184476D01*
X57697714Y-74136857D01*
X57650095Y-74041619D01*
X57602476Y-73994000D01*
X57507238Y-73946380D01*
X57316761Y-73946380D01*
X57221523Y-73994000D01*
X57173904Y-74041619D01*
X57126285Y-74136857D01*
X57126285Y-74184476D01*
X57173904Y-74279714D01*
X57221523Y-74327333D01*
X57316761Y-74374952D01*
X57507238Y-74374952D01*
X57602476Y-74422571D01*
X57650095Y-74470190D01*
X57697714Y-74565428D01*
X57697714Y-74755904D01*
X57650095Y-74851142D01*
X57602476Y-74898761D01*
X57507238Y-74946380D01*
X57316761Y-74946380D01*
X57221523Y-74898761D01*
X57173904Y-74851142D01*
X57126285Y-74755904D01*
X57126285Y-74565428D01*
X57173904Y-74470190D01*
X57221523Y-74422571D01*
X57316761Y-74374952D01*
%TO.C,C9*%
X90082666Y-74851142D02*
X90130285Y-74898761D01*
X90273142Y-74946380D01*
X90368380Y-74946380D01*
X90511238Y-74898761D01*
X90606476Y-74803523D01*
X90654095Y-74708285D01*
X90701714Y-74517809D01*
X90701714Y-74374952D01*
X90654095Y-74184476D01*
X90606476Y-74089238D01*
X90511238Y-73994000D01*
X90368380Y-73946380D01*
X90273142Y-73946380D01*
X90130285Y-73994000D01*
X90082666Y-74041619D01*
X89606476Y-74946380D02*
X89416000Y-74946380D01*
X89320761Y-74898761D01*
X89273142Y-74851142D01*
X89177904Y-74708285D01*
X89130285Y-74517809D01*
X89130285Y-74136857D01*
X89177904Y-74041619D01*
X89225523Y-73994000D01*
X89320761Y-73946380D01*
X89511238Y-73946380D01*
X89606476Y-73994000D01*
X89654095Y-74041619D01*
X89701714Y-74136857D01*
X89701714Y-74374952D01*
X89654095Y-74470190D01*
X89606476Y-74517809D01*
X89511238Y-74565428D01*
X89320761Y-74565428D01*
X89225523Y-74517809D01*
X89177904Y-74470190D01*
X89130285Y-74374952D01*
%TO.C,C10*%
X122054857Y-74851142D02*
X122102476Y-74898761D01*
X122245333Y-74946380D01*
X122340571Y-74946380D01*
X122483428Y-74898761D01*
X122578666Y-74803523D01*
X122626285Y-74708285D01*
X122673904Y-74517809D01*
X122673904Y-74374952D01*
X122626285Y-74184476D01*
X122578666Y-74089238D01*
X122483428Y-73994000D01*
X122340571Y-73946380D01*
X122245333Y-73946380D01*
X122102476Y-73994000D01*
X122054857Y-74041619D01*
X121102476Y-74946380D02*
X121673904Y-74946380D01*
X121388190Y-74946380D02*
X121388190Y-73946380D01*
X121483428Y-74089238D01*
X121578666Y-74184476D01*
X121673904Y-74232095D01*
X120483428Y-73946380D02*
X120388190Y-73946380D01*
X120292952Y-73994000D01*
X120245333Y-74041619D01*
X120197714Y-74136857D01*
X120150095Y-74327333D01*
X120150095Y-74565428D01*
X120197714Y-74755904D01*
X120245333Y-74851142D01*
X120292952Y-74898761D01*
X120388190Y-74946380D01*
X120483428Y-74946380D01*
X120578666Y-74898761D01*
X120626285Y-74851142D01*
X120673904Y-74755904D01*
X120721523Y-74565428D01*
X120721523Y-74327333D01*
X120673904Y-74136857D01*
X120626285Y-74041619D01*
X120578666Y-73994000D01*
X120483428Y-73946380D01*
%TO.C,C11*%
X101226857Y-80947142D02*
X101274476Y-80994761D01*
X101417333Y-81042380D01*
X101512571Y-81042380D01*
X101655428Y-80994761D01*
X101750666Y-80899523D01*
X101798285Y-80804285D01*
X101845904Y-80613809D01*
X101845904Y-80470952D01*
X101798285Y-80280476D01*
X101750666Y-80185238D01*
X101655428Y-80090000D01*
X101512571Y-80042380D01*
X101417333Y-80042380D01*
X101274476Y-80090000D01*
X101226857Y-80137619D01*
X100274476Y-81042380D02*
X100845904Y-81042380D01*
X100560190Y-81042380D02*
X100560190Y-80042380D01*
X100655428Y-80185238D01*
X100750666Y-80280476D01*
X100845904Y-80328095D01*
X99322095Y-81042380D02*
X99893523Y-81042380D01*
X99607809Y-81042380D02*
X99607809Y-80042380D01*
X99703047Y-80185238D01*
X99798285Y-80280476D01*
X99893523Y-80328095D01*
%TO.C,C12*%
X101226857Y-84503142D02*
X101274476Y-84550761D01*
X101417333Y-84598380D01*
X101512571Y-84598380D01*
X101655428Y-84550761D01*
X101750666Y-84455523D01*
X101798285Y-84360285D01*
X101845904Y-84169809D01*
X101845904Y-84026952D01*
X101798285Y-83836476D01*
X101750666Y-83741238D01*
X101655428Y-83646000D01*
X101512571Y-83598380D01*
X101417333Y-83598380D01*
X101274476Y-83646000D01*
X101226857Y-83693619D01*
X100274476Y-84598380D02*
X100845904Y-84598380D01*
X100560190Y-84598380D02*
X100560190Y-83598380D01*
X100655428Y-83741238D01*
X100750666Y-83836476D01*
X100845904Y-83884095D01*
X99893523Y-83693619D02*
X99845904Y-83646000D01*
X99750666Y-83598380D01*
X99512571Y-83598380D01*
X99417333Y-83646000D01*
X99369714Y-83693619D01*
X99322095Y-83788857D01*
X99322095Y-83884095D01*
X99369714Y-84026952D01*
X99941142Y-84598380D01*
X99322095Y-84598380D01*
%TO.C,C13*%
X101226857Y-88059142D02*
X101274476Y-88106761D01*
X101417333Y-88154380D01*
X101512571Y-88154380D01*
X101655428Y-88106761D01*
X101750666Y-88011523D01*
X101798285Y-87916285D01*
X101845904Y-87725809D01*
X101845904Y-87582952D01*
X101798285Y-87392476D01*
X101750666Y-87297238D01*
X101655428Y-87202000D01*
X101512571Y-87154380D01*
X101417333Y-87154380D01*
X101274476Y-87202000D01*
X101226857Y-87249619D01*
X100274476Y-88154380D02*
X100845904Y-88154380D01*
X100560190Y-88154380D02*
X100560190Y-87154380D01*
X100655428Y-87297238D01*
X100750666Y-87392476D01*
X100845904Y-87440095D01*
X99941142Y-87154380D02*
X99322095Y-87154380D01*
X99655428Y-87535333D01*
X99512571Y-87535333D01*
X99417333Y-87582952D01*
X99369714Y-87630571D01*
X99322095Y-87725809D01*
X99322095Y-87963904D01*
X99369714Y-88059142D01*
X99417333Y-88106761D01*
X99512571Y-88154380D01*
X99798285Y-88154380D01*
X99893523Y-88106761D01*
X99941142Y-88059142D01*
%TO.C,C15*%
X76842857Y-69627142D02*
X76890476Y-69674761D01*
X77033333Y-69722380D01*
X77128571Y-69722380D01*
X77271428Y-69674761D01*
X77366666Y-69579523D01*
X77414285Y-69484285D01*
X77461904Y-69293809D01*
X77461904Y-69150952D01*
X77414285Y-68960476D01*
X77366666Y-68865238D01*
X77271428Y-68770000D01*
X77128571Y-68722380D01*
X77033333Y-68722380D01*
X76890476Y-68770000D01*
X76842857Y-68817619D01*
X75890476Y-69722380D02*
X76461904Y-69722380D01*
X76176190Y-69722380D02*
X76176190Y-68722380D01*
X76271428Y-68865238D01*
X76366666Y-68960476D01*
X76461904Y-69008095D01*
X74985714Y-68722380D02*
X75461904Y-68722380D01*
X75509523Y-69198571D01*
X75461904Y-69150952D01*
X75366666Y-69103333D01*
X75128571Y-69103333D01*
X75033333Y-69150952D01*
X74985714Y-69198571D01*
X74938095Y-69293809D01*
X74938095Y-69531904D01*
X74985714Y-69627142D01*
X75033333Y-69674761D01*
X75128571Y-69722380D01*
X75366666Y-69722380D01*
X75461904Y-69674761D01*
X75509523Y-69627142D01*
%TO.C,C17*%
X113672857Y-70787142D02*
X113720476Y-70834761D01*
X113863333Y-70882380D01*
X113958571Y-70882380D01*
X114101428Y-70834761D01*
X114196666Y-70739523D01*
X114244285Y-70644285D01*
X114291904Y-70453809D01*
X114291904Y-70310952D01*
X114244285Y-70120476D01*
X114196666Y-70025238D01*
X114101428Y-69930000D01*
X113958571Y-69882380D01*
X113863333Y-69882380D01*
X113720476Y-69930000D01*
X113672857Y-69977619D01*
X112720476Y-70882380D02*
X113291904Y-70882380D01*
X113006190Y-70882380D02*
X113006190Y-69882380D01*
X113101428Y-70025238D01*
X113196666Y-70120476D01*
X113291904Y-70168095D01*
X112387142Y-69882380D02*
X111720476Y-69882380D01*
X112149047Y-70882380D01*
%TO.C,J1*%
X46172380Y-59406666D02*
X46886666Y-59406666D01*
X47029523Y-59359047D01*
X47124761Y-59263809D01*
X47172380Y-59120952D01*
X47172380Y-59025714D01*
X47172380Y-60406666D02*
X47172380Y-59835238D01*
X47172380Y-60120952D02*
X46172380Y-60120952D01*
X46315238Y-60025714D01*
X46410476Y-59930476D01*
X46458095Y-59835238D01*
%TO.C,J2*%
X64587380Y-59406666D02*
X65301666Y-59406666D01*
X65444523Y-59359047D01*
X65539761Y-59263809D01*
X65587380Y-59120952D01*
X65587380Y-59025714D01*
X64682619Y-59835238D02*
X64635000Y-59882857D01*
X64587380Y-59978095D01*
X64587380Y-60216190D01*
X64635000Y-60311428D01*
X64682619Y-60359047D01*
X64777857Y-60406666D01*
X64873095Y-60406666D01*
X65015952Y-60359047D01*
X65587380Y-59787619D01*
X65587380Y-60406666D01*
%TO.C,J3*%
X83002380Y-59406666D02*
X83716666Y-59406666D01*
X83859523Y-59359047D01*
X83954761Y-59263809D01*
X84002380Y-59120952D01*
X84002380Y-59025714D01*
X83002380Y-59787619D02*
X83002380Y-60406666D01*
X83383333Y-60073333D01*
X83383333Y-60216190D01*
X83430952Y-60311428D01*
X83478571Y-60359047D01*
X83573809Y-60406666D01*
X83811904Y-60406666D01*
X83907142Y-60359047D01*
X83954761Y-60311428D01*
X84002380Y-60216190D01*
X84002380Y-59930476D01*
X83954761Y-59835238D01*
X83907142Y-59787619D01*
%TO.C,J4*%
X110942380Y-59406666D02*
X111656666Y-59406666D01*
X111799523Y-59359047D01*
X111894761Y-59263809D01*
X111942380Y-59120952D01*
X111942380Y-59025714D01*
X111275714Y-60311428D02*
X111942380Y-60311428D01*
X110894761Y-60073333D02*
X111609047Y-59835238D01*
X111609047Y-60454285D01*
%TD*%
M02*
