%TF.GenerationSoftware,KiCad,Pcbnew,5.1.7-a382d34a8~87~ubuntu20.04.1*%
%TF.CreationDate,2020-10-16T18:55:23+02:00*%
%TF.ProjectId,3Channel-PiezoAmp,33436861-6e6e-4656-9c2d-5069657a6f41,rev?*%
%TF.SameCoordinates,Original*%
%TF.FileFunction,Copper,L1,Top*%
%TF.FilePolarity,Positive*%
%FSLAX46Y46*%
G04 Gerber Fmt 4.6, Leading zero omitted, Abs format (unit mm)*
G04 Created by KiCad (PCBNEW 5.1.7-a382d34a8~87~ubuntu20.04.1) date 2020-10-16 18:55:23*
%MOMM*%
%LPD*%
G01*
G04 APERTURE LIST*
%TA.AperFunction,ComponentPad*%
%ADD10C,2.000000*%
%TD*%
%TA.AperFunction,ComponentPad*%
%ADD11O,2.800000X3.500000*%
%TD*%
%TA.AperFunction,ComponentPad*%
%ADD12O,2.190000X1.740000*%
%TD*%
%TA.AperFunction,ViaPad*%
%ADD13C,1.500000*%
%TD*%
%TA.AperFunction,Conductor*%
%ADD14C,0.800000*%
%TD*%
%TA.AperFunction,Conductor*%
%ADD15C,0.400000*%
%TD*%
%TA.AperFunction,Conductor*%
%ADD16C,0.254000*%
%TD*%
%TA.AperFunction,Conductor*%
%ADD17C,0.100000*%
%TD*%
G04 APERTURE END LIST*
D10*
%TO.P,RV1,3*%
%TO.N,GND*%
X52110000Y-87510000D03*
%TO.P,RV1,2*%
%TO.N,Net-(C11-Pad1)*%
X54610000Y-87510000D03*
%TO.P,RV1,1*%
%TO.N,Net-(C8-Pad2)*%
X57110000Y-87510000D03*
D11*
%TO.P,RV1,*%
%TO.N,*%
X49810000Y-80010000D03*
X59410000Y-80010000D03*
%TD*%
D10*
%TO.P,RV2,3*%
%TO.N,GND*%
X83860000Y-87510000D03*
%TO.P,RV2,2*%
%TO.N,Net-(C12-Pad1)*%
X86360000Y-87510000D03*
%TO.P,RV2,1*%
%TO.N,Net-(C9-Pad2)*%
X88860000Y-87510000D03*
D11*
%TO.P,RV2,*%
%TO.N,*%
X81560000Y-80010000D03*
X91160000Y-80010000D03*
%TD*%
D10*
%TO.P,RV3,3*%
%TO.N,GND*%
X115610000Y-87510000D03*
%TO.P,RV3,2*%
%TO.N,Net-(C13-Pad1)*%
X118110000Y-87510000D03*
%TO.P,RV3,1*%
%TO.N,Net-(C10-Pad2)*%
X120610000Y-87510000D03*
D11*
%TO.P,RV3,*%
%TO.N,*%
X113310000Y-80010000D03*
X122910000Y-80010000D03*
%TD*%
%TO.P,BT1,1*%
%TO.N,+9V*%
%TA.AperFunction,ComponentPad*%
G36*
G01*
X72814999Y-96920000D02*
X74505001Y-96920000D01*
G75*
G02*
X74755000Y-97169999I0J-249999D01*
G01*
X74755000Y-98410001D01*
G75*
G02*
X74505001Y-98660000I-249999J0D01*
G01*
X72814999Y-98660000D01*
G75*
G02*
X72565000Y-98410001I0J249999D01*
G01*
X72565000Y-97169999D01*
G75*
G02*
X72814999Y-96920000I249999J0D01*
G01*
G37*
%TD.AperFunction*%
D12*
%TO.P,BT1,2*%
%TO.N,GNDswitch*%
X73660000Y-100330000D03*
%TD*%
%TO.P,LED1,1*%
%TO.N,Net-(LED1-Pad1)*%
%TA.AperFunction,SMDPad,CuDef*%
G36*
G01*
X54159999Y-78410000D02*
X55060001Y-78410000D01*
G75*
G02*
X55310000Y-78659999I0J-249999D01*
G01*
X55310000Y-79310001D01*
G75*
G02*
X55060001Y-79560000I-249999J0D01*
G01*
X54159999Y-79560000D01*
G75*
G02*
X53910000Y-79310001I0J249999D01*
G01*
X53910000Y-78659999D01*
G75*
G02*
X54159999Y-78410000I249999J0D01*
G01*
G37*
%TD.AperFunction*%
%TO.P,LED1,2*%
%TO.N,+9V*%
%TA.AperFunction,SMDPad,CuDef*%
G36*
G01*
X54159999Y-80460000D02*
X55060001Y-80460000D01*
G75*
G02*
X55310000Y-80709999I0J-249999D01*
G01*
X55310000Y-81360001D01*
G75*
G02*
X55060001Y-81610000I-249999J0D01*
G01*
X54159999Y-81610000D01*
G75*
G02*
X53910000Y-81360001I0J249999D01*
G01*
X53910000Y-80709999D01*
G75*
G02*
X54159999Y-80460000I249999J0D01*
G01*
G37*
%TD.AperFunction*%
%TD*%
%TO.P,LED2,1*%
%TO.N,Net-(LED2-Pad1)*%
%TA.AperFunction,SMDPad,CuDef*%
G36*
G01*
X85909999Y-78410000D02*
X86810001Y-78410000D01*
G75*
G02*
X87060000Y-78659999I0J-249999D01*
G01*
X87060000Y-79310001D01*
G75*
G02*
X86810001Y-79560000I-249999J0D01*
G01*
X85909999Y-79560000D01*
G75*
G02*
X85660000Y-79310001I0J249999D01*
G01*
X85660000Y-78659999D01*
G75*
G02*
X85909999Y-78410000I249999J0D01*
G01*
G37*
%TD.AperFunction*%
%TO.P,LED2,2*%
%TO.N,+9V*%
%TA.AperFunction,SMDPad,CuDef*%
G36*
G01*
X85909999Y-80460000D02*
X86810001Y-80460000D01*
G75*
G02*
X87060000Y-80709999I0J-249999D01*
G01*
X87060000Y-81360001D01*
G75*
G02*
X86810001Y-81610000I-249999J0D01*
G01*
X85909999Y-81610000D01*
G75*
G02*
X85660000Y-81360001I0J249999D01*
G01*
X85660000Y-80709999D01*
G75*
G02*
X85909999Y-80460000I249999J0D01*
G01*
G37*
%TD.AperFunction*%
%TD*%
%TO.P,LED3,2*%
%TO.N,+9V*%
%TA.AperFunction,SMDPad,CuDef*%
G36*
G01*
X117659999Y-80460000D02*
X118560001Y-80460000D01*
G75*
G02*
X118810000Y-80709999I0J-249999D01*
G01*
X118810000Y-81360001D01*
G75*
G02*
X118560001Y-81610000I-249999J0D01*
G01*
X117659999Y-81610000D01*
G75*
G02*
X117410000Y-81360001I0J249999D01*
G01*
X117410000Y-80709999D01*
G75*
G02*
X117659999Y-80460000I249999J0D01*
G01*
G37*
%TD.AperFunction*%
%TO.P,LED3,1*%
%TO.N,Net-(LED3-Pad1)*%
%TA.AperFunction,SMDPad,CuDef*%
G36*
G01*
X117659999Y-78410000D02*
X118560001Y-78410000D01*
G75*
G02*
X118810000Y-78659999I0J-249999D01*
G01*
X118810000Y-79310001D01*
G75*
G02*
X118560001Y-79560000I-249999J0D01*
G01*
X117659999Y-79560000D01*
G75*
G02*
X117410000Y-79310001I0J249999D01*
G01*
X117410000Y-78659999D01*
G75*
G02*
X117659999Y-78410000I249999J0D01*
G01*
G37*
%TD.AperFunction*%
%TD*%
%TO.P,R14,2*%
%TO.N,Net-(LED1-Pad1)*%
%TA.AperFunction,SMDPad,CuDef*%
G36*
G01*
X55256000Y-72253000D02*
X55256000Y-71003000D01*
G75*
G02*
X55506000Y-70753000I250000J0D01*
G01*
X56306000Y-70753000D01*
G75*
G02*
X56556000Y-71003000I0J-250000D01*
G01*
X56556000Y-72253000D01*
G75*
G02*
X56306000Y-72503000I-250000J0D01*
G01*
X55506000Y-72503000D01*
G75*
G02*
X55256000Y-72253000I0J250000D01*
G01*
G37*
%TD.AperFunction*%
%TO.P,R14,1*%
%TO.N,GND*%
%TA.AperFunction,SMDPad,CuDef*%
G36*
G01*
X52156000Y-72253000D02*
X52156000Y-71003000D01*
G75*
G02*
X52406000Y-70753000I250000J0D01*
G01*
X53206000Y-70753000D01*
G75*
G02*
X53456000Y-71003000I0J-250000D01*
G01*
X53456000Y-72253000D01*
G75*
G02*
X53206000Y-72503000I-250000J0D01*
G01*
X52406000Y-72503000D01*
G75*
G02*
X52156000Y-72253000I0J250000D01*
G01*
G37*
%TD.AperFunction*%
%TD*%
%TO.P,R15,2*%
%TO.N,Net-(LED2-Pad1)*%
%TA.AperFunction,SMDPad,CuDef*%
G36*
G01*
X87260000Y-72253000D02*
X87260000Y-71003000D01*
G75*
G02*
X87510000Y-70753000I250000J0D01*
G01*
X88310000Y-70753000D01*
G75*
G02*
X88560000Y-71003000I0J-250000D01*
G01*
X88560000Y-72253000D01*
G75*
G02*
X88310000Y-72503000I-250000J0D01*
G01*
X87510000Y-72503000D01*
G75*
G02*
X87260000Y-72253000I0J250000D01*
G01*
G37*
%TD.AperFunction*%
%TO.P,R15,1*%
%TO.N,GND*%
%TA.AperFunction,SMDPad,CuDef*%
G36*
G01*
X84160000Y-72253000D02*
X84160000Y-71003000D01*
G75*
G02*
X84410000Y-70753000I250000J0D01*
G01*
X85210000Y-70753000D01*
G75*
G02*
X85460000Y-71003000I0J-250000D01*
G01*
X85460000Y-72253000D01*
G75*
G02*
X85210000Y-72503000I-250000J0D01*
G01*
X84410000Y-72503000D01*
G75*
G02*
X84160000Y-72253000I0J250000D01*
G01*
G37*
%TD.AperFunction*%
%TD*%
%TO.P,R16,1*%
%TO.N,GND*%
%TA.AperFunction,SMDPad,CuDef*%
G36*
G01*
X115656000Y-71745000D02*
X115656000Y-70495000D01*
G75*
G02*
X115906000Y-70245000I250000J0D01*
G01*
X116706000Y-70245000D01*
G75*
G02*
X116956000Y-70495000I0J-250000D01*
G01*
X116956000Y-71745000D01*
G75*
G02*
X116706000Y-71995000I-250000J0D01*
G01*
X115906000Y-71995000D01*
G75*
G02*
X115656000Y-71745000I0J250000D01*
G01*
G37*
%TD.AperFunction*%
%TO.P,R16,2*%
%TO.N,Net-(LED3-Pad1)*%
%TA.AperFunction,SMDPad,CuDef*%
G36*
G01*
X118756000Y-71745000D02*
X118756000Y-70495000D01*
G75*
G02*
X119006000Y-70245000I250000J0D01*
G01*
X119806000Y-70245000D01*
G75*
G02*
X120056000Y-70495000I0J-250000D01*
G01*
X120056000Y-71745000D01*
G75*
G02*
X119806000Y-71995000I-250000J0D01*
G01*
X119006000Y-71995000D01*
G75*
G02*
X118756000Y-71745000I0J250000D01*
G01*
G37*
%TD.AperFunction*%
%TD*%
D13*
%TO.N,GND*%
X124460000Y-60960000D03*
X70104000Y-87376000D03*
X92964000Y-76200000D03*
%TO.N,Net-(C3-Pad1)*%
X72174500Y-73621500D03*
X70104000Y-89408000D03*
%TO.N,Net-(C6-Pad1)*%
X76200000Y-87376000D03*
X80264000Y-75184000D03*
%TO.N,Net-(C7-Pad1)*%
X99060000Y-69830000D03*
X62992000Y-78740000D03*
%TO.N,Net-(C11-Pad1)*%
X93472000Y-87376000D03*
%TO.N,Net-(C12-Pad1)*%
X95504000Y-87376000D03*
%TO.N,+9V*%
X45212000Y-68580000D03*
X62484000Y-68580000D03*
X81280000Y-68580000D03*
X60960000Y-101600000D03*
%TD*%
D14*
%TO.N,GND*%
X116306000Y-69114000D02*
X116306000Y-71120000D01*
X126492000Y-85344000D02*
X126492000Y-69596000D01*
X125984000Y-85852000D02*
X126492000Y-85344000D01*
X126492000Y-69596000D02*
X125476000Y-68580000D01*
X116332000Y-85852000D02*
X125984000Y-85852000D01*
X115650000Y-86534000D02*
X116332000Y-85852000D01*
X116840000Y-68580000D02*
X116306000Y-69114000D01*
X115650000Y-87630000D02*
X115650000Y-86534000D01*
X124460000Y-68580000D02*
X124460000Y-60960000D01*
X125476000Y-68580000D02*
X124460000Y-68580000D01*
X124460000Y-68580000D02*
X116840000Y-68580000D01*
X83234990Y-70052990D02*
X84810000Y-71628000D01*
X52806000Y-70638000D02*
X53391010Y-70052990D01*
X53391010Y-70052990D02*
X83234990Y-70052990D01*
X52806000Y-71628000D02*
X52806000Y-70638000D01*
X83234990Y-70052990D02*
X83363010Y-70052990D01*
X83363010Y-70052990D02*
X86360000Y-67056000D01*
X115316000Y-67056000D02*
X116840000Y-68580000D01*
X92964000Y-76200000D02*
X100076000Y-76200000D01*
X104140000Y-72136000D02*
X104140000Y-67056000D01*
X100076000Y-76200000D02*
X104140000Y-72136000D01*
X104140000Y-67056000D02*
X115316000Y-67056000D01*
X86360000Y-67056000D02*
X104140000Y-67056000D01*
D15*
%TO.N,Net-(C3-Pad1)*%
X72174500Y-73621500D02*
X72174500Y-87337500D01*
X72174500Y-87337500D02*
X70104000Y-89408000D01*
%TO.N,Net-(C6-Pad1)*%
X76200000Y-79248000D02*
X80264000Y-75184000D01*
X76200000Y-87376000D02*
X76200000Y-79248000D01*
%TO.N,Net-(C7-Pad1)*%
X85960010Y-72563668D02*
X85371678Y-73152000D01*
X85960010Y-71492312D02*
X85960010Y-72563668D01*
X87622322Y-69830000D02*
X85960010Y-71492312D01*
X99060000Y-69830000D02*
X87622322Y-69830000D01*
X85371678Y-73152000D02*
X74676000Y-73152000D01*
X73895499Y-72371499D02*
X69360501Y-72371499D01*
X74676000Y-73152000D02*
X73895499Y-72371499D01*
X69360501Y-72371499D02*
X62992000Y-78740000D01*
%TO.N,Net-(C11-Pad1)*%
X92456000Y-86360000D02*
X93472000Y-87376000D01*
X91948000Y-85344000D02*
X92456000Y-86360000D01*
X74676000Y-92456000D02*
X80902001Y-86229999D01*
X59476000Y-92456000D02*
X74676000Y-92456000D01*
X80902001Y-86229999D02*
X91948000Y-85344000D01*
X54650000Y-87630000D02*
X59476000Y-92456000D01*
%TO.N,Net-(C12-Pad1)*%
X87800001Y-89030001D02*
X86400000Y-87630000D01*
X93849999Y-89030001D02*
X87800001Y-89030001D01*
X95504000Y-87376000D02*
X93849999Y-89030001D01*
D14*
%TO.N,+9V*%
X54864000Y-81289000D02*
X54610000Y-81035000D01*
X54864000Y-84328000D02*
X54864000Y-81289000D01*
X86360000Y-84328000D02*
X86360000Y-81035000D01*
X118364000Y-81289000D02*
X118110000Y-81035000D01*
X118364000Y-84328000D02*
X118364000Y-81289000D01*
X44704000Y-69088000D02*
X45212000Y-68580000D01*
X44704000Y-81280000D02*
X44704000Y-69088000D01*
X45212000Y-68580000D02*
X62484000Y-68580000D01*
X62484000Y-68580000D02*
X81280000Y-68580000D01*
X44704000Y-100584000D02*
X47244000Y-103124000D01*
X47244000Y-103124000D02*
X59436000Y-103124000D01*
X59436000Y-103124000D02*
X60960000Y-101600000D01*
X45212000Y-84328000D02*
X44704000Y-84836000D01*
D15*
X54864000Y-84328000D02*
X45212000Y-84328000D01*
D14*
X44704000Y-84836000D02*
X44704000Y-100584000D01*
X44704000Y-81280000D02*
X44704000Y-84836000D01*
D15*
X87361989Y-84328000D02*
X118364000Y-84328000D01*
X74419194Y-91440000D02*
X80264000Y-84836000D01*
X80264000Y-84836000D02*
X86360000Y-84328000D01*
X66040000Y-91440000D02*
X74419194Y-91440000D01*
X58928000Y-84328000D02*
X66040000Y-91440000D01*
X54864000Y-84328000D02*
X58928000Y-84328000D01*
X87361989Y-84328000D02*
X86360000Y-84328000D01*
%TO.N,Net-(LED1-Pad1)*%
X55906000Y-71628000D02*
X55906000Y-74650000D01*
X54610000Y-75946000D02*
X54610000Y-78985000D01*
X55906000Y-74650000D02*
X54610000Y-75946000D01*
%TO.N,Net-(LED2-Pad1)*%
X87910000Y-71628000D02*
X87910000Y-75158000D01*
X87910000Y-75158000D02*
X86360000Y-76708000D01*
X86360000Y-76708000D02*
X86360000Y-78985000D01*
%TO.N,Net-(LED3-Pad1)*%
X119406000Y-71120000D02*
X119406000Y-74650000D01*
X118110000Y-75946000D02*
X118110000Y-78985000D01*
X119406000Y-74650000D02*
X118110000Y-75946000D01*
%TD*%
D16*
%TO.N,GND*%
X50685000Y-55051411D02*
X50738225Y-55318989D01*
X50842629Y-55571043D01*
X50994201Y-55797886D01*
X51187114Y-55990799D01*
X51413957Y-56142371D01*
X51666011Y-56246775D01*
X51933589Y-56300000D01*
X52206411Y-56300000D01*
X52473989Y-56246775D01*
X52726043Y-56142371D01*
X52952886Y-55990799D01*
X53145799Y-55797886D01*
X53297371Y-55571043D01*
X53401775Y-55318989D01*
X53455000Y-55051411D01*
X53455000Y-54904544D01*
X69100000Y-54904544D01*
X69100000Y-55051411D01*
X69153225Y-55318989D01*
X69257629Y-55571043D01*
X69409201Y-55797886D01*
X69602114Y-55990799D01*
X69828957Y-56142371D01*
X70081011Y-56246775D01*
X70348589Y-56300000D01*
X70621411Y-56300000D01*
X70888989Y-56246775D01*
X71141043Y-56142371D01*
X71367886Y-55990799D01*
X71560799Y-55797886D01*
X71712371Y-55571043D01*
X71816775Y-55318989D01*
X71870000Y-55051411D01*
X71870000Y-54904544D01*
X87515000Y-54904544D01*
X87515000Y-55051411D01*
X87568225Y-55318989D01*
X87672629Y-55571043D01*
X87824201Y-55797886D01*
X88017114Y-55990799D01*
X88243957Y-56142371D01*
X88496011Y-56246775D01*
X88763589Y-56300000D01*
X89036411Y-56300000D01*
X89303989Y-56246775D01*
X89556043Y-56142371D01*
X89782886Y-55990799D01*
X89975799Y-55797886D01*
X90127371Y-55571043D01*
X90231775Y-55318989D01*
X90285000Y-55051411D01*
X90285000Y-54904544D01*
X115455000Y-54904544D01*
X115455000Y-55051411D01*
X115508225Y-55318989D01*
X115612629Y-55571043D01*
X115764201Y-55797886D01*
X115957114Y-55990799D01*
X116183957Y-56142371D01*
X116436011Y-56246775D01*
X116703589Y-56300000D01*
X116976411Y-56300000D01*
X117243989Y-56246775D01*
X117496043Y-56142371D01*
X117722886Y-55990799D01*
X117915799Y-55797886D01*
X118067371Y-55571043D01*
X118171775Y-55318989D01*
X118225000Y-55051411D01*
X118225000Y-54904544D01*
X131158877Y-54904544D01*
X131158878Y-88982245D01*
X121328147Y-88982245D01*
X121384463Y-88958918D01*
X121652252Y-88779987D01*
X121879987Y-88552252D01*
X122058918Y-88284463D01*
X122182168Y-87986912D01*
X122245000Y-87671033D01*
X122245000Y-87348967D01*
X122182168Y-87033088D01*
X122058918Y-86735537D01*
X121879987Y-86467748D01*
X121652252Y-86240013D01*
X121384463Y-86061082D01*
X121086912Y-85937832D01*
X120771033Y-85875000D01*
X120448967Y-85875000D01*
X120133088Y-85937832D01*
X119835537Y-86061082D01*
X119567748Y-86240013D01*
X119360000Y-86447761D01*
X119152252Y-86240013D01*
X118884463Y-86061082D01*
X118586912Y-85937832D01*
X118271033Y-85875000D01*
X117948967Y-85875000D01*
X117633088Y-85937832D01*
X117335537Y-86061082D01*
X117067748Y-86240013D01*
X116840013Y-86467748D01*
X116775075Y-86564935D01*
X116745413Y-86554192D01*
X115789605Y-87510000D01*
X116745413Y-88465808D01*
X116775075Y-88455065D01*
X116840013Y-88552252D01*
X117067748Y-88779987D01*
X117335537Y-88958918D01*
X117391853Y-88982245D01*
X116334535Y-88982245D01*
X116470044Y-88909814D01*
X116565808Y-88645413D01*
X115610000Y-87689605D01*
X114654192Y-88645413D01*
X114749956Y-88909814D01*
X114898846Y-88982245D01*
X95078623Y-88982245D01*
X95311104Y-88749764D01*
X95367589Y-88761000D01*
X95640411Y-88761000D01*
X95907989Y-88707775D01*
X96160043Y-88603371D01*
X96386886Y-88451799D01*
X96579799Y-88258886D01*
X96731371Y-88032043D01*
X96835775Y-87779989D01*
X96877028Y-87572595D01*
X113968282Y-87572595D01*
X114012039Y-87891675D01*
X114117205Y-88196088D01*
X114210186Y-88370044D01*
X114474587Y-88465808D01*
X115430395Y-87510000D01*
X114474587Y-86554192D01*
X114210186Y-86649956D01*
X114069296Y-86939571D01*
X113987616Y-87251108D01*
X113968282Y-87572595D01*
X96877028Y-87572595D01*
X96889000Y-87512411D01*
X96889000Y-87239589D01*
X96835775Y-86972011D01*
X96731371Y-86719957D01*
X96579799Y-86493114D01*
X96461272Y-86374587D01*
X114654192Y-86374587D01*
X115610000Y-87330395D01*
X116565808Y-86374587D01*
X116470044Y-86110186D01*
X116180429Y-85969296D01*
X115868892Y-85887616D01*
X115547405Y-85868282D01*
X115228325Y-85912039D01*
X114923912Y-86017205D01*
X114749956Y-86110186D01*
X114654192Y-86374587D01*
X96461272Y-86374587D01*
X96386886Y-86300201D01*
X96160043Y-86148629D01*
X95907989Y-86044225D01*
X95640411Y-85991000D01*
X95367589Y-85991000D01*
X95100011Y-86044225D01*
X94847957Y-86148629D01*
X94621114Y-86300201D01*
X94488000Y-86433315D01*
X94354886Y-86300201D01*
X94128043Y-86148629D01*
X93875989Y-86044225D01*
X93608411Y-85991000D01*
X93335589Y-85991000D01*
X93279103Y-86002236D01*
X93142250Y-85865382D01*
X92791058Y-85163000D01*
X117749972Y-85163000D01*
X117786203Y-85192734D01*
X117966007Y-85288841D01*
X118161105Y-85348024D01*
X118364000Y-85368007D01*
X118566894Y-85348024D01*
X118761992Y-85288841D01*
X118941797Y-85192734D01*
X119099396Y-85063396D01*
X119228734Y-84905797D01*
X119324841Y-84725993D01*
X119384024Y-84530895D01*
X119399000Y-84378838D01*
X119399000Y-81638772D01*
X119431008Y-81533255D01*
X119448072Y-81360001D01*
X119448072Y-80709999D01*
X119431008Y-80536745D01*
X119380472Y-80370149D01*
X119298405Y-80216613D01*
X119187962Y-80082038D01*
X119100184Y-80010000D01*
X119187962Y-79937962D01*
X119298405Y-79803387D01*
X119380472Y-79649851D01*
X119407718Y-79560032D01*
X120875000Y-79560032D01*
X120875000Y-80459969D01*
X120904445Y-80758930D01*
X121020809Y-81142529D01*
X121209773Y-81496056D01*
X121464077Y-81805924D01*
X121773945Y-82060227D01*
X122127472Y-82249191D01*
X122511071Y-82365555D01*
X122910000Y-82404846D01*
X123308930Y-82365555D01*
X123692529Y-82249191D01*
X124046056Y-82060227D01*
X124355924Y-81805924D01*
X124610227Y-81496056D01*
X124799191Y-81142529D01*
X124915555Y-80758929D01*
X124945000Y-80459968D01*
X124945000Y-79560031D01*
X124915555Y-79261070D01*
X124799191Y-78877471D01*
X124610227Y-78523944D01*
X124355924Y-78214076D01*
X124046056Y-77959773D01*
X123692528Y-77770809D01*
X123308929Y-77654445D01*
X122910000Y-77615154D01*
X122511070Y-77654445D01*
X122127471Y-77770809D01*
X121773944Y-77959773D01*
X121464076Y-78214076D01*
X121209773Y-78523944D01*
X121020809Y-78877472D01*
X120904445Y-79261071D01*
X120875000Y-79560032D01*
X119407718Y-79560032D01*
X119431008Y-79483255D01*
X119448072Y-79310001D01*
X119448072Y-78659999D01*
X119431008Y-78486745D01*
X119380472Y-78320149D01*
X119298405Y-78166613D01*
X119187962Y-78032038D01*
X119053387Y-77921595D01*
X118945000Y-77863661D01*
X118945000Y-76291867D01*
X119967432Y-75269437D01*
X119999291Y-75243291D01*
X120103636Y-75116146D01*
X120181172Y-74971087D01*
X120228918Y-74813689D01*
X120241000Y-74691019D01*
X120241000Y-74691018D01*
X120245040Y-74650000D01*
X120241000Y-74608982D01*
X120241000Y-72514613D01*
X120299386Y-72483405D01*
X120433962Y-72372962D01*
X120544405Y-72238386D01*
X120626472Y-72084850D01*
X120677008Y-71918254D01*
X120694072Y-71745000D01*
X120694072Y-70495000D01*
X120677008Y-70321746D01*
X120626472Y-70155150D01*
X120544405Y-70001614D01*
X120433962Y-69867038D01*
X120299386Y-69756595D01*
X120145850Y-69674528D01*
X119979254Y-69623992D01*
X119806000Y-69606928D01*
X119006000Y-69606928D01*
X118832746Y-69623992D01*
X118666150Y-69674528D01*
X118512614Y-69756595D01*
X118378038Y-69867038D01*
X118267595Y-70001614D01*
X118185528Y-70155150D01*
X118134992Y-70321746D01*
X118117928Y-70495000D01*
X118117928Y-71745000D01*
X118134992Y-71918254D01*
X118185528Y-72084850D01*
X118267595Y-72238386D01*
X118378038Y-72372962D01*
X118512614Y-72483405D01*
X118571000Y-72514613D01*
X118571001Y-74304131D01*
X117548578Y-75326554D01*
X117516709Y-75352709D01*
X117457241Y-75425172D01*
X117412364Y-75479855D01*
X117334828Y-75624914D01*
X117287082Y-75782312D01*
X117270960Y-75946000D01*
X117275000Y-75987019D01*
X117275001Y-77863660D01*
X117166613Y-77921595D01*
X117032038Y-78032038D01*
X116921595Y-78166613D01*
X116839528Y-78320149D01*
X116788992Y-78486745D01*
X116771928Y-78659999D01*
X116771928Y-79310001D01*
X116788992Y-79483255D01*
X116839528Y-79649851D01*
X116921595Y-79803387D01*
X117032038Y-79937962D01*
X117119816Y-80010000D01*
X117032038Y-80082038D01*
X116921595Y-80216613D01*
X116839528Y-80370149D01*
X116788992Y-80536745D01*
X116771928Y-80709999D01*
X116771928Y-81360001D01*
X116788992Y-81533255D01*
X116839528Y-81699851D01*
X116921595Y-81853387D01*
X117032038Y-81987962D01*
X117166613Y-82098405D01*
X117320149Y-82180472D01*
X117329001Y-82183157D01*
X117329000Y-83493000D01*
X87395000Y-83493000D01*
X87395000Y-82023220D01*
X87437962Y-81987962D01*
X87548405Y-81853387D01*
X87630472Y-81699851D01*
X87681008Y-81533255D01*
X87698072Y-81360001D01*
X87698072Y-80709999D01*
X87681008Y-80536745D01*
X87630472Y-80370149D01*
X87548405Y-80216613D01*
X87437962Y-80082038D01*
X87350184Y-80010000D01*
X87437962Y-79937962D01*
X87548405Y-79803387D01*
X87630472Y-79649851D01*
X87657718Y-79560032D01*
X89125000Y-79560032D01*
X89125000Y-80459969D01*
X89154445Y-80758930D01*
X89270809Y-81142529D01*
X89459773Y-81496056D01*
X89714077Y-81805924D01*
X90023945Y-82060227D01*
X90377472Y-82249191D01*
X90761071Y-82365555D01*
X91160000Y-82404846D01*
X91558930Y-82365555D01*
X91942529Y-82249191D01*
X92296056Y-82060227D01*
X92605924Y-81805924D01*
X92860227Y-81496056D01*
X93049191Y-81142529D01*
X93165555Y-80758929D01*
X93195000Y-80459968D01*
X93195000Y-79560032D01*
X111275000Y-79560032D01*
X111275000Y-80459969D01*
X111304445Y-80758930D01*
X111420809Y-81142529D01*
X111609773Y-81496056D01*
X111864077Y-81805924D01*
X112173945Y-82060227D01*
X112527472Y-82249191D01*
X112911071Y-82365555D01*
X113310000Y-82404846D01*
X113708930Y-82365555D01*
X114092529Y-82249191D01*
X114446056Y-82060227D01*
X114755924Y-81805924D01*
X115010227Y-81496056D01*
X115199191Y-81142529D01*
X115315555Y-80758929D01*
X115345000Y-80459968D01*
X115345000Y-79560031D01*
X115315555Y-79261070D01*
X115199191Y-78877471D01*
X115010227Y-78523944D01*
X114755924Y-78214076D01*
X114446056Y-77959773D01*
X114092528Y-77770809D01*
X113708929Y-77654445D01*
X113310000Y-77615154D01*
X112911070Y-77654445D01*
X112527471Y-77770809D01*
X112173944Y-77959773D01*
X111864076Y-78214076D01*
X111609773Y-78523944D01*
X111420809Y-78877472D01*
X111304445Y-79261071D01*
X111275000Y-79560032D01*
X93195000Y-79560032D01*
X93195000Y-79560031D01*
X93165555Y-79261070D01*
X93049191Y-78877471D01*
X92860227Y-78523944D01*
X92605924Y-78214076D01*
X92296056Y-77959773D01*
X91942528Y-77770809D01*
X91558929Y-77654445D01*
X91160000Y-77615154D01*
X90761070Y-77654445D01*
X90377471Y-77770809D01*
X90023944Y-77959773D01*
X89714076Y-78214076D01*
X89459773Y-78523944D01*
X89270809Y-78877472D01*
X89154445Y-79261071D01*
X89125000Y-79560032D01*
X87657718Y-79560032D01*
X87681008Y-79483255D01*
X87698072Y-79310001D01*
X87698072Y-78659999D01*
X87681008Y-78486745D01*
X87630472Y-78320149D01*
X87548405Y-78166613D01*
X87437962Y-78032038D01*
X87303387Y-77921595D01*
X87195000Y-77863661D01*
X87195000Y-77053867D01*
X88471426Y-75777441D01*
X88503291Y-75751291D01*
X88607636Y-75624146D01*
X88685172Y-75479087D01*
X88732918Y-75321689D01*
X88745000Y-75199019D01*
X88749040Y-75158001D01*
X88745000Y-75116982D01*
X88745000Y-73022613D01*
X88803386Y-72991405D01*
X88937962Y-72880962D01*
X89048405Y-72746386D01*
X89130472Y-72592850D01*
X89181008Y-72426254D01*
X89198072Y-72253000D01*
X89198072Y-71995000D01*
X115017928Y-71995000D01*
X115030188Y-72119482D01*
X115066498Y-72239180D01*
X115125463Y-72349494D01*
X115204815Y-72446185D01*
X115301506Y-72525537D01*
X115411820Y-72584502D01*
X115531518Y-72620812D01*
X115656000Y-72633072D01*
X116020250Y-72630000D01*
X116179000Y-72471250D01*
X116179000Y-71247000D01*
X116433000Y-71247000D01*
X116433000Y-72471250D01*
X116591750Y-72630000D01*
X116956000Y-72633072D01*
X117080482Y-72620812D01*
X117200180Y-72584502D01*
X117310494Y-72525537D01*
X117407185Y-72446185D01*
X117486537Y-72349494D01*
X117545502Y-72239180D01*
X117581812Y-72119482D01*
X117594072Y-71995000D01*
X117591000Y-71405750D01*
X117432250Y-71247000D01*
X116433000Y-71247000D01*
X116179000Y-71247000D01*
X115179750Y-71247000D01*
X115021000Y-71405750D01*
X115017928Y-71995000D01*
X89198072Y-71995000D01*
X89198072Y-71003000D01*
X89181008Y-70829746D01*
X89131033Y-70665000D01*
X97952205Y-70665000D01*
X97984201Y-70712886D01*
X98177114Y-70905799D01*
X98403957Y-71057371D01*
X98656011Y-71161775D01*
X98923589Y-71215000D01*
X99196411Y-71215000D01*
X99463989Y-71161775D01*
X99716043Y-71057371D01*
X99942886Y-70905799D01*
X100135799Y-70712886D01*
X100287371Y-70486043D01*
X100387214Y-70245000D01*
X115017928Y-70245000D01*
X115021000Y-70834250D01*
X115179750Y-70993000D01*
X116179000Y-70993000D01*
X116179000Y-69768750D01*
X116433000Y-69768750D01*
X116433000Y-70993000D01*
X117432250Y-70993000D01*
X117591000Y-70834250D01*
X117594072Y-70245000D01*
X117581812Y-70120518D01*
X117545502Y-70000820D01*
X117486537Y-69890506D01*
X117407185Y-69793815D01*
X117310494Y-69714463D01*
X117200180Y-69655498D01*
X117080482Y-69619188D01*
X116956000Y-69606928D01*
X116591750Y-69610000D01*
X116433000Y-69768750D01*
X116179000Y-69768750D01*
X116020250Y-69610000D01*
X115656000Y-69606928D01*
X115531518Y-69619188D01*
X115411820Y-69655498D01*
X115301506Y-69714463D01*
X115204815Y-69793815D01*
X115125463Y-69890506D01*
X115066498Y-70000820D01*
X115030188Y-70120518D01*
X115017928Y-70245000D01*
X100387214Y-70245000D01*
X100391775Y-70233989D01*
X100445000Y-69966411D01*
X100445000Y-69693589D01*
X100391775Y-69426011D01*
X100287371Y-69173957D01*
X100135799Y-68947114D01*
X99942886Y-68754201D01*
X99716043Y-68602629D01*
X99463989Y-68498225D01*
X99196411Y-68445000D01*
X98923589Y-68445000D01*
X98656011Y-68498225D01*
X98403957Y-68602629D01*
X98177114Y-68754201D01*
X97984201Y-68947114D01*
X97952205Y-68995000D01*
X87663340Y-68995000D01*
X87622321Y-68990960D01*
X87581303Y-68995000D01*
X87458633Y-69007082D01*
X87301235Y-69054828D01*
X87156176Y-69132364D01*
X87029031Y-69236709D01*
X87002881Y-69268574D01*
X85937534Y-70333921D01*
X85911185Y-70301815D01*
X85814494Y-70222463D01*
X85704180Y-70163498D01*
X85584482Y-70127188D01*
X85460000Y-70114928D01*
X85095750Y-70118000D01*
X84937000Y-70276750D01*
X84937000Y-71501000D01*
X84957000Y-71501000D01*
X84957000Y-71755000D01*
X84937000Y-71755000D01*
X84937000Y-71775000D01*
X84683000Y-71775000D01*
X84683000Y-71755000D01*
X83683750Y-71755000D01*
X83525000Y-71913750D01*
X83522898Y-72317000D01*
X75021868Y-72317000D01*
X74514945Y-71810078D01*
X74488790Y-71778208D01*
X74361645Y-71673863D01*
X74216586Y-71596327D01*
X74059188Y-71548581D01*
X73936518Y-71536499D01*
X73936517Y-71536499D01*
X73895499Y-71532459D01*
X73854481Y-71536499D01*
X69401508Y-71536499D01*
X69360500Y-71532460D01*
X69319492Y-71536499D01*
X69319482Y-71536499D01*
X69196812Y-71548581D01*
X69039414Y-71596327D01*
X68894355Y-71673863D01*
X68767210Y-71778208D01*
X68741060Y-71810072D01*
X63184897Y-77366236D01*
X63128411Y-77355000D01*
X62855589Y-77355000D01*
X62588011Y-77408225D01*
X62335957Y-77512629D01*
X62109114Y-77664201D01*
X61916201Y-77857114D01*
X61764629Y-78083957D01*
X61660225Y-78336011D01*
X61607000Y-78603589D01*
X61607000Y-78876411D01*
X61660225Y-79143989D01*
X61764629Y-79396043D01*
X61916201Y-79622886D01*
X62109114Y-79815799D01*
X62335957Y-79967371D01*
X62588011Y-80071775D01*
X62855589Y-80125000D01*
X63128411Y-80125000D01*
X63395989Y-80071775D01*
X63648043Y-79967371D01*
X63874886Y-79815799D01*
X64067799Y-79622886D01*
X64219371Y-79396043D01*
X64323775Y-79143989D01*
X64377000Y-78876411D01*
X64377000Y-78603589D01*
X64365764Y-78547103D01*
X69706369Y-73206499D01*
X70847286Y-73206499D01*
X70842725Y-73217511D01*
X70789500Y-73485089D01*
X70789500Y-73757911D01*
X70842725Y-74025489D01*
X70947129Y-74277543D01*
X71098701Y-74504386D01*
X71291614Y-74697299D01*
X71339500Y-74729296D01*
X71339501Y-86991631D01*
X70296897Y-88034236D01*
X70240411Y-88023000D01*
X69967589Y-88023000D01*
X69700011Y-88076225D01*
X69447957Y-88180629D01*
X69221114Y-88332201D01*
X69028201Y-88525114D01*
X68876629Y-88751957D01*
X68772225Y-89004011D01*
X68719000Y-89271589D01*
X68719000Y-89544411D01*
X68772225Y-89811989D01*
X68876629Y-90064043D01*
X69028201Y-90290886D01*
X69221114Y-90483799D01*
X69402504Y-90605000D01*
X66385869Y-90605000D01*
X59547446Y-83766579D01*
X59521291Y-83734709D01*
X59394146Y-83630364D01*
X59249087Y-83552828D01*
X59091689Y-83505082D01*
X58969019Y-83493000D01*
X58969018Y-83493000D01*
X58928000Y-83488960D01*
X58886982Y-83493000D01*
X55899000Y-83493000D01*
X55899000Y-81638772D01*
X55931008Y-81533255D01*
X55948072Y-81360001D01*
X55948072Y-80709999D01*
X55931008Y-80536745D01*
X55880472Y-80370149D01*
X55798405Y-80216613D01*
X55687962Y-80082038D01*
X55600184Y-80010000D01*
X55687962Y-79937962D01*
X55798405Y-79803387D01*
X55880472Y-79649851D01*
X55907718Y-79560032D01*
X57375000Y-79560032D01*
X57375000Y-80459969D01*
X57404445Y-80758930D01*
X57520809Y-81142529D01*
X57709773Y-81496056D01*
X57964077Y-81805924D01*
X58273945Y-82060227D01*
X58627472Y-82249191D01*
X59011071Y-82365555D01*
X59410000Y-82404846D01*
X59808930Y-82365555D01*
X60192529Y-82249191D01*
X60546056Y-82060227D01*
X60855924Y-81805924D01*
X61110227Y-81496056D01*
X61299191Y-81142529D01*
X61415555Y-80758929D01*
X61445000Y-80459968D01*
X61445000Y-79560031D01*
X61415555Y-79261070D01*
X61299191Y-78877471D01*
X61110227Y-78523944D01*
X60855924Y-78214076D01*
X60546056Y-77959773D01*
X60192528Y-77770809D01*
X59808929Y-77654445D01*
X59410000Y-77615154D01*
X59011070Y-77654445D01*
X58627471Y-77770809D01*
X58273944Y-77959773D01*
X57964076Y-78214076D01*
X57709773Y-78523944D01*
X57520809Y-78877472D01*
X57404445Y-79261071D01*
X57375000Y-79560032D01*
X55907718Y-79560032D01*
X55931008Y-79483255D01*
X55948072Y-79310001D01*
X55948072Y-78659999D01*
X55931008Y-78486745D01*
X55880472Y-78320149D01*
X55798405Y-78166613D01*
X55687962Y-78032038D01*
X55553387Y-77921595D01*
X55445000Y-77863661D01*
X55445000Y-76291867D01*
X56467432Y-75269437D01*
X56499291Y-75243291D01*
X56603636Y-75116146D01*
X56681172Y-74971087D01*
X56728918Y-74813689D01*
X56741000Y-74691019D01*
X56741000Y-74691018D01*
X56745040Y-74650000D01*
X56741000Y-74608982D01*
X56741000Y-73022613D01*
X56799386Y-72991405D01*
X56933962Y-72880962D01*
X57044405Y-72746386D01*
X57126472Y-72592850D01*
X57177008Y-72426254D01*
X57194072Y-72253000D01*
X57194072Y-71003000D01*
X57177008Y-70829746D01*
X57153728Y-70753000D01*
X83521928Y-70753000D01*
X83525000Y-71342250D01*
X83683750Y-71501000D01*
X84683000Y-71501000D01*
X84683000Y-70276750D01*
X84524250Y-70118000D01*
X84160000Y-70114928D01*
X84035518Y-70127188D01*
X83915820Y-70163498D01*
X83805506Y-70222463D01*
X83708815Y-70301815D01*
X83629463Y-70398506D01*
X83570498Y-70508820D01*
X83534188Y-70628518D01*
X83521928Y-70753000D01*
X57153728Y-70753000D01*
X57126472Y-70663150D01*
X57044405Y-70509614D01*
X56933962Y-70375038D01*
X56799386Y-70264595D01*
X56645850Y-70182528D01*
X56479254Y-70131992D01*
X56306000Y-70114928D01*
X55506000Y-70114928D01*
X55332746Y-70131992D01*
X55166150Y-70182528D01*
X55012614Y-70264595D01*
X54878038Y-70375038D01*
X54767595Y-70509614D01*
X54685528Y-70663150D01*
X54634992Y-70829746D01*
X54617928Y-71003000D01*
X54617928Y-72253000D01*
X54634992Y-72426254D01*
X54685528Y-72592850D01*
X54767595Y-72746386D01*
X54878038Y-72880962D01*
X55012614Y-72991405D01*
X55071000Y-73022613D01*
X55071001Y-74304131D01*
X54048578Y-75326554D01*
X54016709Y-75352709D01*
X53957241Y-75425172D01*
X53912364Y-75479855D01*
X53834828Y-75624914D01*
X53787082Y-75782312D01*
X53770960Y-75946000D01*
X53775000Y-75987019D01*
X53775001Y-77863660D01*
X53666613Y-77921595D01*
X53532038Y-78032038D01*
X53421595Y-78166613D01*
X53339528Y-78320149D01*
X53288992Y-78486745D01*
X53271928Y-78659999D01*
X53271928Y-79310001D01*
X53288992Y-79483255D01*
X53339528Y-79649851D01*
X53421595Y-79803387D01*
X53532038Y-79937962D01*
X53619816Y-80010000D01*
X53532038Y-80082038D01*
X53421595Y-80216613D01*
X53339528Y-80370149D01*
X53288992Y-80536745D01*
X53271928Y-80709999D01*
X53271928Y-81360001D01*
X53288992Y-81533255D01*
X53339528Y-81699851D01*
X53421595Y-81853387D01*
X53532038Y-81987962D01*
X53666613Y-82098405D01*
X53820149Y-82180472D01*
X53829001Y-82183157D01*
X53829000Y-83493000D01*
X45826027Y-83493000D01*
X45789797Y-83463267D01*
X45739000Y-83436116D01*
X45739000Y-79560032D01*
X47775000Y-79560032D01*
X47775000Y-80459969D01*
X47804445Y-80758930D01*
X47920809Y-81142529D01*
X48109773Y-81496056D01*
X48364077Y-81805924D01*
X48673945Y-82060227D01*
X49027472Y-82249191D01*
X49411071Y-82365555D01*
X49810000Y-82404846D01*
X50208930Y-82365555D01*
X50592529Y-82249191D01*
X50946056Y-82060227D01*
X51255924Y-81805924D01*
X51510227Y-81496056D01*
X51699191Y-81142529D01*
X51815555Y-80758929D01*
X51845000Y-80459968D01*
X51845000Y-79560031D01*
X51815555Y-79261070D01*
X51699191Y-78877471D01*
X51510227Y-78523944D01*
X51255924Y-78214076D01*
X50946056Y-77959773D01*
X50592528Y-77770809D01*
X50208929Y-77654445D01*
X49810000Y-77615154D01*
X49411070Y-77654445D01*
X49027471Y-77770809D01*
X48673944Y-77959773D01*
X48364076Y-78214076D01*
X48109773Y-78523944D01*
X47920809Y-78877472D01*
X47804445Y-79261071D01*
X47775000Y-79560032D01*
X45739000Y-79560032D01*
X45739000Y-72503000D01*
X51517928Y-72503000D01*
X51530188Y-72627482D01*
X51566498Y-72747180D01*
X51625463Y-72857494D01*
X51704815Y-72954185D01*
X51801506Y-73033537D01*
X51911820Y-73092502D01*
X52031518Y-73128812D01*
X52156000Y-73141072D01*
X52520250Y-73138000D01*
X52679000Y-72979250D01*
X52679000Y-71755000D01*
X52933000Y-71755000D01*
X52933000Y-72979250D01*
X53091750Y-73138000D01*
X53456000Y-73141072D01*
X53580482Y-73128812D01*
X53700180Y-73092502D01*
X53810494Y-73033537D01*
X53907185Y-72954185D01*
X53986537Y-72857494D01*
X54045502Y-72747180D01*
X54081812Y-72627482D01*
X54094072Y-72503000D01*
X54091000Y-71913750D01*
X53932250Y-71755000D01*
X52933000Y-71755000D01*
X52679000Y-71755000D01*
X51679750Y-71755000D01*
X51521000Y-71913750D01*
X51517928Y-72503000D01*
X45739000Y-72503000D01*
X45739000Y-70753000D01*
X51517928Y-70753000D01*
X51521000Y-71342250D01*
X51679750Y-71501000D01*
X52679000Y-71501000D01*
X52679000Y-70276750D01*
X52933000Y-70276750D01*
X52933000Y-71501000D01*
X53932250Y-71501000D01*
X54091000Y-71342250D01*
X54094072Y-70753000D01*
X54081812Y-70628518D01*
X54045502Y-70508820D01*
X53986537Y-70398506D01*
X53907185Y-70301815D01*
X53810494Y-70222463D01*
X53700180Y-70163498D01*
X53580482Y-70127188D01*
X53456000Y-70114928D01*
X53091750Y-70118000D01*
X52933000Y-70276750D01*
X52679000Y-70276750D01*
X52520250Y-70118000D01*
X52156000Y-70114928D01*
X52031518Y-70127188D01*
X51911820Y-70163498D01*
X51801506Y-70222463D01*
X51704815Y-70301815D01*
X51625463Y-70398506D01*
X51566498Y-70508820D01*
X51530188Y-70628518D01*
X51517928Y-70753000D01*
X45739000Y-70753000D01*
X45739000Y-69860822D01*
X45868043Y-69807371D01*
X46094886Y-69655799D01*
X46135685Y-69615000D01*
X61560315Y-69615000D01*
X61601114Y-69655799D01*
X61827957Y-69807371D01*
X62080011Y-69911775D01*
X62347589Y-69965000D01*
X62620411Y-69965000D01*
X62887989Y-69911775D01*
X63140043Y-69807371D01*
X63366886Y-69655799D01*
X63407685Y-69615000D01*
X80356315Y-69615000D01*
X80397114Y-69655799D01*
X80623957Y-69807371D01*
X80876011Y-69911775D01*
X81143589Y-69965000D01*
X81416411Y-69965000D01*
X81683989Y-69911775D01*
X81936043Y-69807371D01*
X82162886Y-69655799D01*
X82355799Y-69462886D01*
X82507371Y-69236043D01*
X82611775Y-68983989D01*
X82665000Y-68716411D01*
X82665000Y-68443589D01*
X82611775Y-68176011D01*
X82507371Y-67923957D01*
X82355799Y-67697114D01*
X82162886Y-67504201D01*
X81936043Y-67352629D01*
X81683989Y-67248225D01*
X81416411Y-67195000D01*
X81143589Y-67195000D01*
X80876011Y-67248225D01*
X80623957Y-67352629D01*
X80397114Y-67504201D01*
X80356315Y-67545000D01*
X63407685Y-67545000D01*
X63366886Y-67504201D01*
X63140043Y-67352629D01*
X62887989Y-67248225D01*
X62620411Y-67195000D01*
X62347589Y-67195000D01*
X62080011Y-67248225D01*
X61827957Y-67352629D01*
X61601114Y-67504201D01*
X61560315Y-67545000D01*
X46135685Y-67545000D01*
X46094886Y-67504201D01*
X45868043Y-67352629D01*
X45615989Y-67248225D01*
X45348411Y-67195000D01*
X45075589Y-67195000D01*
X44808011Y-67248225D01*
X44555957Y-67352629D01*
X44329114Y-67504201D01*
X44136201Y-67697114D01*
X43984629Y-67923957D01*
X43880225Y-68176011D01*
X43827000Y-68443589D01*
X43827000Y-68533151D01*
X43743160Y-68690007D01*
X43683977Y-68885105D01*
X43663994Y-69088000D01*
X43669001Y-69138838D01*
X43669000Y-81229162D01*
X43669000Y-81229163D01*
X43669001Y-84785153D01*
X43669000Y-84785163D01*
X43669000Y-84785172D01*
X43663994Y-84836000D01*
X43669000Y-84886828D01*
X43669001Y-100533162D01*
X43663994Y-100584000D01*
X43683977Y-100786895D01*
X43743160Y-100981993D01*
X43839266Y-101161797D01*
X43872266Y-101202007D01*
X43968605Y-101319396D01*
X44008092Y-101351802D01*
X46476197Y-103819908D01*
X46508604Y-103859396D01*
X46548092Y-103891803D01*
X46666202Y-103988734D01*
X46762309Y-104040104D01*
X46846007Y-104084841D01*
X47041105Y-104144024D01*
X47193162Y-104159000D01*
X47193171Y-104159000D01*
X47243999Y-104164006D01*
X47294827Y-104159000D01*
X59385172Y-104159000D01*
X59436000Y-104164006D01*
X59486828Y-104159000D01*
X59486838Y-104159000D01*
X59638895Y-104144024D01*
X59833993Y-104084841D01*
X60013797Y-103988734D01*
X60171396Y-103859396D01*
X60203807Y-103819903D01*
X61038711Y-102985000D01*
X61096411Y-102985000D01*
X61363989Y-102931775D01*
X61616043Y-102827371D01*
X61842886Y-102675799D01*
X62035799Y-102482886D01*
X62187371Y-102256043D01*
X62291775Y-102003989D01*
X62345000Y-101736411D01*
X62345000Y-101463589D01*
X62291775Y-101196011D01*
X62187371Y-100943957D01*
X62035799Y-100717114D01*
X61842886Y-100524201D01*
X61616043Y-100372629D01*
X61513128Y-100330000D01*
X71922718Y-100330000D01*
X71951776Y-100625032D01*
X72037834Y-100908725D01*
X72177583Y-101170179D01*
X72365655Y-101399345D01*
X72594821Y-101587417D01*
X72856275Y-101727166D01*
X73139968Y-101813224D01*
X73361064Y-101835000D01*
X73958936Y-101835000D01*
X74180032Y-101813224D01*
X74463725Y-101727166D01*
X74725179Y-101587417D01*
X74954345Y-101399345D01*
X75142417Y-101170179D01*
X75282166Y-100908725D01*
X75368224Y-100625032D01*
X75397282Y-100330000D01*
X75368224Y-100034968D01*
X75282166Y-99751275D01*
X75142417Y-99489821D01*
X74954345Y-99260655D01*
X74888886Y-99206934D01*
X74998387Y-99148405D01*
X75132962Y-99037962D01*
X75243405Y-98903387D01*
X75325472Y-98749851D01*
X75376008Y-98583255D01*
X75393072Y-98410001D01*
X75393072Y-97169999D01*
X75376008Y-96996745D01*
X75325472Y-96830149D01*
X75243405Y-96676613D01*
X75132962Y-96542038D01*
X74998387Y-96431595D01*
X74844851Y-96349528D01*
X74678255Y-96298992D01*
X74505001Y-96281928D01*
X72814999Y-96281928D01*
X72641745Y-96298992D01*
X72475149Y-96349528D01*
X72321613Y-96431595D01*
X72187038Y-96542038D01*
X72076595Y-96676613D01*
X71994528Y-96830149D01*
X71943992Y-96996745D01*
X71926928Y-97169999D01*
X71926928Y-98410001D01*
X71943992Y-98583255D01*
X71994528Y-98749851D01*
X72076595Y-98903387D01*
X72187038Y-99037962D01*
X72321613Y-99148405D01*
X72431114Y-99206934D01*
X72365655Y-99260655D01*
X72177583Y-99489821D01*
X72037834Y-99751275D01*
X71951776Y-100034968D01*
X71922718Y-100330000D01*
X61513128Y-100330000D01*
X61363989Y-100268225D01*
X61096411Y-100215000D01*
X60823589Y-100215000D01*
X60556011Y-100268225D01*
X60303957Y-100372629D01*
X60077114Y-100524201D01*
X59884201Y-100717114D01*
X59732629Y-100943957D01*
X59628225Y-101196011D01*
X59575000Y-101463589D01*
X59575000Y-101521289D01*
X59007290Y-102089000D01*
X47672711Y-102089000D01*
X45739000Y-100155290D01*
X45739000Y-88645413D01*
X51154192Y-88645413D01*
X51249956Y-88909814D01*
X51539571Y-89050704D01*
X51851108Y-89132384D01*
X52172595Y-89151718D01*
X52491675Y-89107961D01*
X52796088Y-89002795D01*
X52970044Y-88909814D01*
X53065808Y-88645413D01*
X52110000Y-87689605D01*
X51154192Y-88645413D01*
X45739000Y-88645413D01*
X45739000Y-87572595D01*
X50468282Y-87572595D01*
X50512039Y-87891675D01*
X50617205Y-88196088D01*
X50710186Y-88370044D01*
X50974587Y-88465808D01*
X51930395Y-87510000D01*
X50974587Y-86554192D01*
X50710186Y-86649956D01*
X50569296Y-86939571D01*
X50487616Y-87251108D01*
X50468282Y-87572595D01*
X45739000Y-87572595D01*
X45739000Y-86374587D01*
X51154192Y-86374587D01*
X52110000Y-87330395D01*
X53065808Y-86374587D01*
X52970044Y-86110186D01*
X52680429Y-85969296D01*
X52368892Y-85887616D01*
X52047405Y-85868282D01*
X51728325Y-85912039D01*
X51423912Y-86017205D01*
X51249956Y-86110186D01*
X51154192Y-86374587D01*
X45739000Y-86374587D01*
X45739000Y-85264710D01*
X45840710Y-85163000D01*
X54249972Y-85163000D01*
X54286203Y-85192734D01*
X54466007Y-85288841D01*
X54661105Y-85348024D01*
X54864000Y-85368007D01*
X55066894Y-85348024D01*
X55261992Y-85288841D01*
X55441797Y-85192734D01*
X55478028Y-85163000D01*
X58582133Y-85163000D01*
X65040131Y-91621000D01*
X59821869Y-91621000D01*
X57333452Y-89132584D01*
X57586912Y-89082168D01*
X57884463Y-88958918D01*
X58152252Y-88779987D01*
X58379987Y-88552252D01*
X58558918Y-88284463D01*
X58682168Y-87986912D01*
X58745000Y-87671033D01*
X58745000Y-87348967D01*
X58682168Y-87033088D01*
X58558918Y-86735537D01*
X58379987Y-86467748D01*
X58152252Y-86240013D01*
X57884463Y-86061082D01*
X57586912Y-85937832D01*
X57271033Y-85875000D01*
X56948967Y-85875000D01*
X56633088Y-85937832D01*
X56335537Y-86061082D01*
X56067748Y-86240013D01*
X55860000Y-86447761D01*
X55652252Y-86240013D01*
X55384463Y-86061082D01*
X55086912Y-85937832D01*
X54771033Y-85875000D01*
X54448967Y-85875000D01*
X54133088Y-85937832D01*
X53835537Y-86061082D01*
X53567748Y-86240013D01*
X53340013Y-86467748D01*
X53275075Y-86564935D01*
X53245413Y-86554192D01*
X52289605Y-87510000D01*
X53245413Y-88465808D01*
X53275075Y-88455065D01*
X53340013Y-88552252D01*
X53567748Y-88779987D01*
X53835537Y-88958918D01*
X54133088Y-89082168D01*
X54448967Y-89145000D01*
X54771033Y-89145000D01*
X54948777Y-89109645D01*
X58856563Y-93017432D01*
X58882709Y-93049291D01*
X59009854Y-93153636D01*
X59154913Y-93231172D01*
X59312311Y-93278918D01*
X59434981Y-93291000D01*
X59434982Y-93291000D01*
X59476000Y-93295040D01*
X59517018Y-93291000D01*
X74634982Y-93291000D01*
X74676000Y-93295040D01*
X74717018Y-93291000D01*
X74717019Y-93291000D01*
X74839689Y-93278918D01*
X74997087Y-93231172D01*
X75142146Y-93153636D01*
X75269291Y-93049291D01*
X75295446Y-93017421D01*
X78513000Y-89799868D01*
X78513001Y-106453000D01*
X41080980Y-106453000D01*
X41080980Y-61778589D01*
X50685000Y-61778589D01*
X50685000Y-62051411D01*
X50738225Y-62318989D01*
X50842629Y-62571043D01*
X50994201Y-62797886D01*
X51187114Y-62990799D01*
X51413957Y-63142371D01*
X51666011Y-63246775D01*
X51933589Y-63300000D01*
X52206411Y-63300000D01*
X52473989Y-63246775D01*
X52726043Y-63142371D01*
X52952886Y-62990799D01*
X53145799Y-62797886D01*
X53297371Y-62571043D01*
X53401775Y-62318989D01*
X53455000Y-62051411D01*
X53455000Y-61778589D01*
X69100000Y-61778589D01*
X69100000Y-62051411D01*
X69153225Y-62318989D01*
X69257629Y-62571043D01*
X69409201Y-62797886D01*
X69602114Y-62990799D01*
X69828957Y-63142371D01*
X70081011Y-63246775D01*
X70348589Y-63300000D01*
X70621411Y-63300000D01*
X70888989Y-63246775D01*
X71141043Y-63142371D01*
X71367886Y-62990799D01*
X71560799Y-62797886D01*
X71712371Y-62571043D01*
X71816775Y-62318989D01*
X71870000Y-62051411D01*
X71870000Y-61778589D01*
X87515000Y-61778589D01*
X87515000Y-62051411D01*
X87568225Y-62318989D01*
X87672629Y-62571043D01*
X87824201Y-62797886D01*
X88017114Y-62990799D01*
X88243957Y-63142371D01*
X88496011Y-63246775D01*
X88763589Y-63300000D01*
X89036411Y-63300000D01*
X89303989Y-63246775D01*
X89556043Y-63142371D01*
X89782886Y-62990799D01*
X89975799Y-62797886D01*
X90127371Y-62571043D01*
X90231775Y-62318989D01*
X90285000Y-62051411D01*
X90285000Y-61778589D01*
X115455000Y-61778589D01*
X115455000Y-62051411D01*
X115508225Y-62318989D01*
X115612629Y-62571043D01*
X115764201Y-62797886D01*
X115957114Y-62990799D01*
X116183957Y-63142371D01*
X116436011Y-63246775D01*
X116703589Y-63300000D01*
X116976411Y-63300000D01*
X117243989Y-63246775D01*
X117496043Y-63142371D01*
X117722886Y-62990799D01*
X117915799Y-62797886D01*
X118067371Y-62571043D01*
X118171775Y-62318989D01*
X118225000Y-62051411D01*
X118225000Y-61778589D01*
X118171775Y-61511011D01*
X118067371Y-61258957D01*
X117915799Y-61032114D01*
X117722886Y-60839201D01*
X117496043Y-60687629D01*
X117243989Y-60583225D01*
X116976411Y-60530000D01*
X116703589Y-60530000D01*
X116436011Y-60583225D01*
X116183957Y-60687629D01*
X115957114Y-60839201D01*
X115764201Y-61032114D01*
X115612629Y-61258957D01*
X115508225Y-61511011D01*
X115455000Y-61778589D01*
X90285000Y-61778589D01*
X90231775Y-61511011D01*
X90127371Y-61258957D01*
X89975799Y-61032114D01*
X89782886Y-60839201D01*
X89556043Y-60687629D01*
X89303989Y-60583225D01*
X89036411Y-60530000D01*
X88763589Y-60530000D01*
X88496011Y-60583225D01*
X88243957Y-60687629D01*
X88017114Y-60839201D01*
X87824201Y-61032114D01*
X87672629Y-61258957D01*
X87568225Y-61511011D01*
X87515000Y-61778589D01*
X71870000Y-61778589D01*
X71816775Y-61511011D01*
X71712371Y-61258957D01*
X71560799Y-61032114D01*
X71367886Y-60839201D01*
X71141043Y-60687629D01*
X70888989Y-60583225D01*
X70621411Y-60530000D01*
X70348589Y-60530000D01*
X70081011Y-60583225D01*
X69828957Y-60687629D01*
X69602114Y-60839201D01*
X69409201Y-61032114D01*
X69257629Y-61258957D01*
X69153225Y-61511011D01*
X69100000Y-61778589D01*
X53455000Y-61778589D01*
X53401775Y-61511011D01*
X53297371Y-61258957D01*
X53145799Y-61032114D01*
X52952886Y-60839201D01*
X52726043Y-60687629D01*
X52473989Y-60583225D01*
X52206411Y-60530000D01*
X51933589Y-60530000D01*
X51666011Y-60583225D01*
X51413957Y-60687629D01*
X51187114Y-60839201D01*
X50994201Y-61032114D01*
X50842629Y-61258957D01*
X50738225Y-61511011D01*
X50685000Y-61778589D01*
X41080980Y-61778589D01*
X41080980Y-54904544D01*
X50685000Y-54904544D01*
X50685000Y-55051411D01*
%TA.AperFunction,Conductor*%
D17*
G36*
X50685000Y-55051411D02*
G01*
X50738225Y-55318989D01*
X50842629Y-55571043D01*
X50994201Y-55797886D01*
X51187114Y-55990799D01*
X51413957Y-56142371D01*
X51666011Y-56246775D01*
X51933589Y-56300000D01*
X52206411Y-56300000D01*
X52473989Y-56246775D01*
X52726043Y-56142371D01*
X52952886Y-55990799D01*
X53145799Y-55797886D01*
X53297371Y-55571043D01*
X53401775Y-55318989D01*
X53455000Y-55051411D01*
X53455000Y-54904544D01*
X69100000Y-54904544D01*
X69100000Y-55051411D01*
X69153225Y-55318989D01*
X69257629Y-55571043D01*
X69409201Y-55797886D01*
X69602114Y-55990799D01*
X69828957Y-56142371D01*
X70081011Y-56246775D01*
X70348589Y-56300000D01*
X70621411Y-56300000D01*
X70888989Y-56246775D01*
X71141043Y-56142371D01*
X71367886Y-55990799D01*
X71560799Y-55797886D01*
X71712371Y-55571043D01*
X71816775Y-55318989D01*
X71870000Y-55051411D01*
X71870000Y-54904544D01*
X87515000Y-54904544D01*
X87515000Y-55051411D01*
X87568225Y-55318989D01*
X87672629Y-55571043D01*
X87824201Y-55797886D01*
X88017114Y-55990799D01*
X88243957Y-56142371D01*
X88496011Y-56246775D01*
X88763589Y-56300000D01*
X89036411Y-56300000D01*
X89303989Y-56246775D01*
X89556043Y-56142371D01*
X89782886Y-55990799D01*
X89975799Y-55797886D01*
X90127371Y-55571043D01*
X90231775Y-55318989D01*
X90285000Y-55051411D01*
X90285000Y-54904544D01*
X115455000Y-54904544D01*
X115455000Y-55051411D01*
X115508225Y-55318989D01*
X115612629Y-55571043D01*
X115764201Y-55797886D01*
X115957114Y-55990799D01*
X116183957Y-56142371D01*
X116436011Y-56246775D01*
X116703589Y-56300000D01*
X116976411Y-56300000D01*
X117243989Y-56246775D01*
X117496043Y-56142371D01*
X117722886Y-55990799D01*
X117915799Y-55797886D01*
X118067371Y-55571043D01*
X118171775Y-55318989D01*
X118225000Y-55051411D01*
X118225000Y-54904544D01*
X131158877Y-54904544D01*
X131158878Y-88982245D01*
X121328147Y-88982245D01*
X121384463Y-88958918D01*
X121652252Y-88779987D01*
X121879987Y-88552252D01*
X122058918Y-88284463D01*
X122182168Y-87986912D01*
X122245000Y-87671033D01*
X122245000Y-87348967D01*
X122182168Y-87033088D01*
X122058918Y-86735537D01*
X121879987Y-86467748D01*
X121652252Y-86240013D01*
X121384463Y-86061082D01*
X121086912Y-85937832D01*
X120771033Y-85875000D01*
X120448967Y-85875000D01*
X120133088Y-85937832D01*
X119835537Y-86061082D01*
X119567748Y-86240013D01*
X119360000Y-86447761D01*
X119152252Y-86240013D01*
X118884463Y-86061082D01*
X118586912Y-85937832D01*
X118271033Y-85875000D01*
X117948967Y-85875000D01*
X117633088Y-85937832D01*
X117335537Y-86061082D01*
X117067748Y-86240013D01*
X116840013Y-86467748D01*
X116775075Y-86564935D01*
X116745413Y-86554192D01*
X115789605Y-87510000D01*
X116745413Y-88465808D01*
X116775075Y-88455065D01*
X116840013Y-88552252D01*
X117067748Y-88779987D01*
X117335537Y-88958918D01*
X117391853Y-88982245D01*
X116334535Y-88982245D01*
X116470044Y-88909814D01*
X116565808Y-88645413D01*
X115610000Y-87689605D01*
X114654192Y-88645413D01*
X114749956Y-88909814D01*
X114898846Y-88982245D01*
X95078623Y-88982245D01*
X95311104Y-88749764D01*
X95367589Y-88761000D01*
X95640411Y-88761000D01*
X95907989Y-88707775D01*
X96160043Y-88603371D01*
X96386886Y-88451799D01*
X96579799Y-88258886D01*
X96731371Y-88032043D01*
X96835775Y-87779989D01*
X96877028Y-87572595D01*
X113968282Y-87572595D01*
X114012039Y-87891675D01*
X114117205Y-88196088D01*
X114210186Y-88370044D01*
X114474587Y-88465808D01*
X115430395Y-87510000D01*
X114474587Y-86554192D01*
X114210186Y-86649956D01*
X114069296Y-86939571D01*
X113987616Y-87251108D01*
X113968282Y-87572595D01*
X96877028Y-87572595D01*
X96889000Y-87512411D01*
X96889000Y-87239589D01*
X96835775Y-86972011D01*
X96731371Y-86719957D01*
X96579799Y-86493114D01*
X96461272Y-86374587D01*
X114654192Y-86374587D01*
X115610000Y-87330395D01*
X116565808Y-86374587D01*
X116470044Y-86110186D01*
X116180429Y-85969296D01*
X115868892Y-85887616D01*
X115547405Y-85868282D01*
X115228325Y-85912039D01*
X114923912Y-86017205D01*
X114749956Y-86110186D01*
X114654192Y-86374587D01*
X96461272Y-86374587D01*
X96386886Y-86300201D01*
X96160043Y-86148629D01*
X95907989Y-86044225D01*
X95640411Y-85991000D01*
X95367589Y-85991000D01*
X95100011Y-86044225D01*
X94847957Y-86148629D01*
X94621114Y-86300201D01*
X94488000Y-86433315D01*
X94354886Y-86300201D01*
X94128043Y-86148629D01*
X93875989Y-86044225D01*
X93608411Y-85991000D01*
X93335589Y-85991000D01*
X93279103Y-86002236D01*
X93142250Y-85865382D01*
X92791058Y-85163000D01*
X117749972Y-85163000D01*
X117786203Y-85192734D01*
X117966007Y-85288841D01*
X118161105Y-85348024D01*
X118364000Y-85368007D01*
X118566894Y-85348024D01*
X118761992Y-85288841D01*
X118941797Y-85192734D01*
X119099396Y-85063396D01*
X119228734Y-84905797D01*
X119324841Y-84725993D01*
X119384024Y-84530895D01*
X119399000Y-84378838D01*
X119399000Y-81638772D01*
X119431008Y-81533255D01*
X119448072Y-81360001D01*
X119448072Y-80709999D01*
X119431008Y-80536745D01*
X119380472Y-80370149D01*
X119298405Y-80216613D01*
X119187962Y-80082038D01*
X119100184Y-80010000D01*
X119187962Y-79937962D01*
X119298405Y-79803387D01*
X119380472Y-79649851D01*
X119407718Y-79560032D01*
X120875000Y-79560032D01*
X120875000Y-80459969D01*
X120904445Y-80758930D01*
X121020809Y-81142529D01*
X121209773Y-81496056D01*
X121464077Y-81805924D01*
X121773945Y-82060227D01*
X122127472Y-82249191D01*
X122511071Y-82365555D01*
X122910000Y-82404846D01*
X123308930Y-82365555D01*
X123692529Y-82249191D01*
X124046056Y-82060227D01*
X124355924Y-81805924D01*
X124610227Y-81496056D01*
X124799191Y-81142529D01*
X124915555Y-80758929D01*
X124945000Y-80459968D01*
X124945000Y-79560031D01*
X124915555Y-79261070D01*
X124799191Y-78877471D01*
X124610227Y-78523944D01*
X124355924Y-78214076D01*
X124046056Y-77959773D01*
X123692528Y-77770809D01*
X123308929Y-77654445D01*
X122910000Y-77615154D01*
X122511070Y-77654445D01*
X122127471Y-77770809D01*
X121773944Y-77959773D01*
X121464076Y-78214076D01*
X121209773Y-78523944D01*
X121020809Y-78877472D01*
X120904445Y-79261071D01*
X120875000Y-79560032D01*
X119407718Y-79560032D01*
X119431008Y-79483255D01*
X119448072Y-79310001D01*
X119448072Y-78659999D01*
X119431008Y-78486745D01*
X119380472Y-78320149D01*
X119298405Y-78166613D01*
X119187962Y-78032038D01*
X119053387Y-77921595D01*
X118945000Y-77863661D01*
X118945000Y-76291867D01*
X119967432Y-75269437D01*
X119999291Y-75243291D01*
X120103636Y-75116146D01*
X120181172Y-74971087D01*
X120228918Y-74813689D01*
X120241000Y-74691019D01*
X120241000Y-74691018D01*
X120245040Y-74650000D01*
X120241000Y-74608982D01*
X120241000Y-72514613D01*
X120299386Y-72483405D01*
X120433962Y-72372962D01*
X120544405Y-72238386D01*
X120626472Y-72084850D01*
X120677008Y-71918254D01*
X120694072Y-71745000D01*
X120694072Y-70495000D01*
X120677008Y-70321746D01*
X120626472Y-70155150D01*
X120544405Y-70001614D01*
X120433962Y-69867038D01*
X120299386Y-69756595D01*
X120145850Y-69674528D01*
X119979254Y-69623992D01*
X119806000Y-69606928D01*
X119006000Y-69606928D01*
X118832746Y-69623992D01*
X118666150Y-69674528D01*
X118512614Y-69756595D01*
X118378038Y-69867038D01*
X118267595Y-70001614D01*
X118185528Y-70155150D01*
X118134992Y-70321746D01*
X118117928Y-70495000D01*
X118117928Y-71745000D01*
X118134992Y-71918254D01*
X118185528Y-72084850D01*
X118267595Y-72238386D01*
X118378038Y-72372962D01*
X118512614Y-72483405D01*
X118571000Y-72514613D01*
X118571001Y-74304131D01*
X117548578Y-75326554D01*
X117516709Y-75352709D01*
X117457241Y-75425172D01*
X117412364Y-75479855D01*
X117334828Y-75624914D01*
X117287082Y-75782312D01*
X117270960Y-75946000D01*
X117275000Y-75987019D01*
X117275001Y-77863660D01*
X117166613Y-77921595D01*
X117032038Y-78032038D01*
X116921595Y-78166613D01*
X116839528Y-78320149D01*
X116788992Y-78486745D01*
X116771928Y-78659999D01*
X116771928Y-79310001D01*
X116788992Y-79483255D01*
X116839528Y-79649851D01*
X116921595Y-79803387D01*
X117032038Y-79937962D01*
X117119816Y-80010000D01*
X117032038Y-80082038D01*
X116921595Y-80216613D01*
X116839528Y-80370149D01*
X116788992Y-80536745D01*
X116771928Y-80709999D01*
X116771928Y-81360001D01*
X116788992Y-81533255D01*
X116839528Y-81699851D01*
X116921595Y-81853387D01*
X117032038Y-81987962D01*
X117166613Y-82098405D01*
X117320149Y-82180472D01*
X117329001Y-82183157D01*
X117329000Y-83493000D01*
X87395000Y-83493000D01*
X87395000Y-82023220D01*
X87437962Y-81987962D01*
X87548405Y-81853387D01*
X87630472Y-81699851D01*
X87681008Y-81533255D01*
X87698072Y-81360001D01*
X87698072Y-80709999D01*
X87681008Y-80536745D01*
X87630472Y-80370149D01*
X87548405Y-80216613D01*
X87437962Y-80082038D01*
X87350184Y-80010000D01*
X87437962Y-79937962D01*
X87548405Y-79803387D01*
X87630472Y-79649851D01*
X87657718Y-79560032D01*
X89125000Y-79560032D01*
X89125000Y-80459969D01*
X89154445Y-80758930D01*
X89270809Y-81142529D01*
X89459773Y-81496056D01*
X89714077Y-81805924D01*
X90023945Y-82060227D01*
X90377472Y-82249191D01*
X90761071Y-82365555D01*
X91160000Y-82404846D01*
X91558930Y-82365555D01*
X91942529Y-82249191D01*
X92296056Y-82060227D01*
X92605924Y-81805924D01*
X92860227Y-81496056D01*
X93049191Y-81142529D01*
X93165555Y-80758929D01*
X93195000Y-80459968D01*
X93195000Y-79560032D01*
X111275000Y-79560032D01*
X111275000Y-80459969D01*
X111304445Y-80758930D01*
X111420809Y-81142529D01*
X111609773Y-81496056D01*
X111864077Y-81805924D01*
X112173945Y-82060227D01*
X112527472Y-82249191D01*
X112911071Y-82365555D01*
X113310000Y-82404846D01*
X113708930Y-82365555D01*
X114092529Y-82249191D01*
X114446056Y-82060227D01*
X114755924Y-81805924D01*
X115010227Y-81496056D01*
X115199191Y-81142529D01*
X115315555Y-80758929D01*
X115345000Y-80459968D01*
X115345000Y-79560031D01*
X115315555Y-79261070D01*
X115199191Y-78877471D01*
X115010227Y-78523944D01*
X114755924Y-78214076D01*
X114446056Y-77959773D01*
X114092528Y-77770809D01*
X113708929Y-77654445D01*
X113310000Y-77615154D01*
X112911070Y-77654445D01*
X112527471Y-77770809D01*
X112173944Y-77959773D01*
X111864076Y-78214076D01*
X111609773Y-78523944D01*
X111420809Y-78877472D01*
X111304445Y-79261071D01*
X111275000Y-79560032D01*
X93195000Y-79560032D01*
X93195000Y-79560031D01*
X93165555Y-79261070D01*
X93049191Y-78877471D01*
X92860227Y-78523944D01*
X92605924Y-78214076D01*
X92296056Y-77959773D01*
X91942528Y-77770809D01*
X91558929Y-77654445D01*
X91160000Y-77615154D01*
X90761070Y-77654445D01*
X90377471Y-77770809D01*
X90023944Y-77959773D01*
X89714076Y-78214076D01*
X89459773Y-78523944D01*
X89270809Y-78877472D01*
X89154445Y-79261071D01*
X89125000Y-79560032D01*
X87657718Y-79560032D01*
X87681008Y-79483255D01*
X87698072Y-79310001D01*
X87698072Y-78659999D01*
X87681008Y-78486745D01*
X87630472Y-78320149D01*
X87548405Y-78166613D01*
X87437962Y-78032038D01*
X87303387Y-77921595D01*
X87195000Y-77863661D01*
X87195000Y-77053867D01*
X88471426Y-75777441D01*
X88503291Y-75751291D01*
X88607636Y-75624146D01*
X88685172Y-75479087D01*
X88732918Y-75321689D01*
X88745000Y-75199019D01*
X88749040Y-75158001D01*
X88745000Y-75116982D01*
X88745000Y-73022613D01*
X88803386Y-72991405D01*
X88937962Y-72880962D01*
X89048405Y-72746386D01*
X89130472Y-72592850D01*
X89181008Y-72426254D01*
X89198072Y-72253000D01*
X89198072Y-71995000D01*
X115017928Y-71995000D01*
X115030188Y-72119482D01*
X115066498Y-72239180D01*
X115125463Y-72349494D01*
X115204815Y-72446185D01*
X115301506Y-72525537D01*
X115411820Y-72584502D01*
X115531518Y-72620812D01*
X115656000Y-72633072D01*
X116020250Y-72630000D01*
X116179000Y-72471250D01*
X116179000Y-71247000D01*
X116433000Y-71247000D01*
X116433000Y-72471250D01*
X116591750Y-72630000D01*
X116956000Y-72633072D01*
X117080482Y-72620812D01*
X117200180Y-72584502D01*
X117310494Y-72525537D01*
X117407185Y-72446185D01*
X117486537Y-72349494D01*
X117545502Y-72239180D01*
X117581812Y-72119482D01*
X117594072Y-71995000D01*
X117591000Y-71405750D01*
X117432250Y-71247000D01*
X116433000Y-71247000D01*
X116179000Y-71247000D01*
X115179750Y-71247000D01*
X115021000Y-71405750D01*
X115017928Y-71995000D01*
X89198072Y-71995000D01*
X89198072Y-71003000D01*
X89181008Y-70829746D01*
X89131033Y-70665000D01*
X97952205Y-70665000D01*
X97984201Y-70712886D01*
X98177114Y-70905799D01*
X98403957Y-71057371D01*
X98656011Y-71161775D01*
X98923589Y-71215000D01*
X99196411Y-71215000D01*
X99463989Y-71161775D01*
X99716043Y-71057371D01*
X99942886Y-70905799D01*
X100135799Y-70712886D01*
X100287371Y-70486043D01*
X100387214Y-70245000D01*
X115017928Y-70245000D01*
X115021000Y-70834250D01*
X115179750Y-70993000D01*
X116179000Y-70993000D01*
X116179000Y-69768750D01*
X116433000Y-69768750D01*
X116433000Y-70993000D01*
X117432250Y-70993000D01*
X117591000Y-70834250D01*
X117594072Y-70245000D01*
X117581812Y-70120518D01*
X117545502Y-70000820D01*
X117486537Y-69890506D01*
X117407185Y-69793815D01*
X117310494Y-69714463D01*
X117200180Y-69655498D01*
X117080482Y-69619188D01*
X116956000Y-69606928D01*
X116591750Y-69610000D01*
X116433000Y-69768750D01*
X116179000Y-69768750D01*
X116020250Y-69610000D01*
X115656000Y-69606928D01*
X115531518Y-69619188D01*
X115411820Y-69655498D01*
X115301506Y-69714463D01*
X115204815Y-69793815D01*
X115125463Y-69890506D01*
X115066498Y-70000820D01*
X115030188Y-70120518D01*
X115017928Y-70245000D01*
X100387214Y-70245000D01*
X100391775Y-70233989D01*
X100445000Y-69966411D01*
X100445000Y-69693589D01*
X100391775Y-69426011D01*
X100287371Y-69173957D01*
X100135799Y-68947114D01*
X99942886Y-68754201D01*
X99716043Y-68602629D01*
X99463989Y-68498225D01*
X99196411Y-68445000D01*
X98923589Y-68445000D01*
X98656011Y-68498225D01*
X98403957Y-68602629D01*
X98177114Y-68754201D01*
X97984201Y-68947114D01*
X97952205Y-68995000D01*
X87663340Y-68995000D01*
X87622321Y-68990960D01*
X87581303Y-68995000D01*
X87458633Y-69007082D01*
X87301235Y-69054828D01*
X87156176Y-69132364D01*
X87029031Y-69236709D01*
X87002881Y-69268574D01*
X85937534Y-70333921D01*
X85911185Y-70301815D01*
X85814494Y-70222463D01*
X85704180Y-70163498D01*
X85584482Y-70127188D01*
X85460000Y-70114928D01*
X85095750Y-70118000D01*
X84937000Y-70276750D01*
X84937000Y-71501000D01*
X84957000Y-71501000D01*
X84957000Y-71755000D01*
X84937000Y-71755000D01*
X84937000Y-71775000D01*
X84683000Y-71775000D01*
X84683000Y-71755000D01*
X83683750Y-71755000D01*
X83525000Y-71913750D01*
X83522898Y-72317000D01*
X75021868Y-72317000D01*
X74514945Y-71810078D01*
X74488790Y-71778208D01*
X74361645Y-71673863D01*
X74216586Y-71596327D01*
X74059188Y-71548581D01*
X73936518Y-71536499D01*
X73936517Y-71536499D01*
X73895499Y-71532459D01*
X73854481Y-71536499D01*
X69401508Y-71536499D01*
X69360500Y-71532460D01*
X69319492Y-71536499D01*
X69319482Y-71536499D01*
X69196812Y-71548581D01*
X69039414Y-71596327D01*
X68894355Y-71673863D01*
X68767210Y-71778208D01*
X68741060Y-71810072D01*
X63184897Y-77366236D01*
X63128411Y-77355000D01*
X62855589Y-77355000D01*
X62588011Y-77408225D01*
X62335957Y-77512629D01*
X62109114Y-77664201D01*
X61916201Y-77857114D01*
X61764629Y-78083957D01*
X61660225Y-78336011D01*
X61607000Y-78603589D01*
X61607000Y-78876411D01*
X61660225Y-79143989D01*
X61764629Y-79396043D01*
X61916201Y-79622886D01*
X62109114Y-79815799D01*
X62335957Y-79967371D01*
X62588011Y-80071775D01*
X62855589Y-80125000D01*
X63128411Y-80125000D01*
X63395989Y-80071775D01*
X63648043Y-79967371D01*
X63874886Y-79815799D01*
X64067799Y-79622886D01*
X64219371Y-79396043D01*
X64323775Y-79143989D01*
X64377000Y-78876411D01*
X64377000Y-78603589D01*
X64365764Y-78547103D01*
X69706369Y-73206499D01*
X70847286Y-73206499D01*
X70842725Y-73217511D01*
X70789500Y-73485089D01*
X70789500Y-73757911D01*
X70842725Y-74025489D01*
X70947129Y-74277543D01*
X71098701Y-74504386D01*
X71291614Y-74697299D01*
X71339500Y-74729296D01*
X71339501Y-86991631D01*
X70296897Y-88034236D01*
X70240411Y-88023000D01*
X69967589Y-88023000D01*
X69700011Y-88076225D01*
X69447957Y-88180629D01*
X69221114Y-88332201D01*
X69028201Y-88525114D01*
X68876629Y-88751957D01*
X68772225Y-89004011D01*
X68719000Y-89271589D01*
X68719000Y-89544411D01*
X68772225Y-89811989D01*
X68876629Y-90064043D01*
X69028201Y-90290886D01*
X69221114Y-90483799D01*
X69402504Y-90605000D01*
X66385869Y-90605000D01*
X59547446Y-83766579D01*
X59521291Y-83734709D01*
X59394146Y-83630364D01*
X59249087Y-83552828D01*
X59091689Y-83505082D01*
X58969019Y-83493000D01*
X58969018Y-83493000D01*
X58928000Y-83488960D01*
X58886982Y-83493000D01*
X55899000Y-83493000D01*
X55899000Y-81638772D01*
X55931008Y-81533255D01*
X55948072Y-81360001D01*
X55948072Y-80709999D01*
X55931008Y-80536745D01*
X55880472Y-80370149D01*
X55798405Y-80216613D01*
X55687962Y-80082038D01*
X55600184Y-80010000D01*
X55687962Y-79937962D01*
X55798405Y-79803387D01*
X55880472Y-79649851D01*
X55907718Y-79560032D01*
X57375000Y-79560032D01*
X57375000Y-80459969D01*
X57404445Y-80758930D01*
X57520809Y-81142529D01*
X57709773Y-81496056D01*
X57964077Y-81805924D01*
X58273945Y-82060227D01*
X58627472Y-82249191D01*
X59011071Y-82365555D01*
X59410000Y-82404846D01*
X59808930Y-82365555D01*
X60192529Y-82249191D01*
X60546056Y-82060227D01*
X60855924Y-81805924D01*
X61110227Y-81496056D01*
X61299191Y-81142529D01*
X61415555Y-80758929D01*
X61445000Y-80459968D01*
X61445000Y-79560031D01*
X61415555Y-79261070D01*
X61299191Y-78877471D01*
X61110227Y-78523944D01*
X60855924Y-78214076D01*
X60546056Y-77959773D01*
X60192528Y-77770809D01*
X59808929Y-77654445D01*
X59410000Y-77615154D01*
X59011070Y-77654445D01*
X58627471Y-77770809D01*
X58273944Y-77959773D01*
X57964076Y-78214076D01*
X57709773Y-78523944D01*
X57520809Y-78877472D01*
X57404445Y-79261071D01*
X57375000Y-79560032D01*
X55907718Y-79560032D01*
X55931008Y-79483255D01*
X55948072Y-79310001D01*
X55948072Y-78659999D01*
X55931008Y-78486745D01*
X55880472Y-78320149D01*
X55798405Y-78166613D01*
X55687962Y-78032038D01*
X55553387Y-77921595D01*
X55445000Y-77863661D01*
X55445000Y-76291867D01*
X56467432Y-75269437D01*
X56499291Y-75243291D01*
X56603636Y-75116146D01*
X56681172Y-74971087D01*
X56728918Y-74813689D01*
X56741000Y-74691019D01*
X56741000Y-74691018D01*
X56745040Y-74650000D01*
X56741000Y-74608982D01*
X56741000Y-73022613D01*
X56799386Y-72991405D01*
X56933962Y-72880962D01*
X57044405Y-72746386D01*
X57126472Y-72592850D01*
X57177008Y-72426254D01*
X57194072Y-72253000D01*
X57194072Y-71003000D01*
X57177008Y-70829746D01*
X57153728Y-70753000D01*
X83521928Y-70753000D01*
X83525000Y-71342250D01*
X83683750Y-71501000D01*
X84683000Y-71501000D01*
X84683000Y-70276750D01*
X84524250Y-70118000D01*
X84160000Y-70114928D01*
X84035518Y-70127188D01*
X83915820Y-70163498D01*
X83805506Y-70222463D01*
X83708815Y-70301815D01*
X83629463Y-70398506D01*
X83570498Y-70508820D01*
X83534188Y-70628518D01*
X83521928Y-70753000D01*
X57153728Y-70753000D01*
X57126472Y-70663150D01*
X57044405Y-70509614D01*
X56933962Y-70375038D01*
X56799386Y-70264595D01*
X56645850Y-70182528D01*
X56479254Y-70131992D01*
X56306000Y-70114928D01*
X55506000Y-70114928D01*
X55332746Y-70131992D01*
X55166150Y-70182528D01*
X55012614Y-70264595D01*
X54878038Y-70375038D01*
X54767595Y-70509614D01*
X54685528Y-70663150D01*
X54634992Y-70829746D01*
X54617928Y-71003000D01*
X54617928Y-72253000D01*
X54634992Y-72426254D01*
X54685528Y-72592850D01*
X54767595Y-72746386D01*
X54878038Y-72880962D01*
X55012614Y-72991405D01*
X55071000Y-73022613D01*
X55071001Y-74304131D01*
X54048578Y-75326554D01*
X54016709Y-75352709D01*
X53957241Y-75425172D01*
X53912364Y-75479855D01*
X53834828Y-75624914D01*
X53787082Y-75782312D01*
X53770960Y-75946000D01*
X53775000Y-75987019D01*
X53775001Y-77863660D01*
X53666613Y-77921595D01*
X53532038Y-78032038D01*
X53421595Y-78166613D01*
X53339528Y-78320149D01*
X53288992Y-78486745D01*
X53271928Y-78659999D01*
X53271928Y-79310001D01*
X53288992Y-79483255D01*
X53339528Y-79649851D01*
X53421595Y-79803387D01*
X53532038Y-79937962D01*
X53619816Y-80010000D01*
X53532038Y-80082038D01*
X53421595Y-80216613D01*
X53339528Y-80370149D01*
X53288992Y-80536745D01*
X53271928Y-80709999D01*
X53271928Y-81360001D01*
X53288992Y-81533255D01*
X53339528Y-81699851D01*
X53421595Y-81853387D01*
X53532038Y-81987962D01*
X53666613Y-82098405D01*
X53820149Y-82180472D01*
X53829001Y-82183157D01*
X53829000Y-83493000D01*
X45826027Y-83493000D01*
X45789797Y-83463267D01*
X45739000Y-83436116D01*
X45739000Y-79560032D01*
X47775000Y-79560032D01*
X47775000Y-80459969D01*
X47804445Y-80758930D01*
X47920809Y-81142529D01*
X48109773Y-81496056D01*
X48364077Y-81805924D01*
X48673945Y-82060227D01*
X49027472Y-82249191D01*
X49411071Y-82365555D01*
X49810000Y-82404846D01*
X50208930Y-82365555D01*
X50592529Y-82249191D01*
X50946056Y-82060227D01*
X51255924Y-81805924D01*
X51510227Y-81496056D01*
X51699191Y-81142529D01*
X51815555Y-80758929D01*
X51845000Y-80459968D01*
X51845000Y-79560031D01*
X51815555Y-79261070D01*
X51699191Y-78877471D01*
X51510227Y-78523944D01*
X51255924Y-78214076D01*
X50946056Y-77959773D01*
X50592528Y-77770809D01*
X50208929Y-77654445D01*
X49810000Y-77615154D01*
X49411070Y-77654445D01*
X49027471Y-77770809D01*
X48673944Y-77959773D01*
X48364076Y-78214076D01*
X48109773Y-78523944D01*
X47920809Y-78877472D01*
X47804445Y-79261071D01*
X47775000Y-79560032D01*
X45739000Y-79560032D01*
X45739000Y-72503000D01*
X51517928Y-72503000D01*
X51530188Y-72627482D01*
X51566498Y-72747180D01*
X51625463Y-72857494D01*
X51704815Y-72954185D01*
X51801506Y-73033537D01*
X51911820Y-73092502D01*
X52031518Y-73128812D01*
X52156000Y-73141072D01*
X52520250Y-73138000D01*
X52679000Y-72979250D01*
X52679000Y-71755000D01*
X52933000Y-71755000D01*
X52933000Y-72979250D01*
X53091750Y-73138000D01*
X53456000Y-73141072D01*
X53580482Y-73128812D01*
X53700180Y-73092502D01*
X53810494Y-73033537D01*
X53907185Y-72954185D01*
X53986537Y-72857494D01*
X54045502Y-72747180D01*
X54081812Y-72627482D01*
X54094072Y-72503000D01*
X54091000Y-71913750D01*
X53932250Y-71755000D01*
X52933000Y-71755000D01*
X52679000Y-71755000D01*
X51679750Y-71755000D01*
X51521000Y-71913750D01*
X51517928Y-72503000D01*
X45739000Y-72503000D01*
X45739000Y-70753000D01*
X51517928Y-70753000D01*
X51521000Y-71342250D01*
X51679750Y-71501000D01*
X52679000Y-71501000D01*
X52679000Y-70276750D01*
X52933000Y-70276750D01*
X52933000Y-71501000D01*
X53932250Y-71501000D01*
X54091000Y-71342250D01*
X54094072Y-70753000D01*
X54081812Y-70628518D01*
X54045502Y-70508820D01*
X53986537Y-70398506D01*
X53907185Y-70301815D01*
X53810494Y-70222463D01*
X53700180Y-70163498D01*
X53580482Y-70127188D01*
X53456000Y-70114928D01*
X53091750Y-70118000D01*
X52933000Y-70276750D01*
X52679000Y-70276750D01*
X52520250Y-70118000D01*
X52156000Y-70114928D01*
X52031518Y-70127188D01*
X51911820Y-70163498D01*
X51801506Y-70222463D01*
X51704815Y-70301815D01*
X51625463Y-70398506D01*
X51566498Y-70508820D01*
X51530188Y-70628518D01*
X51517928Y-70753000D01*
X45739000Y-70753000D01*
X45739000Y-69860822D01*
X45868043Y-69807371D01*
X46094886Y-69655799D01*
X46135685Y-69615000D01*
X61560315Y-69615000D01*
X61601114Y-69655799D01*
X61827957Y-69807371D01*
X62080011Y-69911775D01*
X62347589Y-69965000D01*
X62620411Y-69965000D01*
X62887989Y-69911775D01*
X63140043Y-69807371D01*
X63366886Y-69655799D01*
X63407685Y-69615000D01*
X80356315Y-69615000D01*
X80397114Y-69655799D01*
X80623957Y-69807371D01*
X80876011Y-69911775D01*
X81143589Y-69965000D01*
X81416411Y-69965000D01*
X81683989Y-69911775D01*
X81936043Y-69807371D01*
X82162886Y-69655799D01*
X82355799Y-69462886D01*
X82507371Y-69236043D01*
X82611775Y-68983989D01*
X82665000Y-68716411D01*
X82665000Y-68443589D01*
X82611775Y-68176011D01*
X82507371Y-67923957D01*
X82355799Y-67697114D01*
X82162886Y-67504201D01*
X81936043Y-67352629D01*
X81683989Y-67248225D01*
X81416411Y-67195000D01*
X81143589Y-67195000D01*
X80876011Y-67248225D01*
X80623957Y-67352629D01*
X80397114Y-67504201D01*
X80356315Y-67545000D01*
X63407685Y-67545000D01*
X63366886Y-67504201D01*
X63140043Y-67352629D01*
X62887989Y-67248225D01*
X62620411Y-67195000D01*
X62347589Y-67195000D01*
X62080011Y-67248225D01*
X61827957Y-67352629D01*
X61601114Y-67504201D01*
X61560315Y-67545000D01*
X46135685Y-67545000D01*
X46094886Y-67504201D01*
X45868043Y-67352629D01*
X45615989Y-67248225D01*
X45348411Y-67195000D01*
X45075589Y-67195000D01*
X44808011Y-67248225D01*
X44555957Y-67352629D01*
X44329114Y-67504201D01*
X44136201Y-67697114D01*
X43984629Y-67923957D01*
X43880225Y-68176011D01*
X43827000Y-68443589D01*
X43827000Y-68533151D01*
X43743160Y-68690007D01*
X43683977Y-68885105D01*
X43663994Y-69088000D01*
X43669001Y-69138838D01*
X43669000Y-81229162D01*
X43669000Y-81229163D01*
X43669001Y-84785153D01*
X43669000Y-84785163D01*
X43669000Y-84785172D01*
X43663994Y-84836000D01*
X43669000Y-84886828D01*
X43669001Y-100533162D01*
X43663994Y-100584000D01*
X43683977Y-100786895D01*
X43743160Y-100981993D01*
X43839266Y-101161797D01*
X43872266Y-101202007D01*
X43968605Y-101319396D01*
X44008092Y-101351802D01*
X46476197Y-103819908D01*
X46508604Y-103859396D01*
X46548092Y-103891803D01*
X46666202Y-103988734D01*
X46762309Y-104040104D01*
X46846007Y-104084841D01*
X47041105Y-104144024D01*
X47193162Y-104159000D01*
X47193171Y-104159000D01*
X47243999Y-104164006D01*
X47294827Y-104159000D01*
X59385172Y-104159000D01*
X59436000Y-104164006D01*
X59486828Y-104159000D01*
X59486838Y-104159000D01*
X59638895Y-104144024D01*
X59833993Y-104084841D01*
X60013797Y-103988734D01*
X60171396Y-103859396D01*
X60203807Y-103819903D01*
X61038711Y-102985000D01*
X61096411Y-102985000D01*
X61363989Y-102931775D01*
X61616043Y-102827371D01*
X61842886Y-102675799D01*
X62035799Y-102482886D01*
X62187371Y-102256043D01*
X62291775Y-102003989D01*
X62345000Y-101736411D01*
X62345000Y-101463589D01*
X62291775Y-101196011D01*
X62187371Y-100943957D01*
X62035799Y-100717114D01*
X61842886Y-100524201D01*
X61616043Y-100372629D01*
X61513128Y-100330000D01*
X71922718Y-100330000D01*
X71951776Y-100625032D01*
X72037834Y-100908725D01*
X72177583Y-101170179D01*
X72365655Y-101399345D01*
X72594821Y-101587417D01*
X72856275Y-101727166D01*
X73139968Y-101813224D01*
X73361064Y-101835000D01*
X73958936Y-101835000D01*
X74180032Y-101813224D01*
X74463725Y-101727166D01*
X74725179Y-101587417D01*
X74954345Y-101399345D01*
X75142417Y-101170179D01*
X75282166Y-100908725D01*
X75368224Y-100625032D01*
X75397282Y-100330000D01*
X75368224Y-100034968D01*
X75282166Y-99751275D01*
X75142417Y-99489821D01*
X74954345Y-99260655D01*
X74888886Y-99206934D01*
X74998387Y-99148405D01*
X75132962Y-99037962D01*
X75243405Y-98903387D01*
X75325472Y-98749851D01*
X75376008Y-98583255D01*
X75393072Y-98410001D01*
X75393072Y-97169999D01*
X75376008Y-96996745D01*
X75325472Y-96830149D01*
X75243405Y-96676613D01*
X75132962Y-96542038D01*
X74998387Y-96431595D01*
X74844851Y-96349528D01*
X74678255Y-96298992D01*
X74505001Y-96281928D01*
X72814999Y-96281928D01*
X72641745Y-96298992D01*
X72475149Y-96349528D01*
X72321613Y-96431595D01*
X72187038Y-96542038D01*
X72076595Y-96676613D01*
X71994528Y-96830149D01*
X71943992Y-96996745D01*
X71926928Y-97169999D01*
X71926928Y-98410001D01*
X71943992Y-98583255D01*
X71994528Y-98749851D01*
X72076595Y-98903387D01*
X72187038Y-99037962D01*
X72321613Y-99148405D01*
X72431114Y-99206934D01*
X72365655Y-99260655D01*
X72177583Y-99489821D01*
X72037834Y-99751275D01*
X71951776Y-100034968D01*
X71922718Y-100330000D01*
X61513128Y-100330000D01*
X61363989Y-100268225D01*
X61096411Y-100215000D01*
X60823589Y-100215000D01*
X60556011Y-100268225D01*
X60303957Y-100372629D01*
X60077114Y-100524201D01*
X59884201Y-100717114D01*
X59732629Y-100943957D01*
X59628225Y-101196011D01*
X59575000Y-101463589D01*
X59575000Y-101521289D01*
X59007290Y-102089000D01*
X47672711Y-102089000D01*
X45739000Y-100155290D01*
X45739000Y-88645413D01*
X51154192Y-88645413D01*
X51249956Y-88909814D01*
X51539571Y-89050704D01*
X51851108Y-89132384D01*
X52172595Y-89151718D01*
X52491675Y-89107961D01*
X52796088Y-89002795D01*
X52970044Y-88909814D01*
X53065808Y-88645413D01*
X52110000Y-87689605D01*
X51154192Y-88645413D01*
X45739000Y-88645413D01*
X45739000Y-87572595D01*
X50468282Y-87572595D01*
X50512039Y-87891675D01*
X50617205Y-88196088D01*
X50710186Y-88370044D01*
X50974587Y-88465808D01*
X51930395Y-87510000D01*
X50974587Y-86554192D01*
X50710186Y-86649956D01*
X50569296Y-86939571D01*
X50487616Y-87251108D01*
X50468282Y-87572595D01*
X45739000Y-87572595D01*
X45739000Y-86374587D01*
X51154192Y-86374587D01*
X52110000Y-87330395D01*
X53065808Y-86374587D01*
X52970044Y-86110186D01*
X52680429Y-85969296D01*
X52368892Y-85887616D01*
X52047405Y-85868282D01*
X51728325Y-85912039D01*
X51423912Y-86017205D01*
X51249956Y-86110186D01*
X51154192Y-86374587D01*
X45739000Y-86374587D01*
X45739000Y-85264710D01*
X45840710Y-85163000D01*
X54249972Y-85163000D01*
X54286203Y-85192734D01*
X54466007Y-85288841D01*
X54661105Y-85348024D01*
X54864000Y-85368007D01*
X55066894Y-85348024D01*
X55261992Y-85288841D01*
X55441797Y-85192734D01*
X55478028Y-85163000D01*
X58582133Y-85163000D01*
X65040131Y-91621000D01*
X59821869Y-91621000D01*
X57333452Y-89132584D01*
X57586912Y-89082168D01*
X57884463Y-88958918D01*
X58152252Y-88779987D01*
X58379987Y-88552252D01*
X58558918Y-88284463D01*
X58682168Y-87986912D01*
X58745000Y-87671033D01*
X58745000Y-87348967D01*
X58682168Y-87033088D01*
X58558918Y-86735537D01*
X58379987Y-86467748D01*
X58152252Y-86240013D01*
X57884463Y-86061082D01*
X57586912Y-85937832D01*
X57271033Y-85875000D01*
X56948967Y-85875000D01*
X56633088Y-85937832D01*
X56335537Y-86061082D01*
X56067748Y-86240013D01*
X55860000Y-86447761D01*
X55652252Y-86240013D01*
X55384463Y-86061082D01*
X55086912Y-85937832D01*
X54771033Y-85875000D01*
X54448967Y-85875000D01*
X54133088Y-85937832D01*
X53835537Y-86061082D01*
X53567748Y-86240013D01*
X53340013Y-86467748D01*
X53275075Y-86564935D01*
X53245413Y-86554192D01*
X52289605Y-87510000D01*
X53245413Y-88465808D01*
X53275075Y-88455065D01*
X53340013Y-88552252D01*
X53567748Y-88779987D01*
X53835537Y-88958918D01*
X54133088Y-89082168D01*
X54448967Y-89145000D01*
X54771033Y-89145000D01*
X54948777Y-89109645D01*
X58856563Y-93017432D01*
X58882709Y-93049291D01*
X59009854Y-93153636D01*
X59154913Y-93231172D01*
X59312311Y-93278918D01*
X59434981Y-93291000D01*
X59434982Y-93291000D01*
X59476000Y-93295040D01*
X59517018Y-93291000D01*
X74634982Y-93291000D01*
X74676000Y-93295040D01*
X74717018Y-93291000D01*
X74717019Y-93291000D01*
X74839689Y-93278918D01*
X74997087Y-93231172D01*
X75142146Y-93153636D01*
X75269291Y-93049291D01*
X75295446Y-93017421D01*
X78513000Y-89799868D01*
X78513001Y-106453000D01*
X41080980Y-106453000D01*
X41080980Y-61778589D01*
X50685000Y-61778589D01*
X50685000Y-62051411D01*
X50738225Y-62318989D01*
X50842629Y-62571043D01*
X50994201Y-62797886D01*
X51187114Y-62990799D01*
X51413957Y-63142371D01*
X51666011Y-63246775D01*
X51933589Y-63300000D01*
X52206411Y-63300000D01*
X52473989Y-63246775D01*
X52726043Y-63142371D01*
X52952886Y-62990799D01*
X53145799Y-62797886D01*
X53297371Y-62571043D01*
X53401775Y-62318989D01*
X53455000Y-62051411D01*
X53455000Y-61778589D01*
X69100000Y-61778589D01*
X69100000Y-62051411D01*
X69153225Y-62318989D01*
X69257629Y-62571043D01*
X69409201Y-62797886D01*
X69602114Y-62990799D01*
X69828957Y-63142371D01*
X70081011Y-63246775D01*
X70348589Y-63300000D01*
X70621411Y-63300000D01*
X70888989Y-63246775D01*
X71141043Y-63142371D01*
X71367886Y-62990799D01*
X71560799Y-62797886D01*
X71712371Y-62571043D01*
X71816775Y-62318989D01*
X71870000Y-62051411D01*
X71870000Y-61778589D01*
X87515000Y-61778589D01*
X87515000Y-62051411D01*
X87568225Y-62318989D01*
X87672629Y-62571043D01*
X87824201Y-62797886D01*
X88017114Y-62990799D01*
X88243957Y-63142371D01*
X88496011Y-63246775D01*
X88763589Y-63300000D01*
X89036411Y-63300000D01*
X89303989Y-63246775D01*
X89556043Y-63142371D01*
X89782886Y-62990799D01*
X89975799Y-62797886D01*
X90127371Y-62571043D01*
X90231775Y-62318989D01*
X90285000Y-62051411D01*
X90285000Y-61778589D01*
X115455000Y-61778589D01*
X115455000Y-62051411D01*
X115508225Y-62318989D01*
X115612629Y-62571043D01*
X115764201Y-62797886D01*
X115957114Y-62990799D01*
X116183957Y-63142371D01*
X116436011Y-63246775D01*
X116703589Y-63300000D01*
X116976411Y-63300000D01*
X117243989Y-63246775D01*
X117496043Y-63142371D01*
X117722886Y-62990799D01*
X117915799Y-62797886D01*
X118067371Y-62571043D01*
X118171775Y-62318989D01*
X118225000Y-62051411D01*
X118225000Y-61778589D01*
X118171775Y-61511011D01*
X118067371Y-61258957D01*
X117915799Y-61032114D01*
X117722886Y-60839201D01*
X117496043Y-60687629D01*
X117243989Y-60583225D01*
X116976411Y-60530000D01*
X116703589Y-60530000D01*
X116436011Y-60583225D01*
X116183957Y-60687629D01*
X115957114Y-60839201D01*
X115764201Y-61032114D01*
X115612629Y-61258957D01*
X115508225Y-61511011D01*
X115455000Y-61778589D01*
X90285000Y-61778589D01*
X90231775Y-61511011D01*
X90127371Y-61258957D01*
X89975799Y-61032114D01*
X89782886Y-60839201D01*
X89556043Y-60687629D01*
X89303989Y-60583225D01*
X89036411Y-60530000D01*
X88763589Y-60530000D01*
X88496011Y-60583225D01*
X88243957Y-60687629D01*
X88017114Y-60839201D01*
X87824201Y-61032114D01*
X87672629Y-61258957D01*
X87568225Y-61511011D01*
X87515000Y-61778589D01*
X71870000Y-61778589D01*
X71816775Y-61511011D01*
X71712371Y-61258957D01*
X71560799Y-61032114D01*
X71367886Y-60839201D01*
X71141043Y-60687629D01*
X70888989Y-60583225D01*
X70621411Y-60530000D01*
X70348589Y-60530000D01*
X70081011Y-60583225D01*
X69828957Y-60687629D01*
X69602114Y-60839201D01*
X69409201Y-61032114D01*
X69257629Y-61258957D01*
X69153225Y-61511011D01*
X69100000Y-61778589D01*
X53455000Y-61778589D01*
X53401775Y-61511011D01*
X53297371Y-61258957D01*
X53145799Y-61032114D01*
X52952886Y-60839201D01*
X52726043Y-60687629D01*
X52473989Y-60583225D01*
X52206411Y-60530000D01*
X51933589Y-60530000D01*
X51666011Y-60583225D01*
X51413957Y-60687629D01*
X51187114Y-60839201D01*
X50994201Y-61032114D01*
X50842629Y-61258957D01*
X50738225Y-61511011D01*
X50685000Y-61778589D01*
X41080980Y-61778589D01*
X41080980Y-54904544D01*
X50685000Y-54904544D01*
X50685000Y-55051411D01*
G37*
%TD.AperFunction*%
D16*
X82237616Y-87251108D02*
X82218282Y-87572595D01*
X82262039Y-87891675D01*
X82367205Y-88196088D01*
X82460186Y-88370044D01*
X82724587Y-88465808D01*
X83680395Y-87510000D01*
X83666253Y-87495858D01*
X83845858Y-87316253D01*
X83860000Y-87330395D01*
X83874143Y-87316253D01*
X84053748Y-87495858D01*
X84039605Y-87510000D01*
X84995413Y-88465808D01*
X85025075Y-88455065D01*
X85090013Y-88552252D01*
X85317748Y-88779987D01*
X85585537Y-88958918D01*
X85641853Y-88982245D01*
X84584535Y-88982245D01*
X84720044Y-88909814D01*
X84815808Y-88645413D01*
X83860000Y-87689605D01*
X82904192Y-88645413D01*
X82999956Y-88909814D01*
X83148846Y-88982245D01*
X79330623Y-88982245D01*
X81275115Y-87037753D01*
X82315432Y-86954309D01*
X82237616Y-87251108D01*
%TA.AperFunction,Conductor*%
D17*
G36*
X82237616Y-87251108D02*
G01*
X82218282Y-87572595D01*
X82262039Y-87891675D01*
X82367205Y-88196088D01*
X82460186Y-88370044D01*
X82724587Y-88465808D01*
X83680395Y-87510000D01*
X83666253Y-87495858D01*
X83845858Y-87316253D01*
X83860000Y-87330395D01*
X83874143Y-87316253D01*
X84053748Y-87495858D01*
X84039605Y-87510000D01*
X84995413Y-88465808D01*
X85025075Y-88455065D01*
X85090013Y-88552252D01*
X85317748Y-88779987D01*
X85585537Y-88958918D01*
X85641853Y-88982245D01*
X84584535Y-88982245D01*
X84720044Y-88909814D01*
X84815808Y-88645413D01*
X83860000Y-87689605D01*
X82904192Y-88645413D01*
X82999956Y-88909814D01*
X83148846Y-88982245D01*
X79330623Y-88982245D01*
X81275115Y-87037753D01*
X82315432Y-86954309D01*
X82237616Y-87251108D01*
G37*
%TD.AperFunction*%
%TD*%
M02*
