%TF.GenerationSoftware,KiCad,Pcbnew,5.1.7-a382d34a8~87~ubuntu20.04.1*%
%TF.CreationDate,2020-10-16T18:55:23+02:00*%
%TF.ProjectId,3Channel-PiezoAmp,33436861-6e6e-4656-9c2d-5069657a6f41,rev?*%
%TF.SameCoordinates,Original*%
%TF.FileFunction,Legend,Top*%
%TF.FilePolarity,Positive*%
%FSLAX46Y46*%
G04 Gerber Fmt 4.6, Leading zero omitted, Abs format (unit mm)*
G04 Created by KiCad (PCBNEW 5.1.7-a382d34a8~87~ubuntu20.04.1) date 2020-10-16 18:55:23*
%MOMM*%
%LPD*%
G01*
G04 APERTURE LIST*
%ADD10C,0.200000*%
%ADD11C,0.120000*%
%ADD12C,0.150000*%
G04 APERTURE END LIST*
D10*
%TO.C,RV1*%
X56846068Y-80010000D02*
G75*
G03*
X56846068Y-80010000I-2236068J0D01*
G01*
X49610000Y-80010000D02*
X49610000Y-75010000D01*
X49610000Y-75010000D02*
X59610000Y-75010000D01*
X59610000Y-75010000D02*
X59610000Y-86010000D01*
X59610000Y-86010000D02*
X49610000Y-86010000D01*
X49610000Y-86010000D02*
X49610000Y-80010000D01*
%TO.C,RV2*%
X88596068Y-80010000D02*
G75*
G03*
X88596068Y-80010000I-2236068J0D01*
G01*
X81360000Y-80010000D02*
X81360000Y-75010000D01*
X81360000Y-75010000D02*
X91360000Y-75010000D01*
X91360000Y-75010000D02*
X91360000Y-86010000D01*
X91360000Y-86010000D02*
X81360000Y-86010000D01*
X81360000Y-86010000D02*
X81360000Y-80010000D01*
%TO.C,RV3*%
X120346068Y-80010000D02*
G75*
G03*
X120346068Y-80010000I-2236068J0D01*
G01*
X113110000Y-80010000D02*
X113110000Y-75010000D01*
X113110000Y-75010000D02*
X123110000Y-75010000D01*
X123110000Y-75010000D02*
X123110000Y-86010000D01*
X123110000Y-86010000D02*
X113110000Y-86010000D01*
X113110000Y-86010000D02*
X113110000Y-80010000D01*
D11*
%TO.C,BT1*%
X76090000Y-101130000D02*
X76690000Y-101130000D01*
X76090000Y-99530000D02*
X76090000Y-101130000D01*
X76690000Y-99530000D02*
X76090000Y-99530000D01*
X76090000Y-98590000D02*
X76690000Y-98590000D01*
X76090000Y-96990000D02*
X76090000Y-98590000D01*
X76690000Y-96990000D02*
X76090000Y-96990000D01*
X70670000Y-100080000D02*
X71670000Y-100080000D01*
X70670000Y-98040000D02*
X71670000Y-98040000D01*
X72200000Y-100080000D02*
X71670000Y-100330000D01*
X72200000Y-98040000D02*
X72200000Y-100080000D01*
X71670000Y-97790000D02*
X72200000Y-98040000D01*
X71670000Y-100330000D02*
X70670000Y-100330000D01*
X71670000Y-97790000D02*
X71670000Y-100330000D01*
X70670000Y-97790000D02*
X71670000Y-97790000D01*
X75660000Y-96120000D02*
X71660000Y-96120000D01*
X76690000Y-101710000D02*
X76690000Y-96410000D01*
X70670000Y-101710000D02*
X76690000Y-101710000D01*
X70670000Y-96410000D02*
X70670000Y-101710000D01*
X76690000Y-96410000D02*
X70670000Y-96410000D01*
%TO.C,LED1*%
X53650000Y-78150000D02*
X53650000Y-81010000D01*
X55570000Y-78150000D02*
X53650000Y-78150000D01*
X55570000Y-81010000D02*
X55570000Y-78150000D01*
%TO.C,LED2*%
X85400000Y-78150000D02*
X85400000Y-81010000D01*
X87320000Y-78150000D02*
X85400000Y-78150000D01*
X87320000Y-81010000D02*
X87320000Y-78150000D01*
%TO.C,LED3*%
X119070000Y-81010000D02*
X119070000Y-78150000D01*
X119070000Y-78150000D02*
X117150000Y-78150000D01*
X117150000Y-78150000D02*
X117150000Y-81010000D01*
%TO.C,R14*%
X53628936Y-70718000D02*
X55083064Y-70718000D01*
X53628936Y-72538000D02*
X55083064Y-72538000D01*
%TO.C,R15*%
X85632936Y-70718000D02*
X87087064Y-70718000D01*
X85632936Y-72538000D02*
X87087064Y-72538000D01*
%TO.C,R16*%
X117128936Y-72030000D02*
X118583064Y-72030000D01*
X117128936Y-70210000D02*
X118583064Y-70210000D01*
%TO.C,RV1*%
D12*
X60064761Y-70312380D02*
X59731428Y-69836190D01*
X59493333Y-70312380D02*
X59493333Y-69312380D01*
X59874285Y-69312380D01*
X59969523Y-69360000D01*
X60017142Y-69407619D01*
X60064761Y-69502857D01*
X60064761Y-69645714D01*
X60017142Y-69740952D01*
X59969523Y-69788571D01*
X59874285Y-69836190D01*
X59493333Y-69836190D01*
X60350476Y-69312380D02*
X60683809Y-70312380D01*
X61017142Y-69312380D01*
X61874285Y-70312380D02*
X61302857Y-70312380D01*
X61588571Y-70312380D02*
X61588571Y-69312380D01*
X61493333Y-69455238D01*
X61398095Y-69550476D01*
X61302857Y-69598095D01*
%TO.C,RV2*%
X91814761Y-70312380D02*
X91481428Y-69836190D01*
X91243333Y-70312380D02*
X91243333Y-69312380D01*
X91624285Y-69312380D01*
X91719523Y-69360000D01*
X91767142Y-69407619D01*
X91814761Y-69502857D01*
X91814761Y-69645714D01*
X91767142Y-69740952D01*
X91719523Y-69788571D01*
X91624285Y-69836190D01*
X91243333Y-69836190D01*
X92100476Y-69312380D02*
X92433809Y-70312380D01*
X92767142Y-69312380D01*
X93052857Y-69407619D02*
X93100476Y-69360000D01*
X93195714Y-69312380D01*
X93433809Y-69312380D01*
X93529047Y-69360000D01*
X93576666Y-69407619D01*
X93624285Y-69502857D01*
X93624285Y-69598095D01*
X93576666Y-69740952D01*
X93005238Y-70312380D01*
X93624285Y-70312380D01*
%TO.C,RV3*%
X123564761Y-70312380D02*
X123231428Y-69836190D01*
X122993333Y-70312380D02*
X122993333Y-69312380D01*
X123374285Y-69312380D01*
X123469523Y-69360000D01*
X123517142Y-69407619D01*
X123564761Y-69502857D01*
X123564761Y-69645714D01*
X123517142Y-69740952D01*
X123469523Y-69788571D01*
X123374285Y-69836190D01*
X122993333Y-69836190D01*
X123850476Y-69312380D02*
X124183809Y-70312380D01*
X124517142Y-69312380D01*
X124755238Y-69312380D02*
X125374285Y-69312380D01*
X125040952Y-69693333D01*
X125183809Y-69693333D01*
X125279047Y-69740952D01*
X125326666Y-69788571D01*
X125374285Y-69883809D01*
X125374285Y-70121904D01*
X125326666Y-70217142D01*
X125279047Y-70264761D01*
X125183809Y-70312380D01*
X124898095Y-70312380D01*
X124802857Y-70264761D01*
X124755238Y-70217142D01*
%TO.C,BT1*%
X77708571Y-99845714D02*
X77756190Y-99702857D01*
X77803809Y-99655238D01*
X77899047Y-99607619D01*
X78041904Y-99607619D01*
X78137142Y-99655238D01*
X78184761Y-99702857D01*
X78232380Y-99798095D01*
X78232380Y-100179047D01*
X77232380Y-100179047D01*
X77232380Y-99845714D01*
X77280000Y-99750476D01*
X77327619Y-99702857D01*
X77422857Y-99655238D01*
X77518095Y-99655238D01*
X77613333Y-99702857D01*
X77660952Y-99750476D01*
X77708571Y-99845714D01*
X77708571Y-100179047D01*
X77232380Y-99321904D02*
X77232380Y-98750476D01*
X78232380Y-99036190D02*
X77232380Y-99036190D01*
X78232380Y-97893333D02*
X78232380Y-98464761D01*
X78232380Y-98179047D02*
X77232380Y-98179047D01*
X77375238Y-98274285D01*
X77470476Y-98369523D01*
X77518095Y-98464761D01*
%TO.C,LED1*%
X56712380Y-81129047D02*
X56712380Y-81605238D01*
X55712380Y-81605238D01*
X56188571Y-80795714D02*
X56188571Y-80462380D01*
X56712380Y-80319523D02*
X56712380Y-80795714D01*
X55712380Y-80795714D01*
X55712380Y-80319523D01*
X56712380Y-79890952D02*
X55712380Y-79890952D01*
X55712380Y-79652857D01*
X55760000Y-79510000D01*
X55855238Y-79414761D01*
X55950476Y-79367142D01*
X56140952Y-79319523D01*
X56283809Y-79319523D01*
X56474285Y-79367142D01*
X56569523Y-79414761D01*
X56664761Y-79510000D01*
X56712380Y-79652857D01*
X56712380Y-79890952D01*
X56712380Y-78367142D02*
X56712380Y-78938571D01*
X56712380Y-78652857D02*
X55712380Y-78652857D01*
X55855238Y-78748095D01*
X55950476Y-78843333D01*
X55998095Y-78938571D01*
%TO.C,LED2*%
X88462380Y-81129047D02*
X88462380Y-81605238D01*
X87462380Y-81605238D01*
X87938571Y-80795714D02*
X87938571Y-80462380D01*
X88462380Y-80319523D02*
X88462380Y-80795714D01*
X87462380Y-80795714D01*
X87462380Y-80319523D01*
X88462380Y-79890952D02*
X87462380Y-79890952D01*
X87462380Y-79652857D01*
X87510000Y-79510000D01*
X87605238Y-79414761D01*
X87700476Y-79367142D01*
X87890952Y-79319523D01*
X88033809Y-79319523D01*
X88224285Y-79367142D01*
X88319523Y-79414761D01*
X88414761Y-79510000D01*
X88462380Y-79652857D01*
X88462380Y-79890952D01*
X87557619Y-78938571D02*
X87510000Y-78890952D01*
X87462380Y-78795714D01*
X87462380Y-78557619D01*
X87510000Y-78462380D01*
X87557619Y-78414761D01*
X87652857Y-78367142D01*
X87748095Y-78367142D01*
X87890952Y-78414761D01*
X88462380Y-78986190D01*
X88462380Y-78367142D01*
%TO.C,LED3*%
X120212380Y-81129047D02*
X120212380Y-81605238D01*
X119212380Y-81605238D01*
X119688571Y-80795714D02*
X119688571Y-80462380D01*
X120212380Y-80319523D02*
X120212380Y-80795714D01*
X119212380Y-80795714D01*
X119212380Y-80319523D01*
X120212380Y-79890952D02*
X119212380Y-79890952D01*
X119212380Y-79652857D01*
X119260000Y-79510000D01*
X119355238Y-79414761D01*
X119450476Y-79367142D01*
X119640952Y-79319523D01*
X119783809Y-79319523D01*
X119974285Y-79367142D01*
X120069523Y-79414761D01*
X120164761Y-79510000D01*
X120212380Y-79652857D01*
X120212380Y-79890952D01*
X119212380Y-78986190D02*
X119212380Y-78367142D01*
X119593333Y-78700476D01*
X119593333Y-78557619D01*
X119640952Y-78462380D01*
X119688571Y-78414761D01*
X119783809Y-78367142D01*
X120021904Y-78367142D01*
X120117142Y-78414761D01*
X120164761Y-78462380D01*
X120212380Y-78557619D01*
X120212380Y-78843333D01*
X120164761Y-78938571D01*
X120117142Y-78986190D01*
%TO.C,R14*%
X53713142Y-70260380D02*
X53379809Y-69784190D01*
X53141714Y-70260380D02*
X53141714Y-69260380D01*
X53522666Y-69260380D01*
X53617904Y-69308000D01*
X53665523Y-69355619D01*
X53713142Y-69450857D01*
X53713142Y-69593714D01*
X53665523Y-69688952D01*
X53617904Y-69736571D01*
X53522666Y-69784190D01*
X53141714Y-69784190D01*
X54665523Y-70260380D02*
X54094095Y-70260380D01*
X54379809Y-70260380D02*
X54379809Y-69260380D01*
X54284571Y-69403238D01*
X54189333Y-69498476D01*
X54094095Y-69546095D01*
X55522666Y-69593714D02*
X55522666Y-70260380D01*
X55284571Y-69212761D02*
X55046476Y-69927047D01*
X55665523Y-69927047D01*
%TO.C,R15*%
X85717142Y-70260380D02*
X85383809Y-69784190D01*
X85145714Y-70260380D02*
X85145714Y-69260380D01*
X85526666Y-69260380D01*
X85621904Y-69308000D01*
X85669523Y-69355619D01*
X85717142Y-69450857D01*
X85717142Y-69593714D01*
X85669523Y-69688952D01*
X85621904Y-69736571D01*
X85526666Y-69784190D01*
X85145714Y-69784190D01*
X86669523Y-70260380D02*
X86098095Y-70260380D01*
X86383809Y-70260380D02*
X86383809Y-69260380D01*
X86288571Y-69403238D01*
X86193333Y-69498476D01*
X86098095Y-69546095D01*
X87574285Y-69260380D02*
X87098095Y-69260380D01*
X87050476Y-69736571D01*
X87098095Y-69688952D01*
X87193333Y-69641333D01*
X87431428Y-69641333D01*
X87526666Y-69688952D01*
X87574285Y-69736571D01*
X87621904Y-69831809D01*
X87621904Y-70069904D01*
X87574285Y-70165142D01*
X87526666Y-70212761D01*
X87431428Y-70260380D01*
X87193333Y-70260380D01*
X87098095Y-70212761D01*
X87050476Y-70165142D01*
%TO.C,R16*%
X117213142Y-69752380D02*
X116879809Y-69276190D01*
X116641714Y-69752380D02*
X116641714Y-68752380D01*
X117022666Y-68752380D01*
X117117904Y-68800000D01*
X117165523Y-68847619D01*
X117213142Y-68942857D01*
X117213142Y-69085714D01*
X117165523Y-69180952D01*
X117117904Y-69228571D01*
X117022666Y-69276190D01*
X116641714Y-69276190D01*
X118165523Y-69752380D02*
X117594095Y-69752380D01*
X117879809Y-69752380D02*
X117879809Y-68752380D01*
X117784571Y-68895238D01*
X117689333Y-68990476D01*
X117594095Y-69038095D01*
X119022666Y-68752380D02*
X118832190Y-68752380D01*
X118736952Y-68800000D01*
X118689333Y-68847619D01*
X118594095Y-68990476D01*
X118546476Y-69180952D01*
X118546476Y-69561904D01*
X118594095Y-69657142D01*
X118641714Y-69704761D01*
X118736952Y-69752380D01*
X118927428Y-69752380D01*
X119022666Y-69704761D01*
X119070285Y-69657142D01*
X119117904Y-69561904D01*
X119117904Y-69323809D01*
X119070285Y-69228571D01*
X119022666Y-69180952D01*
X118927428Y-69133333D01*
X118736952Y-69133333D01*
X118641714Y-69180952D01*
X118594095Y-69228571D01*
X118546476Y-69323809D01*
%TD*%
M02*
