M48
; DRILL file {KiCad 5.1.7-a382d34a8~87~ubuntu20.04.1} date Fri Oct 16 18:55:28 2020
; FORMAT={-:-/ absolute / inch / decimal}
; #@! TF.CreationDate,2020-10-16T18:55:28+02:00
; #@! TF.GenerationSoftware,Kicad,Pcbnew,5.1.7-a382d34a8~87~ubuntu20.04.1
; #@! TF.FileFunction,Plated,1,2,PTH
FMAT,2
INCH
T1C0.0315
T2C0.0394
T3C0.0469
T4C0.0630
%
G90
G05
T1
X1.78Y-2.7
X2.4Y-4.0
X2.46Y-2.7
X2.48Y-3.1
X2.76Y-3.44
X2.76Y-3.52
X2.8415Y-2.8985
X3.0Y-3.44
X3.16Y-2.96
X3.2Y-2.7
X3.66Y-3.0
X3.68Y-3.44
X3.76Y-3.44
X3.9Y-2.7492
X4.9Y-2.4
T2
X2.0516Y-3.4453
X2.15Y-3.4453
X2.2484Y-3.4453
X4.5516Y-3.4453
X4.65Y-3.4453
X4.7484Y-3.4453
X3.3016Y-3.4453
X3.4Y-3.4453
X3.4984Y-3.4453
T3
X2.9Y-3.85
X2.9Y-3.95
T4
G00X1.961Y-3.1382
M15
G01X1.961Y-3.1618
M16
G05
G00X2.339Y-3.1382
M15
G01X2.339Y-3.1618
M16
G05
G00X4.461Y-3.1382
M15
G01X4.461Y-3.1618
M16
G05
G00X4.839Y-3.1382
M15
G01X4.839Y-3.1618
M16
G05
G00X3.211Y-3.1382
M15
G01X3.211Y-3.1618
M16
G05
G00X3.589Y-3.1382
M15
G01X3.589Y-3.1618
M16
G05
T0
M30
