  0
SECTION
  2
HEADER
  9
$ACADVER
  1
AC1014
  9
$HANDSEED
  5
FFFF
  9
$MEASUREMENT
 70
     1
  0
ENDSEC
  0
SECTION
  2
TABLES
  0
TABLE
  2
VPORT
  5
8
330
0
100
AcDbSymbolTable
 70
     4
  0
VPORT
  5
2E
330
8
100
AcDbSymbolTableRecord
100
AcDbViewportTableRecord
  2
*ACTIVE
 70
     0
 10
0.0
 20
0.0
 11
1.0
 21
1.0
 12
210.0
 22
148.5
 13
0.0
 23
0.0
 14
10.0
 24
10.0
 15
10.0
 25
10.0
 16
0.0
 26
0.0
 36
1.0
 17
0.0
 27
0.0
 37
0.0
 40
341.0
 41
1.24
 42
50.0
 43
0.0
 44
0.0
 50
0.0
 51
0.0
 71
     0
 72
   100
 73
     1
 74
     3
 75
     0
 76
     0
 77
     0
 78
     0
  0
ENDTAB
  0
TABLE
  2
LTYPE
  5
5
330
0
100
AcDbSymbolTable
 70
     1
  0
LTYPE
  5
14
330
5
100
AcDbSymbolTableRecord
100
AcDbLinetypeTableRecord
  2
BYBLOCK
 70
     0
  3

 72
    65
 73
     0
 40
0.0
  0
LTYPE
  5
15
330
5
100
AcDbSymbolTableRecord
100
AcDbLinetypeTableRecord
  2
BYLAYER
 70
     0
  3

 72
    65
 73
     0
 40
0.0
  0
LTYPE
  5
16
330
5
100
AcDbSymbolTableRecord
100
AcDbLinetypeTableRecord
  2
CONTINUOUS
 70
     0
  3
Solid line
 72
    65
 73
     0
 40
0.0
  0
ENDTAB
  0
TABLE
  2
LAYER
  5
2
100
AcDbSymbolTable
 70
2
  0
LAYER
  5
50
100
AcDbSymbolTableRecord
100
AcDbLayerTableRecord
  2
0
 70
0
  6
CONTINUOUS
  0
LAYER
  5
51
100
AcDbSymbolTableRecord
100
AcDbLayerTableRecord
  2
visible
 70
0
  6
CONTINUOUS
  0
ENDTAB
  0
TABLE
  2
STYLE
  5
3
330
0
100
AcDbSymbolTable
 70
     1
  0
STYLE
  5
11
330
3
100
AcDbSymbolTableRecord
100
AcDbTextStyleTableRecord
  2
STANDARD
 70
     0
 40
0.0
 41
1.0
 50
0.0
 71
     0
 42
2.5
  3
txt
  4

  0
ENDTAB
  0
TABLE
  2
VIEW
  5
6
330
0
100
AcDbSymbolTable
 70
     0
  0
ENDTAB
  0
TABLE
  2
UCS
  5
7
330
0
100
AcDbSymbolTable
 70
     0
  0
ENDTAB
  0
TABLE
  2
APPID
  5
9
330
0
100
AcDbSymbolTable
 70
     2
  0
APPID
  5
12
330
9
100
AcDbSymbolTableRecord
100
AcDbRegAppTableRecord
  2
ACAD
 70
     0
  0
ENDTAB
  0
TABLE
  2
DIMSTYLE
  5
A
330
0
100
AcDbSymbolTable
 70
     1
  0
DIMSTYLE
105
27
330
A
100
AcDbSymbolTableRecord
100
AcDbDimStyleTableRecord
  2
ISO-25
 70
     0
  3

  4

  5

  6

  7

 40
1.0
 41
2.5
 42
0.625
 43
3.75
 44
1.25
 45
0.0
 46
0.0
 47
0.0
 48
0.0
140
2.5
141
2.5
142
0.0
143
0.03937007874016
144
1.0
145
0.0
146
1.0
147
0.625
 71
     0
 72
     0
 73
     0
 74
     0
 75
     0
 76
     0
 77
     1
 78
     8
170
     0
171
     3
172
     1
173
     0
174
     0
175
     0
176
     0
177
     0
178
     0
270
     2
271
     2
272
     2
273
     2
274
     3
340
11
275
     0
280
     0
281
     0
282
     0
283
     0
284
     8
285
     0
286
     0
287
     3
288
     0
  0
ENDTAB
  0
TABLE
  2
BLOCK_RECORD
  5
1
330
0
100
AcDbSymbolTable
 70
     1
  0
BLOCK_RECORD
  5
1F
330
1
100
AcDbSymbolTableRecord
100
AcDbBlockTableRecord
  2
*MODEL_SPACE
  0
BLOCK_RECORD
  5
1B
330
1
100
AcDbSymbolTableRecord
100
AcDbBlockTableRecord
  2
*PAPER_SPACE
  0
ENDTAB
  0
ENDSEC
  0
SECTION
  2
BLOCKS
  0
BLOCK
  5
20
330
1F
100
AcDbEntity
  8
0
100
AcDbBlockBegin
  2
*MODEL_SPACE
 70
     0
 10
0.0
 20
0.0
 30
0.0
  3
*MODEL_SPACE
  1

  0
ENDBLK
  5
21
330
1F
100
AcDbEntity
  8
0
100
AcDbBlockEnd
  0
BLOCK
  5
1C
330
1B
100
AcDbEntity
 67
     1
  8
0
100
AcDbBlockBegin
  2
*PAPER_SPACE
  1

  0
ENDBLK
  5
1D
330
1B
100
AcDbEntity
 67
     1
  8
0
100
AcDbBlockEnd
  0
ENDSEC
  0
SECTION
  2
ENTITIES
  0
LWPOLYLINE
  5
100
100
AcDbEntity
  8
visible
 62
7
100
AcDbPolyline
 90
7
 70
1
 10
31.287495
 20
180.462928
 30
0.0
 10
31.287495
 20
144.915229
 30
0.0
 10
81.287545
 20
144.915229
 30
0.0
 10
81.287545
 20
126.915294
 30
0.0
 10
122.835396
 20
126.915294
 30
0.0
 10
122.835396
 20
180.462928
 30
0.0
 10
31.287495
 20
180.462928
 30
0.0
  0
SPLINE
  5
101
100
AcDbEntity
  8
visible
 62
1
100
AcDbSpline
 70
8
 71
3
 72
8
 73
4
 74
0
 40
0
 40
0
 40
0
 40
0
 40
1
 40
1
 40
1
 40
1
 10
107.843979
 20
180.090030
 30
0.0
 10
108.119510
 20
180.090030
 30
0.0
 10
108.383757
 20
179.980576
 30
0.0
 10
108.578587
 20
179.785746
 30
0.0
  0
SPLINE
  5
102
100
AcDbEntity
  8
visible
 62
1
100
AcDbSpline
 70
8
 71
3
 72
8
 73
4
 74
0
 40
0
 40
0
 40
0
 40
0
 40
1
 40
1
 40
1
 40
1
 10
108.578587
 20
179.785746
 30
0.0
 10
108.773417
 20
179.590916
 30
0.0
 10
108.882871
 20
179.326670
 30
0.0
 10
108.882871
 20
179.051138
 30
0.0
  0
LWPOLYLINE
  5
103
100
AcDbEntity
  8
visible
 62
1
100
AcDbPolyline
 90
2
 70
0
 10
102.186171
 20
180.090030
 30
0.0
 10
107.843979
 20
180.090030
 30
0.0
  0
SPLINE
  5
104
100
AcDbEntity
  8
visible
 62
1
100
AcDbSpline
 70
8
 71
3
 72
8
 73
4
 74
0
 40
0
 40
0
 40
0
 40
0
 40
1
 40
1
 40
1
 40
1
 10
108.882871
 20
178.626137
 30
0.0
 10
108.882871
 20
178.350606
 30
0.0
 10
108.773417
 20
178.086360
 30
0.0
 10
108.578587
 20
177.891530
 30
0.0
  0
SPLINE
  5
105
100
AcDbEntity
  8
visible
 62
1
100
AcDbSpline
 70
8
 71
3
 72
8
 73
4
 74
0
 40
0
 40
0
 40
0
 40
0
 40
1
 40
1
 40
1
 40
1
 10
108.578587
 20
177.891530
 30
0.0
 10
108.383757
 20
177.696700
 30
0.0
 10
108.119510
 20
177.587245
 30
0.0
 10
107.843979
 20
177.587245
 30
0.0
  0
LWPOLYLINE
  5
106
100
AcDbEntity
  8
visible
 62
1
100
AcDbPolyline
 90
2
 70
0
 10
108.882871
 20
179.051138
 30
0.0
 10
108.882871
 20
178.626137
 30
0.0
  0
SPLINE
  5
107
100
AcDbEntity
  8
visible
 62
1
100
AcDbSpline
 70
8
 71
3
 72
8
 73
4
 74
0
 40
0
 40
0
 40
0
 40
0
 40
1
 40
1
 40
1
 40
1
 10
102.186171
 20
177.587245
 30
0.0
 10
101.910639
 20
177.587245
 30
0.0
 10
101.646393
 20
177.696700
 30
0.0
 10
101.451563
 20
177.891530
 30
0.0
  0
SPLINE
  5
108
100
AcDbEntity
  8
visible
 62
1
100
AcDbSpline
 70
8
 71
3
 72
8
 73
4
 74
0
 40
0
 40
0
 40
0
 40
0
 40
1
 40
1
 40
1
 40
1
 10
101.451563
 20
177.891530
 30
0.0
 10
101.256733
 20
178.086360
 30
0.0
 10
101.147279
 20
178.350606
 30
0.0
 10
101.147279
 20
178.626137
 30
0.0
  0
LWPOLYLINE
  5
109
100
AcDbEntity
  8
visible
 62
1
100
AcDbPolyline
 90
2
 70
0
 10
107.843979
 20
177.587245
 30
0.0
 10
102.186171
 20
177.587245
 30
0.0
  0
SPLINE
  5
10a
100
AcDbEntity
  8
visible
 62
1
100
AcDbSpline
 70
8
 71
3
 72
8
 73
4
 74
0
 40
0
 40
0
 40
0
 40
0
 40
1
 40
1
 40
1
 40
1
 10
101.147279
 20
179.051138
 30
0.0
 10
101.147279
 20
179.326670
 30
0.0
 10
101.256733
 20
179.590916
 30
0.0
 10
101.451563
 20
179.785746
 30
0.0
  0
SPLINE
  5
10b
100
AcDbEntity
  8
visible
 62
1
100
AcDbSpline
 70
8
 71
3
 72
8
 73
4
 74
0
 40
0
 40
0
 40
0
 40
0
 40
1
 40
1
 40
1
 40
1
 10
101.451563
 20
179.785746
 30
0.0
 10
101.646393
 20
179.980576
 30
0.0
 10
101.910639
 20
180.090030
 30
0.0
 10
102.186171
 20
180.090030
 30
0.0
  0
LWPOLYLINE
  5
10c
100
AcDbEntity
  8
visible
 62
1
100
AcDbPolyline
 90
2
 70
0
 10
101.147279
 20
178.626137
 30
0.0
 10
101.147279
 20
179.051138
 30
0.0
  0
LWPOLYLINE
  5
10d
100
AcDbEntity
  8
visible
 62
1
100
AcDbPolyline
 90
1
 70
1
 10
102.186171
 20
180.090030
 30
0.0
  0
SPLINE
  5
10e
100
AcDbEntity
  8
visible
 62
1
100
AcDbSpline
 70
8
 71
3
 72
8
 73
4
 74
0
 40
0
 40
0
 40
0
 40
0
 40
1
 40
1
 40
1
 40
1
 10
118.857983
 20
180.090030
 30
0.0
 10
119.133515
 20
180.090030
 30
0.0
 10
119.397761
 20
179.980576
 30
0.0
 10
119.592591
 20
179.785746
 30
0.0
  0
SPLINE
  5
10f
100
AcDbEntity
  8
visible
 62
1
100
AcDbSpline
 70
8
 71
3
 72
8
 73
4
 74
0
 40
0
 40
0
 40
0
 40
0
 40
1
 40
1
 40
1
 40
1
 10
119.592591
 20
179.785746
 30
0.0
 10
119.787421
 20
179.590916
 30
0.0
 10
119.896875
 20
179.326670
 30
0.0
 10
119.896875
 20
179.051138
 30
0.0
  0
LWPOLYLINE
  5
110
100
AcDbEntity
  8
visible
 62
1
100
AcDbPolyline
 90
2
 70
0
 10
113.190070
 20
180.090030
 30
0.0
 10
118.857983
 20
180.090030
 30
0.0
  0
SPLINE
  5
111
100
AcDbEntity
  8
visible
 62
1
100
AcDbSpline
 70
8
 71
3
 72
8
 73
4
 74
0
 40
0
 40
0
 40
0
 40
0
 40
1
 40
1
 40
1
 40
1
 10
119.896875
 20
178.626137
 30
0.0
 10
119.896875
 20
178.350606
 30
0.0
 10
119.787421
 20
178.086360
 30
0.0
 10
119.592591
 20
177.891530
 30
0.0
  0
SPLINE
  5
112
100
AcDbEntity
  8
visible
 62
1
100
AcDbSpline
 70
8
 71
3
 72
8
 73
4
 74
0
 40
0
 40
0
 40
0
 40
0
 40
1
 40
1
 40
1
 40
1
 10
119.592591
 20
177.891530
 30
0.0
 10
119.397761
 20
177.696700
 30
0.0
 10
119.133515
 20
177.587245
 30
0.0
 10
118.857983
 20
177.587245
 30
0.0
  0
LWPOLYLINE
  5
113
100
AcDbEntity
  8
visible
 62
1
100
AcDbPolyline
 90
2
 70
0
 10
119.896875
 20
179.051138
 30
0.0
 10
119.896875
 20
178.626137
 30
0.0
  0
SPLINE
  5
114
100
AcDbEntity
  8
visible
 62
1
100
AcDbSpline
 70
8
 71
3
 72
8
 73
4
 74
0
 40
0
 40
0
 40
0
 40
0
 40
1
 40
1
 40
1
 40
1
 10
113.190070
 20
177.587245
 30
0.0
 10
112.914538
 20
177.587245
 30
0.0
 10
112.650292
 20
177.696700
 30
0.0
 10
112.455462
 20
177.891530
 30
0.0
  0
SPLINE
  5
115
100
AcDbEntity
  8
visible
 62
1
100
AcDbSpline
 70
8
 71
3
 72
8
 73
4
 74
0
 40
0
 40
0
 40
0
 40
0
 40
1
 40
1
 40
1
 40
1
 10
112.455462
 20
177.891530
 30
0.0
 10
112.260632
 20
178.086360
 30
0.0
 10
112.151178
 20
178.350606
 30
0.0
 10
112.151178
 20
178.626137
 30
0.0
  0
LWPOLYLINE
  5
116
100
AcDbEntity
  8
visible
 62
1
100
AcDbPolyline
 90
2
 70
0
 10
118.857983
 20
177.587245
 30
0.0
 10
113.190070
 20
177.587245
 30
0.0
  0
SPLINE
  5
117
100
AcDbEntity
  8
visible
 62
1
100
AcDbSpline
 70
8
 71
3
 72
8
 73
4
 74
0
 40
0
 40
0
 40
0
 40
0
 40
1
 40
1
 40
1
 40
1
 10
112.151178
 20
179.051138
 30
0.0
 10
112.151178
 20
179.326670
 30
0.0
 10
112.260632
 20
179.590916
 30
0.0
 10
112.455462
 20
179.785746
 30
0.0
  0
SPLINE
  5
118
100
AcDbEntity
  8
visible
 62
1
100
AcDbSpline
 70
8
 71
3
 72
8
 73
4
 74
0
 40
0
 40
0
 40
0
 40
0
 40
1
 40
1
 40
1
 40
1
 10
112.455462
 20
179.785746
 30
0.0
 10
112.650292
 20
179.980576
 30
0.0
 10
112.914538
 20
180.090030
 30
0.0
 10
113.190070
 20
180.090030
 30
0.0
  0
LWPOLYLINE
  5
119
100
AcDbEntity
  8
visible
 62
1
100
AcDbPolyline
 90
2
 70
0
 10
112.151178
 20
178.626137
 30
0.0
 10
112.151178
 20
179.051138
 30
0.0
  0
LWPOLYLINE
  5
11a
100
AcDbEntity
  8
visible
 62
1
100
AcDbPolyline
 90
1
 70
1
 10
113.190070
 20
180.090030
 30
0.0
  0
SPLINE
  5
11b
100
AcDbEntity
  8
visible
 62
1
100
AcDbSpline
 70
8
 71
3
 72
8
 73
4
 74
0
 40
0
 40
0
 40
0
 40
0
 40
1
 40
1
 40
1
 40
1
 10
115.598575
 20
176.804740
 30
0.0
 10
115.884038
 20
176.804740
 30
0.0
 10
116.157809
 20
176.691340
 30
0.0
 10
116.359662
 20
176.489487
 30
0.0
  0
SPLINE
  5
11c
100
AcDbEntity
  8
visible
 62
1
100
AcDbSpline
 70
8
 71
3
 72
8
 73
4
 74
0
 40
0
 40
0
 40
0
 40
0
 40
1
 40
1
 40
1
 40
1
 10
116.359662
 20
176.489487
 30
0.0
 10
116.561515
 20
176.287635
 30
0.0
 10
116.674914
 20
176.013863
 30
0.0
 10
116.674914
 20
175.728400
 30
0.0
  0
LWPOLYLINE
  5
11d
100
AcDbEntity
  8
visible
 62
1
100
AcDbPolyline
 90
2
 70
0
 10
113.227518
 20
176.804740
 30
0.0
 10
115.598575
 20
176.804740
 30
0.0
  0
SPLINE
  5
11e
100
AcDbEntity
  8
visible
 62
1
100
AcDbSpline
 70
8
 71
3
 72
8
 73
4
 74
0
 40
0
 40
0
 40
0
 40
0
 40
1
 40
1
 40
1
 40
1
 10
116.674914
 20
175.288079
 30
0.0
 10
116.674914
 20
175.002616
 30
0.0
 10
116.561515
 20
174.728845
 30
0.0
 10
116.359662
 20
174.526992
 30
0.0
  0
SPLINE
  5
11f
100
AcDbEntity
  8
visible
 62
1
100
AcDbSpline
 70
8
 71
3
 72
8
 73
4
 74
0
 40
0
 40
0
 40
0
 40
0
 40
1
 40
1
 40
1
 40
1
 10
116.359662
 20
174.526992
 30
0.0
 10
116.157809
 20
174.325140
 30
0.0
 10
115.884038
 20
174.211740
 30
0.0
 10
115.598575
 20
174.211740
 30
0.0
  0
LWPOLYLINE
  5
120
100
AcDbEntity
  8
visible
 62
1
100
AcDbPolyline
 90
2
 70
0
 10
116.674914
 20
175.728400
 30
0.0
 10
116.674914
 20
175.288079
 30
0.0
  0
SPLINE
  5
121
100
AcDbEntity
  8
visible
 62
1
100
AcDbSpline
 70
8
 71
3
 72
8
 73
4
 74
0
 40
0
 40
0
 40
0
 40
0
 40
1
 40
1
 40
1
 40
1
 10
113.227518
 20
174.211740
 30
0.0
 10
112.942055
 20
174.211740
 30
0.0
 10
112.668283
 20
174.325140
 30
0.0
 10
112.466431
 20
174.526992
 30
0.0
  0
SPLINE
  5
122
100
AcDbEntity
  8
visible
 62
1
100
AcDbSpline
 70
8
 71
3
 72
8
 73
4
 74
0
 40
0
 40
0
 40
0
 40
0
 40
1
 40
1
 40
1
 40
1
 10
112.466431
 20
174.526992
 30
0.0
 10
112.264578
 20
174.728845
 30
0.0
 10
112.151178
 20
175.002616
 30
0.0
 10
112.151178
 20
175.288079
 30
0.0
  0
LWPOLYLINE
  5
123
100
AcDbEntity
  8
visible
 62
1
100
AcDbPolyline
 90
2
 70
0
 10
115.598575
 20
174.211740
 30
0.0
 10
113.227518
 20
174.211740
 30
0.0
  0
SPLINE
  5
124
100
AcDbEntity
  8
visible
 62
1
100
AcDbSpline
 70
8
 71
3
 72
8
 73
4
 74
0
 40
0
 40
0
 40
0
 40
0
 40
1
 40
1
 40
1
 40
1
 10
112.151178
 20
175.728400
 30
0.0
 10
112.151178
 20
176.013863
 30
0.0
 10
112.264578
 20
176.287635
 30
0.0
 10
112.466431
 20
176.489487
 30
0.0
  0
SPLINE
  5
125
100
AcDbEntity
  8
visible
 62
1
100
AcDbSpline
 70
8
 71
3
 72
8
 73
4
 74
0
 40
0
 40
0
 40
0
 40
0
 40
1
 40
1
 40
1
 40
1
 10
112.466431
 20
176.489487
 30
0.0
 10
112.668283
 20
176.691340
 30
0.0
 10
112.942055
 20
176.804740
 30
0.0
 10
113.227518
 20
176.804740
 30
0.0
  0
LWPOLYLINE
  5
126
100
AcDbEntity
  8
visible
 62
1
100
AcDbPolyline
 90
2
 70
0
 10
112.151178
 20
175.288079
 30
0.0
 10
112.151178
 20
175.728400
 30
0.0
  0
LWPOLYLINE
  5
127
100
AcDbEntity
  8
visible
 62
1
100
AcDbPolyline
 90
1
 70
1
 10
113.227518
 20
176.804740
 30
0.0
  0
SPLINE
  5
128
100
AcDbEntity
  8
visible
 62
1
100
AcDbSpline
 70
8
 71
3
 72
8
 73
4
 74
0
 40
0
 40
0
 40
0
 40
0
 40
1
 40
1
 40
1
 40
1
 10
115.598575
 20
173.329870
 30
0.0
 10
115.884038
 20
173.329870
 30
0.0
 10
116.157809
 20
173.216470
 30
0.0
 10
116.359662
 20
173.014617
 30
0.0
  0
SPLINE
  5
129
100
AcDbEntity
  8
visible
 62
1
100
AcDbSpline
 70
8
 71
3
 72
8
 73
4
 74
0
 40
0
 40
0
 40
0
 40
0
 40
1
 40
1
 40
1
 40
1
 10
116.359662
 20
173.014617
 30
0.0
 10
116.561515
 20
172.812765
 30
0.0
 10
116.674914
 20
172.538993
 30
0.0
 10
116.674914
 20
172.253531
 30
0.0
  0
LWPOLYLINE
  5
12a
100
AcDbEntity
  8
visible
 62
1
100
AcDbPolyline
 90
2
 70
0
 10
113.227518
 20
173.329870
 30
0.0
 10
115.598575
 20
173.329870
 30
0.0
  0
SPLINE
  5
12b
100
AcDbEntity
  8
visible
 62
1
100
AcDbSpline
 70
8
 71
3
 72
8
 73
4
 74
0
 40
0
 40
0
 40
0
 40
0
 40
1
 40
1
 40
1
 40
1
 10
116.674914
 20
171.813209
 30
0.0
 10
116.674914
 20
171.527746
 30
0.0
 10
116.561515
 20
171.253975
 30
0.0
 10
116.359662
 20
171.052122
 30
0.0
  0
SPLINE
  5
12c
100
AcDbEntity
  8
visible
 62
1
100
AcDbSpline
 70
8
 71
3
 72
8
 73
4
 74
0
 40
0
 40
0
 40
0
 40
0
 40
1
 40
1
 40
1
 40
1
 10
116.359662
 20
171.052122
 30
0.0
 10
116.157809
 20
170.850270
 30
0.0
 10
115.884038
 20
170.736870
 30
0.0
 10
115.598575
 20
170.736870
 30
0.0
  0
LWPOLYLINE
  5
12d
100
AcDbEntity
  8
visible
 62
1
100
AcDbPolyline
 90
2
 70
0
 10
116.674914
 20
172.253531
 30
0.0
 10
116.674914
 20
171.813209
 30
0.0
  0
SPLINE
  5
12e
100
AcDbEntity
  8
visible
 62
1
100
AcDbSpline
 70
8
 71
3
 72
8
 73
4
 74
0
 40
0
 40
0
 40
0
 40
0
 40
1
 40
1
 40
1
 40
1
 10
113.227518
 20
170.736870
 30
0.0
 10
112.942055
 20
170.736870
 30
0.0
 10
112.668283
 20
170.850270
 30
0.0
 10
112.466431
 20
171.052122
 30
0.0
  0
SPLINE
  5
12f
100
AcDbEntity
  8
visible
 62
1
100
AcDbSpline
 70
8
 71
3
 72
8
 73
4
 74
0
 40
0
 40
0
 40
0
 40
0
 40
1
 40
1
 40
1
 40
1
 10
112.466431
 20
171.052122
 30
0.0
 10
112.264578
 20
171.253975
 30
0.0
 10
112.151178
 20
171.527746
 30
0.0
 10
112.151178
 20
171.813209
 30
0.0
  0
LWPOLYLINE
  5
130
100
AcDbEntity
  8
visible
 62
1
100
AcDbPolyline
 90
2
 70
0
 10
115.598575
 20
170.736870
 30
0.0
 10
113.227518
 20
170.736870
 30
0.0
  0
SPLINE
  5
131
100
AcDbEntity
  8
visible
 62
1
100
AcDbSpline
 70
8
 71
3
 72
8
 73
4
 74
0
 40
0
 40
0
 40
0
 40
0
 40
1
 40
1
 40
1
 40
1
 10
112.151178
 20
172.253531
 30
0.0
 10
112.151178
 20
172.538993
 30
0.0
 10
112.264578
 20
172.812765
 30
0.0
 10
112.466431
 20
173.014617
 30
0.0
  0
SPLINE
  5
132
100
AcDbEntity
  8
visible
 62
1
100
AcDbSpline
 70
8
 71
3
 72
8
 73
4
 74
0
 40
0
 40
0
 40
0
 40
0
 40
1
 40
1
 40
1
 40
1
 10
112.466431
 20
173.014617
 30
0.0
 10
112.668283
 20
173.216470
 30
0.0
 10
112.942055
 20
173.329870
 30
0.0
 10
113.227518
 20
173.329870
 30
0.0
  0
LWPOLYLINE
  5
133
100
AcDbEntity
  8
visible
 62
1
100
AcDbPolyline
 90
2
 70
0
 10
112.151178
 20
171.813209
 30
0.0
 10
112.151178
 20
172.253531
 30
0.0
  0
LWPOLYLINE
  5
134
100
AcDbEntity
  8
visible
 62
1
100
AcDbPolyline
 90
1
 70
1
 10
113.227518
 20
173.329870
 30
0.0
  0
SPLINE
  5
135
100
AcDbEntity
  8
visible
 62
1
100
AcDbSpline
 70
8
 71
3
 72
8
 73
4
 74
0
 40
0
 40
0
 40
0
 40
0
 40
1
 40
1
 40
1
 40
1
 10
107.896785
 20
176.804740
 30
0.0
 10
108.158323
 20
176.804740
 30
0.0
 10
108.409150
 20
176.691340
 30
0.0
 10
108.594085
 20
176.489487
 30
0.0
  0
SPLINE
  5
136
100
AcDbEntity
  8
visible
 62
1
100
AcDbSpline
 70
8
 71
3
 72
8
 73
4
 74
0
 40
0
 40
0
 40
0
 40
0
 40
1
 40
1
 40
1
 40
1
 10
108.594085
 20
176.489487
 30
0.0
 10
108.779021
 20
176.287635
 30
0.0
 10
108.882916
 20
176.013863
 30
0.0
 10
108.882916
 20
175.728400
 30
0.0
  0
LWPOLYLINE
  5
137
100
AcDbEntity
  8
visible
 62
1
100
AcDbPolyline
 90
2
 70
0
 10
105.724446
 20
176.804740
 30
0.0
 10
107.896785
 20
176.804740
 30
0.0
  0
SPLINE
  5
138
100
AcDbEntity
  8
visible
 62
1
100
AcDbSpline
 70
8
 71
3
 72
8
 73
4
 74
0
 40
0
 40
0
 40
0
 40
0
 40
1
 40
1
 40
1
 40
1
 10
108.882916
 20
175.288079
 30
0.0
 10
108.882916
 20
175.002616
 30
0.0
 10
108.779021
 20
174.728845
 30
0.0
 10
108.594085
 20
174.526992
 30
0.0
  0
SPLINE
  5
139
100
AcDbEntity
  8
visible
 62
1
100
AcDbSpline
 70
8
 71
3
 72
8
 73
4
 74
0
 40
0
 40
0
 40
0
 40
0
 40
1
 40
1
 40
1
 40
1
 10
108.594085
 20
174.526992
 30
0.0
 10
108.409150
 20
174.325140
 30
0.0
 10
108.158323
 20
174.211740
 30
0.0
 10
107.896785
 20
174.211740
 30
0.0
  0
LWPOLYLINE
  5
13a
100
AcDbEntity
  8
visible
 62
1
100
AcDbPolyline
 90
2
 70
0
 10
108.882916
 20
175.728400
 30
0.0
 10
108.882916
 20
175.288079
 30
0.0
  0
SPLINE
  5
13b
100
AcDbEntity
  8
visible
 62
1
100
AcDbSpline
 70
8
 71
3
 72
8
 73
4
 74
0
 40
0
 40
0
 40
0
 40
0
 40
1
 40
1
 40
1
 40
1
 10
105.724446
 20
174.211740
 30
0.0
 10
105.462907
 20
174.211740
 30
0.0
 10
105.212081
 20
174.325140
 30
0.0
 10
105.027145
 20
174.526992
 30
0.0
  0
SPLINE
  5
13c
100
AcDbEntity
  8
visible
 62
1
100
AcDbSpline
 70
8
 71
3
 72
8
 73
4
 74
0
 40
0
 40
0
 40
0
 40
0
 40
1
 40
1
 40
1
 40
1
 10
105.027145
 20
174.526992
 30
0.0
 10
104.842210
 20
174.728845
 30
0.0
 10
104.738314
 20
175.002616
 30
0.0
 10
104.738314
 20
175.288079
 30
0.0
  0
LWPOLYLINE
  5
13d
100
AcDbEntity
  8
visible
 62
1
100
AcDbPolyline
 90
2
 70
0
 10
107.896785
 20
174.211740
 30
0.0
 10
105.724446
 20
174.211740
 30
0.0
  0
SPLINE
  5
13e
100
AcDbEntity
  8
visible
 62
1
100
AcDbSpline
 70
8
 71
3
 72
8
 73
4
 74
0
 40
0
 40
0
 40
0
 40
0
 40
1
 40
1
 40
1
 40
1
 10
104.738314
 20
175.728400
 30
0.0
 10
104.738314
 20
176.013863
 30
0.0
 10
104.842210
 20
176.287635
 30
0.0
 10
105.027145
 20
176.489487
 30
0.0
  0
SPLINE
  5
13f
100
AcDbEntity
  8
visible
 62
1
100
AcDbSpline
 70
8
 71
3
 72
8
 73
4
 74
0
 40
0
 40
0
 40
0
 40
0
 40
1
 40
1
 40
1
 40
1
 10
105.027145
 20
176.489487
 30
0.0
 10
105.212081
 20
176.691340
 30
0.0
 10
105.462907
 20
176.804740
 30
0.0
 10
105.724446
 20
176.804740
 30
0.0
  0
LWPOLYLINE
  5
140
100
AcDbEntity
  8
visible
 62
1
100
AcDbPolyline
 90
2
 70
0
 10
104.738314
 20
175.288079
 30
0.0
 10
104.738314
 20
175.728400
 30
0.0
  0
LWPOLYLINE
  5
141
100
AcDbEntity
  8
visible
 62
1
100
AcDbPolyline
 90
1
 70
1
 10
105.724446
 20
176.804740
 30
0.0
  0
SPLINE
  5
142
100
AcDbEntity
  8
visible
 62
1
100
AcDbSpline
 70
8
 71
3
 72
8
 73
4
 74
0
 40
0
 40
0
 40
0
 40
0
 40
1
 40
1
 40
1
 40
1
 10
107.896785
 20
173.329870
 30
0.0
 10
108.158323
 20
173.329870
 30
0.0
 10
108.409150
 20
173.216470
 30
0.0
 10
108.594085
 20
173.014617
 30
0.0
  0
SPLINE
  5
143
100
AcDbEntity
  8
visible
 62
1
100
AcDbSpline
 70
8
 71
3
 72
8
 73
4
 74
0
 40
0
 40
0
 40
0
 40
0
 40
1
 40
1
 40
1
 40
1
 10
108.594085
 20
173.014617
 30
0.0
 10
108.779021
 20
172.812765
 30
0.0
 10
108.882916
 20
172.538993
 30
0.0
 10
108.882916
 20
172.253531
 30
0.0
  0
LWPOLYLINE
  5
144
100
AcDbEntity
  8
visible
 62
1
100
AcDbPolyline
 90
2
 70
0
 10
105.724446
 20
173.329870
 30
0.0
 10
107.896785
 20
173.329870
 30
0.0
  0
SPLINE
  5
145
100
AcDbEntity
  8
visible
 62
1
100
AcDbSpline
 70
8
 71
3
 72
8
 73
4
 74
0
 40
0
 40
0
 40
0
 40
0
 40
1
 40
1
 40
1
 40
1
 10
108.882916
 20
171.813209
 30
0.0
 10
108.882916
 20
171.527746
 30
0.0
 10
108.779021
 20
171.253975
 30
0.0
 10
108.594085
 20
171.052122
 30
0.0
  0
SPLINE
  5
146
100
AcDbEntity
  8
visible
 62
1
100
AcDbSpline
 70
8
 71
3
 72
8
 73
4
 74
0
 40
0
 40
0
 40
0
 40
0
 40
1
 40
1
 40
1
 40
1
 10
108.594085
 20
171.052122
 30
0.0
 10
108.409150
 20
170.850270
 30
0.0
 10
108.158323
 20
170.736870
 30
0.0
 10
107.896785
 20
170.736870
 30
0.0
  0
LWPOLYLINE
  5
147
100
AcDbEntity
  8
visible
 62
1
100
AcDbPolyline
 90
2
 70
0
 10
108.882916
 20
172.253531
 30
0.0
 10
108.882916
 20
171.813209
 30
0.0
  0
SPLINE
  5
148
100
AcDbEntity
  8
visible
 62
1
100
AcDbSpline
 70
8
 71
3
 72
8
 73
4
 74
0
 40
0
 40
0
 40
0
 40
0
 40
1
 40
1
 40
1
 40
1
 10
105.724446
 20
170.736870
 30
0.0
 10
105.462907
 20
170.736870
 30
0.0
 10
105.212081
 20
170.850270
 30
0.0
 10
105.027145
 20
171.052122
 30
0.0
  0
SPLINE
  5
149
100
AcDbEntity
  8
visible
 62
1
100
AcDbSpline
 70
8
 71
3
 72
8
 73
4
 74
0
 40
0
 40
0
 40
0
 40
0
 40
1
 40
1
 40
1
 40
1
 10
105.027145
 20
171.052122
 30
0.0
 10
104.842210
 20
171.253975
 30
0.0
 10
104.738314
 20
171.527746
 30
0.0
 10
104.738314
 20
171.813209
 30
0.0
  0
LWPOLYLINE
  5
14a
100
AcDbEntity
  8
visible
 62
1
100
AcDbPolyline
 90
2
 70
0
 10
107.896785
 20
170.736870
 30
0.0
 10
105.724446
 20
170.736870
 30
0.0
  0
SPLINE
  5
14b
100
AcDbEntity
  8
visible
 62
1
100
AcDbSpline
 70
8
 71
3
 72
8
 73
4
 74
0
 40
0
 40
0
 40
0
 40
0
 40
1
 40
1
 40
1
 40
1
 10
104.738314
 20
172.253531
 30
0.0
 10
104.738314
 20
172.538993
 30
0.0
 10
104.842210
 20
172.812765
 30
0.0
 10
105.027145
 20
173.014617
 30
0.0
  0
SPLINE
  5
14c
100
AcDbEntity
  8
visible
 62
1
100
AcDbSpline
 70
8
 71
3
 72
8
 73
4
 74
0
 40
0
 40
0
 40
0
 40
0
 40
1
 40
1
 40
1
 40
1
 10
105.027145
 20
173.014617
 30
0.0
 10
105.212081
 20
173.216470
 30
0.0
 10
105.462907
 20
173.329870
 30
0.0
 10
105.724446
 20
173.329870
 30
0.0
  0
LWPOLYLINE
  5
14d
100
AcDbEntity
  8
visible
 62
1
100
AcDbPolyline
 90
2
 70
0
 10
104.738314
 20
171.813209
 30
0.0
 10
104.738314
 20
172.253531
 30
0.0
  0
LWPOLYLINE
  5
14e
100
AcDbEntity
  8
visible
 62
1
100
AcDbPolyline
 90
1
 70
1
 10
105.724446
 20
173.329870
 30
0.0
  0
SPLINE
  5
14f
100
AcDbEntity
  8
visible
 62
1
100
AcDbSpline
 70
8
 71
3
 72
8
 73
4
 74
0
 40
0
 40
0
 40
0
 40
0
 40
1
 40
1
 40
1
 40
1
 10
79.923979
 20
180.090030
 30
0.0
 10
80.199510
 20
180.090030
 30
0.0
 10
80.463757
 20
179.980576
 30
0.0
 10
80.658587
 20
179.785746
 30
0.0
  0
SPLINE
  5
150
100
AcDbEntity
  8
visible
 62
1
100
AcDbSpline
 70
8
 71
3
 72
8
 73
4
 74
0
 40
0
 40
0
 40
0
 40
0
 40
1
 40
1
 40
1
 40
1
 10
80.658587
 20
179.785746
 30
0.0
 10
80.853417
 20
179.590916
 30
0.0
 10
80.962871
 20
179.326670
 30
0.0
 10
80.962871
 20
179.051138
 30
0.0
  0
LWPOLYLINE
  5
151
100
AcDbEntity
  8
visible
 62
1
100
AcDbPolyline
 90
2
 70
0
 10
74.266171
 20
180.090030
 30
0.0
 10
79.923979
 20
180.090030
 30
0.0
  0
SPLINE
  5
152
100
AcDbEntity
  8
visible
 62
1
100
AcDbSpline
 70
8
 71
3
 72
8
 73
4
 74
0
 40
0
 40
0
 40
0
 40
0
 40
1
 40
1
 40
1
 40
1
 10
80.962871
 20
178.626137
 30
0.0
 10
80.962871
 20
178.350606
 30
0.0
 10
80.853417
 20
178.086360
 30
0.0
 10
80.658587
 20
177.891530
 30
0.0
  0
SPLINE
  5
153
100
AcDbEntity
  8
visible
 62
1
100
AcDbSpline
 70
8
 71
3
 72
8
 73
4
 74
0
 40
0
 40
0
 40
0
 40
0
 40
1
 40
1
 40
1
 40
1
 10
80.658587
 20
177.891530
 30
0.0
 10
80.463757
 20
177.696700
 30
0.0
 10
80.199510
 20
177.587245
 30
0.0
 10
79.923979
 20
177.587245
 30
0.0
  0
LWPOLYLINE
  5
154
100
AcDbEntity
  8
visible
 62
1
100
AcDbPolyline
 90
2
 70
0
 10
80.962871
 20
179.051138
 30
0.0
 10
80.962871
 20
178.626137
 30
0.0
  0
SPLINE
  5
155
100
AcDbEntity
  8
visible
 62
1
100
AcDbSpline
 70
8
 71
3
 72
8
 73
4
 74
0
 40
0
 40
0
 40
0
 40
0
 40
1
 40
1
 40
1
 40
1
 10
74.266171
 20
177.587245
 30
0.0
 10
73.990639
 20
177.587245
 30
0.0
 10
73.726393
 20
177.696700
 30
0.0
 10
73.531563
 20
177.891530
 30
0.0
  0
SPLINE
  5
156
100
AcDbEntity
  8
visible
 62
1
100
AcDbSpline
 70
8
 71
3
 72
8
 73
4
 74
0
 40
0
 40
0
 40
0
 40
0
 40
1
 40
1
 40
1
 40
1
 10
73.531563
 20
177.891530
 30
0.0
 10
73.336733
 20
178.086360
 30
0.0
 10
73.227279
 20
178.350606
 30
0.0
 10
73.227279
 20
178.626137
 30
0.0
  0
LWPOLYLINE
  5
157
100
AcDbEntity
  8
visible
 62
1
100
AcDbPolyline
 90
2
 70
0
 10
79.923979
 20
177.587245
 30
0.0
 10
74.266171
 20
177.587245
 30
0.0
  0
SPLINE
  5
158
100
AcDbEntity
  8
visible
 62
1
100
AcDbSpline
 70
8
 71
3
 72
8
 73
4
 74
0
 40
0
 40
0
 40
0
 40
0
 40
1
 40
1
 40
1
 40
1
 10
73.227279
 20
179.051138
 30
0.0
 10
73.227279
 20
179.326670
 30
0.0
 10
73.336733
 20
179.590916
 30
0.0
 10
73.531563
 20
179.785746
 30
0.0
  0
SPLINE
  5
159
100
AcDbEntity
  8
visible
 62
1
100
AcDbSpline
 70
8
 71
3
 72
8
 73
4
 74
0
 40
0
 40
0
 40
0
 40
0
 40
1
 40
1
 40
1
 40
1
 10
73.531563
 20
179.785746
 30
0.0
 10
73.726393
 20
179.980576
 30
0.0
 10
73.990639
 20
180.090030
 30
0.0
 10
74.266171
 20
180.090030
 30
0.0
  0
LWPOLYLINE
  5
15a
100
AcDbEntity
  8
visible
 62
1
100
AcDbPolyline
 90
2
 70
0
 10
73.227279
 20
178.626137
 30
0.0
 10
73.227279
 20
179.051138
 30
0.0
  0
LWPOLYLINE
  5
15b
100
AcDbEntity
  8
visible
 62
1
100
AcDbPolyline
 90
1
 70
1
 10
74.266171
 20
180.090030
 30
0.0
  0
SPLINE
  5
15c
100
AcDbEntity
  8
visible
 62
1
100
AcDbSpline
 70
8
 71
3
 72
8
 73
4
 74
0
 40
0
 40
0
 40
0
 40
0
 40
1
 40
1
 40
1
 40
1
 10
90.937983
 20
180.090030
 30
0.0
 10
91.213515
 20
180.090030
 30
0.0
 10
91.477761
 20
179.980576
 30
0.0
 10
91.672591
 20
179.785746
 30
0.0
  0
SPLINE
  5
15d
100
AcDbEntity
  8
visible
 62
1
100
AcDbSpline
 70
8
 71
3
 72
8
 73
4
 74
0
 40
0
 40
0
 40
0
 40
0
 40
1
 40
1
 40
1
 40
1
 10
91.672591
 20
179.785746
 30
0.0
 10
91.867421
 20
179.590916
 30
0.0
 10
91.976875
 20
179.326670
 30
0.0
 10
91.976875
 20
179.051138
 30
0.0
  0
LWPOLYLINE
  5
15e
100
AcDbEntity
  8
visible
 62
1
100
AcDbPolyline
 90
2
 70
0
 10
85.270070
 20
180.090030
 30
0.0
 10
90.937983
 20
180.090030
 30
0.0
  0
SPLINE
  5
15f
100
AcDbEntity
  8
visible
 62
1
100
AcDbSpline
 70
8
 71
3
 72
8
 73
4
 74
0
 40
0
 40
0
 40
0
 40
0
 40
1
 40
1
 40
1
 40
1
 10
91.976875
 20
178.626137
 30
0.0
 10
91.976875
 20
178.350606
 30
0.0
 10
91.867421
 20
178.086360
 30
0.0
 10
91.672591
 20
177.891530
 30
0.0
  0
SPLINE
  5
160
100
AcDbEntity
  8
visible
 62
1
100
AcDbSpline
 70
8
 71
3
 72
8
 73
4
 74
0
 40
0
 40
0
 40
0
 40
0
 40
1
 40
1
 40
1
 40
1
 10
91.672591
 20
177.891530
 30
0.0
 10
91.477761
 20
177.696700
 30
0.0
 10
91.213515
 20
177.587245
 30
0.0
 10
90.937983
 20
177.587245
 30
0.0
  0
LWPOLYLINE
  5
161
100
AcDbEntity
  8
visible
 62
1
100
AcDbPolyline
 90
2
 70
0
 10
91.976875
 20
179.051138
 30
0.0
 10
91.976875
 20
178.626137
 30
0.0
  0
SPLINE
  5
162
100
AcDbEntity
  8
visible
 62
1
100
AcDbSpline
 70
8
 71
3
 72
8
 73
4
 74
0
 40
0
 40
0
 40
0
 40
0
 40
1
 40
1
 40
1
 40
1
 10
85.270070
 20
177.587245
 30
0.0
 10
84.994538
 20
177.587245
 30
0.0
 10
84.730292
 20
177.696700
 30
0.0
 10
84.535462
 20
177.891530
 30
0.0
  0
SPLINE
  5
163
100
AcDbEntity
  8
visible
 62
1
100
AcDbSpline
 70
8
 71
3
 72
8
 73
4
 74
0
 40
0
 40
0
 40
0
 40
0
 40
1
 40
1
 40
1
 40
1
 10
84.535462
 20
177.891530
 30
0.0
 10
84.340632
 20
178.086360
 30
0.0
 10
84.231178
 20
178.350606
 30
0.0
 10
84.231178
 20
178.626137
 30
0.0
  0
LWPOLYLINE
  5
164
100
AcDbEntity
  8
visible
 62
1
100
AcDbPolyline
 90
2
 70
0
 10
90.937983
 20
177.587245
 30
0.0
 10
85.270070
 20
177.587245
 30
0.0
  0
SPLINE
  5
165
100
AcDbEntity
  8
visible
 62
1
100
AcDbSpline
 70
8
 71
3
 72
8
 73
4
 74
0
 40
0
 40
0
 40
0
 40
0
 40
1
 40
1
 40
1
 40
1
 10
84.231178
 20
179.051138
 30
0.0
 10
84.231178
 20
179.326670
 30
0.0
 10
84.340632
 20
179.590916
 30
0.0
 10
84.535462
 20
179.785746
 30
0.0
  0
SPLINE
  5
166
100
AcDbEntity
  8
visible
 62
1
100
AcDbSpline
 70
8
 71
3
 72
8
 73
4
 74
0
 40
0
 40
0
 40
0
 40
0
 40
1
 40
1
 40
1
 40
1
 10
84.535462
 20
179.785746
 30
0.0
 10
84.730292
 20
179.980576
 30
0.0
 10
84.994538
 20
180.090030
 30
0.0
 10
85.270070
 20
180.090030
 30
0.0
  0
LWPOLYLINE
  5
167
100
AcDbEntity
  8
visible
 62
1
100
AcDbPolyline
 90
2
 70
0
 10
84.231178
 20
178.626137
 30
0.0
 10
84.231178
 20
179.051138
 30
0.0
  0
LWPOLYLINE
  5
168
100
AcDbEntity
  8
visible
 62
1
100
AcDbPolyline
 90
1
 70
1
 10
85.270070
 20
180.090030
 30
0.0
  0
SPLINE
  5
169
100
AcDbEntity
  8
visible
 62
1
100
AcDbSpline
 70
8
 71
3
 72
8
 73
4
 74
0
 40
0
 40
0
 40
0
 40
0
 40
1
 40
1
 40
1
 40
1
 10
87.678575
 20
176.804740
 30
0.0
 10
87.964038
 20
176.804740
 30
0.0
 10
88.237809
 20
176.691340
 30
0.0
 10
88.439662
 20
176.489487
 30
0.0
  0
SPLINE
  5
16a
100
AcDbEntity
  8
visible
 62
1
100
AcDbSpline
 70
8
 71
3
 72
8
 73
4
 74
0
 40
0
 40
0
 40
0
 40
0
 40
1
 40
1
 40
1
 40
1
 10
88.439662
 20
176.489487
 30
0.0
 10
88.641515
 20
176.287635
 30
0.0
 10
88.754915
 20
176.013863
 30
0.0
 10
88.754915
 20
175.728400
 30
0.0
  0
LWPOLYLINE
  5
16b
100
AcDbEntity
  8
visible
 62
1
100
AcDbPolyline
 90
2
 70
0
 10
85.307518
 20
176.804740
 30
0.0
 10
87.678575
 20
176.804740
 30
0.0
  0
SPLINE
  5
16c
100
AcDbEntity
  8
visible
 62
1
100
AcDbSpline
 70
8
 71
3
 72
8
 73
4
 74
0
 40
0
 40
0
 40
0
 40
0
 40
1
 40
1
 40
1
 40
1
 10
88.754915
 20
175.288079
 30
0.0
 10
88.754915
 20
175.002616
 30
0.0
 10
88.641515
 20
174.728845
 30
0.0
 10
88.439662
 20
174.526992
 30
0.0
  0
SPLINE
  5
16d
100
AcDbEntity
  8
visible
 62
1
100
AcDbSpline
 70
8
 71
3
 72
8
 73
4
 74
0
 40
0
 40
0
 40
0
 40
0
 40
1
 40
1
 40
1
 40
1
 10
88.439662
 20
174.526992
 30
0.0
 10
88.237809
 20
174.325140
 30
0.0
 10
87.964038
 20
174.211740
 30
0.0
 10
87.678575
 20
174.211740
 30
0.0
  0
LWPOLYLINE
  5
16e
100
AcDbEntity
  8
visible
 62
1
100
AcDbPolyline
 90
2
 70
0
 10
88.754915
 20
175.728400
 30
0.0
 10
88.754915
 20
175.288079
 30
0.0
  0
SPLINE
  5
16f
100
AcDbEntity
  8
visible
 62
1
100
AcDbSpline
 70
8
 71
3
 72
8
 73
4
 74
0
 40
0
 40
0
 40
0
 40
0
 40
1
 40
1
 40
1
 40
1
 10
85.307518
 20
174.211740
 30
0.0
 10
85.022055
 20
174.211740
 30
0.0
 10
84.748283
 20
174.325140
 30
0.0
 10
84.546431
 20
174.526992
 30
0.0
  0
SPLINE
  5
170
100
AcDbEntity
  8
visible
 62
1
100
AcDbSpline
 70
8
 71
3
 72
8
 73
4
 74
0
 40
0
 40
0
 40
0
 40
0
 40
1
 40
1
 40
1
 40
1
 10
84.546431
 20
174.526992
 30
0.0
 10
84.344578
 20
174.728845
 30
0.0
 10
84.231178
 20
175.002616
 30
0.0
 10
84.231178
 20
175.288079
 30
0.0
  0
LWPOLYLINE
  5
171
100
AcDbEntity
  8
visible
 62
1
100
AcDbPolyline
 90
2
 70
0
 10
87.678575
 20
174.211740
 30
0.0
 10
85.307518
 20
174.211740
 30
0.0
  0
SPLINE
  5
172
100
AcDbEntity
  8
visible
 62
1
100
AcDbSpline
 70
8
 71
3
 72
8
 73
4
 74
0
 40
0
 40
0
 40
0
 40
0
 40
1
 40
1
 40
1
 40
1
 10
84.231178
 20
175.728400
 30
0.0
 10
84.231178
 20
176.013863
 30
0.0
 10
84.344578
 20
176.287635
 30
0.0
 10
84.546431
 20
176.489487
 30
0.0
  0
SPLINE
  5
173
100
AcDbEntity
  8
visible
 62
1
100
AcDbSpline
 70
8
 71
3
 72
8
 73
4
 74
0
 40
0
 40
0
 40
0
 40
0
 40
1
 40
1
 40
1
 40
1
 10
84.546431
 20
176.489487
 30
0.0
 10
84.748283
 20
176.691340
 30
0.0
 10
85.022055
 20
176.804740
 30
0.0
 10
85.307518
 20
176.804740
 30
0.0
  0
LWPOLYLINE
  5
174
100
AcDbEntity
  8
visible
 62
1
100
AcDbPolyline
 90
2
 70
0
 10
84.231178
 20
175.288079
 30
0.0
 10
84.231178
 20
175.728400
 30
0.0
  0
LWPOLYLINE
  5
175
100
AcDbEntity
  8
visible
 62
1
100
AcDbPolyline
 90
1
 70
1
 10
85.307518
 20
176.804740
 30
0.0
  0
SPLINE
  5
176
100
AcDbEntity
  8
visible
 62
1
100
AcDbSpline
 70
8
 71
3
 72
8
 73
4
 74
0
 40
0
 40
0
 40
0
 40
0
 40
1
 40
1
 40
1
 40
1
 10
87.678575
 20
173.329870
 30
0.0
 10
87.964038
 20
173.329870
 30
0.0
 10
88.237809
 20
173.216470
 30
0.0
 10
88.439662
 20
173.014617
 30
0.0
  0
SPLINE
  5
177
100
AcDbEntity
  8
visible
 62
1
100
AcDbSpline
 70
8
 71
3
 72
8
 73
4
 74
0
 40
0
 40
0
 40
0
 40
0
 40
1
 40
1
 40
1
 40
1
 10
88.439662
 20
173.014617
 30
0.0
 10
88.641515
 20
172.812765
 30
0.0
 10
88.754915
 20
172.538993
 30
0.0
 10
88.754915
 20
172.253531
 30
0.0
  0
LWPOLYLINE
  5
178
100
AcDbEntity
  8
visible
 62
1
100
AcDbPolyline
 90
2
 70
0
 10
85.307518
 20
173.329870
 30
0.0
 10
87.678575
 20
173.329870
 30
0.0
  0
SPLINE
  5
179
100
AcDbEntity
  8
visible
 62
1
100
AcDbSpline
 70
8
 71
3
 72
8
 73
4
 74
0
 40
0
 40
0
 40
0
 40
0
 40
1
 40
1
 40
1
 40
1
 10
88.754915
 20
171.813209
 30
0.0
 10
88.754915
 20
171.527746
 30
0.0
 10
88.641515
 20
171.253975
 30
0.0
 10
88.439662
 20
171.052122
 30
0.0
  0
SPLINE
  5
17a
100
AcDbEntity
  8
visible
 62
1
100
AcDbSpline
 70
8
 71
3
 72
8
 73
4
 74
0
 40
0
 40
0
 40
0
 40
0
 40
1
 40
1
 40
1
 40
1
 10
88.439662
 20
171.052122
 30
0.0
 10
88.237809
 20
170.850270
 30
0.0
 10
87.964038
 20
170.736870
 30
0.0
 10
87.678575
 20
170.736870
 30
0.0
  0
LWPOLYLINE
  5
17b
100
AcDbEntity
  8
visible
 62
1
100
AcDbPolyline
 90
2
 70
0
 10
88.754915
 20
172.253531
 30
0.0
 10
88.754915
 20
171.813209
 30
0.0
  0
SPLINE
  5
17c
100
AcDbEntity
  8
visible
 62
1
100
AcDbSpline
 70
8
 71
3
 72
8
 73
4
 74
0
 40
0
 40
0
 40
0
 40
0
 40
1
 40
1
 40
1
 40
1
 10
85.307518
 20
170.736870
 30
0.0
 10
85.022055
 20
170.736870
 30
0.0
 10
84.748283
 20
170.850270
 30
0.0
 10
84.546431
 20
171.052122
 30
0.0
  0
SPLINE
  5
17d
100
AcDbEntity
  8
visible
 62
1
100
AcDbSpline
 70
8
 71
3
 72
8
 73
4
 74
0
 40
0
 40
0
 40
0
 40
0
 40
1
 40
1
 40
1
 40
1
 10
84.546431
 20
171.052122
 30
0.0
 10
84.344578
 20
171.253975
 30
0.0
 10
84.231178
 20
171.527746
 30
0.0
 10
84.231178
 20
171.813209
 30
0.0
  0
LWPOLYLINE
  5
17e
100
AcDbEntity
  8
visible
 62
1
100
AcDbPolyline
 90
2
 70
0
 10
87.678575
 20
170.736870
 30
0.0
 10
85.307518
 20
170.736870
 30
0.0
  0
SPLINE
  5
17f
100
AcDbEntity
  8
visible
 62
1
100
AcDbSpline
 70
8
 71
3
 72
8
 73
4
 74
0
 40
0
 40
0
 40
0
 40
0
 40
1
 40
1
 40
1
 40
1
 10
84.231178
 20
172.253531
 30
0.0
 10
84.231178
 20
172.538993
 30
0.0
 10
84.344578
 20
172.812765
 30
0.0
 10
84.546431
 20
173.014617
 30
0.0
  0
SPLINE
  5
180
100
AcDbEntity
  8
visible
 62
1
100
AcDbSpline
 70
8
 71
3
 72
8
 73
4
 74
0
 40
0
 40
0
 40
0
 40
0
 40
1
 40
1
 40
1
 40
1
 10
84.546431
 20
173.014617
 30
0.0
 10
84.748283
 20
173.216470
 30
0.0
 10
85.022055
 20
173.329870
 30
0.0
 10
85.307518
 20
173.329870
 30
0.0
  0
LWPOLYLINE
  5
181
100
AcDbEntity
  8
visible
 62
1
100
AcDbPolyline
 90
2
 70
0
 10
84.231178
 20
171.813209
 30
0.0
 10
84.231178
 20
172.253531
 30
0.0
  0
LWPOLYLINE
  5
182
100
AcDbEntity
  8
visible
 62
1
100
AcDbPolyline
 90
1
 70
1
 10
85.307518
 20
173.329870
 30
0.0
  0
SPLINE
  5
183
100
AcDbEntity
  8
visible
 62
1
100
AcDbSpline
 70
8
 71
3
 72
8
 73
4
 74
0
 40
0
 40
0
 40
0
 40
0
 40
1
 40
1
 40
1
 40
1
 10
79.976785
 20
176.804740
 30
0.0
 10
80.238323
 20
176.804740
 30
0.0
 10
80.489150
 20
176.691340
 30
0.0
 10
80.674085
 20
176.489487
 30
0.0
  0
SPLINE
  5
184
100
AcDbEntity
  8
visible
 62
1
100
AcDbSpline
 70
8
 71
3
 72
8
 73
4
 74
0
 40
0
 40
0
 40
0
 40
0
 40
1
 40
1
 40
1
 40
1
 10
80.674085
 20
176.489487
 30
0.0
 10
80.859021
 20
176.287635
 30
0.0
 10
80.962916
 20
176.013863
 30
0.0
 10
80.962916
 20
175.728400
 30
0.0
  0
LWPOLYLINE
  5
185
100
AcDbEntity
  8
visible
 62
1
100
AcDbPolyline
 90
2
 70
0
 10
77.804446
 20
176.804740
 30
0.0
 10
79.976785
 20
176.804740
 30
0.0
  0
SPLINE
  5
186
100
AcDbEntity
  8
visible
 62
1
100
AcDbSpline
 70
8
 71
3
 72
8
 73
4
 74
0
 40
0
 40
0
 40
0
 40
0
 40
1
 40
1
 40
1
 40
1
 10
80.962916
 20
175.288079
 30
0.0
 10
80.962916
 20
175.002616
 30
0.0
 10
80.859021
 20
174.728845
 30
0.0
 10
80.674085
 20
174.526992
 30
0.0
  0
SPLINE
  5
187
100
AcDbEntity
  8
visible
 62
1
100
AcDbSpline
 70
8
 71
3
 72
8
 73
4
 74
0
 40
0
 40
0
 40
0
 40
0
 40
1
 40
1
 40
1
 40
1
 10
80.674085
 20
174.526992
 30
0.0
 10
80.489150
 20
174.325140
 30
0.0
 10
80.238323
 20
174.211740
 30
0.0
 10
79.976785
 20
174.211740
 30
0.0
  0
LWPOLYLINE
  5
188
100
AcDbEntity
  8
visible
 62
1
100
AcDbPolyline
 90
2
 70
0
 10
80.962916
 20
175.728400
 30
0.0
 10
80.962916
 20
175.288079
 30
0.0
  0
SPLINE
  5
189
100
AcDbEntity
  8
visible
 62
1
100
AcDbSpline
 70
8
 71
3
 72
8
 73
4
 74
0
 40
0
 40
0
 40
0
 40
0
 40
1
 40
1
 40
1
 40
1
 10
77.804446
 20
174.211740
 30
0.0
 10
77.542907
 20
174.211740
 30
0.0
 10
77.292081
 20
174.325140
 30
0.0
 10
77.107145
 20
174.526992
 30
0.0
  0
SPLINE
  5
18a
100
AcDbEntity
  8
visible
 62
1
100
AcDbSpline
 70
8
 71
3
 72
8
 73
4
 74
0
 40
0
 40
0
 40
0
 40
0
 40
1
 40
1
 40
1
 40
1
 10
77.107145
 20
174.526992
 30
0.0
 10
76.922210
 20
174.728845
 30
0.0
 10
76.818314
 20
175.002616
 30
0.0
 10
76.818314
 20
175.288079
 30
0.0
  0
LWPOLYLINE
  5
18b
100
AcDbEntity
  8
visible
 62
1
100
AcDbPolyline
 90
2
 70
0
 10
79.976785
 20
174.211740
 30
0.0
 10
77.804446
 20
174.211740
 30
0.0
  0
SPLINE
  5
18c
100
AcDbEntity
  8
visible
 62
1
100
AcDbSpline
 70
8
 71
3
 72
8
 73
4
 74
0
 40
0
 40
0
 40
0
 40
0
 40
1
 40
1
 40
1
 40
1
 10
76.818314
 20
175.728400
 30
0.0
 10
76.818314
 20
176.013863
 30
0.0
 10
76.922210
 20
176.287635
 30
0.0
 10
77.107145
 20
176.489487
 30
0.0
  0
SPLINE
  5
18d
100
AcDbEntity
  8
visible
 62
1
100
AcDbSpline
 70
8
 71
3
 72
8
 73
4
 74
0
 40
0
 40
0
 40
0
 40
0
 40
1
 40
1
 40
1
 40
1
 10
77.107145
 20
176.489487
 30
0.0
 10
77.292081
 20
176.691340
 30
0.0
 10
77.542907
 20
176.804740
 30
0.0
 10
77.804446
 20
176.804740
 30
0.0
  0
LWPOLYLINE
  5
18e
100
AcDbEntity
  8
visible
 62
1
100
AcDbPolyline
 90
2
 70
0
 10
76.818314
 20
175.288079
 30
0.0
 10
76.818314
 20
175.728400
 30
0.0
  0
LWPOLYLINE
  5
18f
100
AcDbEntity
  8
visible
 62
1
100
AcDbPolyline
 90
1
 70
1
 10
77.804446
 20
176.804740
 30
0.0
  0
SPLINE
  5
190
100
AcDbEntity
  8
visible
 62
1
100
AcDbSpline
 70
8
 71
3
 72
8
 73
4
 74
0
 40
0
 40
0
 40
0
 40
0
 40
1
 40
1
 40
1
 40
1
 10
79.976785
 20
173.329870
 30
0.0
 10
80.238323
 20
173.329870
 30
0.0
 10
80.489150
 20
173.216470
 30
0.0
 10
80.674085
 20
173.014617
 30
0.0
  0
SPLINE
  5
191
100
AcDbEntity
  8
visible
 62
1
100
AcDbSpline
 70
8
 71
3
 72
8
 73
4
 74
0
 40
0
 40
0
 40
0
 40
0
 40
1
 40
1
 40
1
 40
1
 10
80.674085
 20
173.014617
 30
0.0
 10
80.859021
 20
172.812765
 30
0.0
 10
80.962916
 20
172.538993
 30
0.0
 10
80.962916
 20
172.253531
 30
0.0
  0
LWPOLYLINE
  5
192
100
AcDbEntity
  8
visible
 62
1
100
AcDbPolyline
 90
2
 70
0
 10
77.804446
 20
173.329870
 30
0.0
 10
79.976785
 20
173.329870
 30
0.0
  0
SPLINE
  5
193
100
AcDbEntity
  8
visible
 62
1
100
AcDbSpline
 70
8
 71
3
 72
8
 73
4
 74
0
 40
0
 40
0
 40
0
 40
0
 40
1
 40
1
 40
1
 40
1
 10
80.962916
 20
171.813209
 30
0.0
 10
80.962916
 20
171.527746
 30
0.0
 10
80.859021
 20
171.253975
 30
0.0
 10
80.674085
 20
171.052122
 30
0.0
  0
SPLINE
  5
194
100
AcDbEntity
  8
visible
 62
1
100
AcDbSpline
 70
8
 71
3
 72
8
 73
4
 74
0
 40
0
 40
0
 40
0
 40
0
 40
1
 40
1
 40
1
 40
1
 10
80.674085
 20
171.052122
 30
0.0
 10
80.489150
 20
170.850270
 30
0.0
 10
80.238323
 20
170.736870
 30
0.0
 10
79.976785
 20
170.736870
 30
0.0
  0
LWPOLYLINE
  5
195
100
AcDbEntity
  8
visible
 62
1
100
AcDbPolyline
 90
2
 70
0
 10
80.962916
 20
172.253531
 30
0.0
 10
80.962916
 20
171.813209
 30
0.0
  0
SPLINE
  5
196
100
AcDbEntity
  8
visible
 62
1
100
AcDbSpline
 70
8
 71
3
 72
8
 73
4
 74
0
 40
0
 40
0
 40
0
 40
0
 40
1
 40
1
 40
1
 40
1
 10
77.804446
 20
170.736870
 30
0.0
 10
77.542907
 20
170.736870
 30
0.0
 10
77.292081
 20
170.850270
 30
0.0
 10
77.107145
 20
171.052122
 30
0.0
  0
SPLINE
  5
197
100
AcDbEntity
  8
visible
 62
1
100
AcDbSpline
 70
8
 71
3
 72
8
 73
4
 74
0
 40
0
 40
0
 40
0
 40
0
 40
1
 40
1
 40
1
 40
1
 10
77.107145
 20
171.052122
 30
0.0
 10
76.922210
 20
171.253975
 30
0.0
 10
76.818314
 20
171.527746
 30
0.0
 10
76.818314
 20
171.813209
 30
0.0
  0
LWPOLYLINE
  5
198
100
AcDbEntity
  8
visible
 62
1
100
AcDbPolyline
 90
2
 70
0
 10
79.976785
 20
170.736870
 30
0.0
 10
77.804446
 20
170.736870
 30
0.0
  0
SPLINE
  5
199
100
AcDbEntity
  8
visible
 62
1
100
AcDbSpline
 70
8
 71
3
 72
8
 73
4
 74
0
 40
0
 40
0
 40
0
 40
0
 40
1
 40
1
 40
1
 40
1
 10
76.818314
 20
172.253531
 30
0.0
 10
76.818314
 20
172.538993
 30
0.0
 10
76.922210
 20
172.812765
 30
0.0
 10
77.107145
 20
173.014617
 30
0.0
  0
SPLINE
  5
19a
100
AcDbEntity
  8
visible
 62
1
100
AcDbSpline
 70
8
 71
3
 72
8
 73
4
 74
0
 40
0
 40
0
 40
0
 40
0
 40
1
 40
1
 40
1
 40
1
 10
77.107145
 20
173.014617
 30
0.0
 10
77.292081
 20
173.216470
 30
0.0
 10
77.542907
 20
173.329870
 30
0.0
 10
77.804446
 20
173.329870
 30
0.0
  0
LWPOLYLINE
  5
19b
100
AcDbEntity
  8
visible
 62
1
100
AcDbPolyline
 90
2
 70
0
 10
76.818314
 20
171.813209
 30
0.0
 10
76.818314
 20
172.253531
 30
0.0
  0
LWPOLYLINE
  5
19c
100
AcDbEntity
  8
visible
 62
1
100
AcDbPolyline
 90
1
 70
1
 10
77.804446
 20
173.329870
 30
0.0
  0
SPLINE
  5
19d
100
AcDbEntity
  8
visible
 62
1
100
AcDbSpline
 70
8
 71
3
 72
8
 73
4
 74
0
 40
0
 40
0
 40
0
 40
0
 40
1
 40
1
 40
1
 40
1
 10
60.499979
 20
180.090030
 30
0.0
 10
60.775510
 20
180.090030
 30
0.0
 10
61.039757
 20
179.980576
 30
0.0
 10
61.234587
 20
179.785746
 30
0.0
  0
SPLINE
  5
19e
100
AcDbEntity
  8
visible
 62
1
100
AcDbSpline
 70
8
 71
3
 72
8
 73
4
 74
0
 40
0
 40
0
 40
0
 40
0
 40
1
 40
1
 40
1
 40
1
 10
61.234587
 20
179.785746
 30
0.0
 10
61.429417
 20
179.590916
 30
0.0
 10
61.538871
 20
179.326670
 30
0.0
 10
61.538871
 20
179.051138
 30
0.0
  0
LWPOLYLINE
  5
19f
100
AcDbEntity
  8
visible
 62
1
100
AcDbPolyline
 90
2
 70
0
 10
54.842171
 20
180.090030
 30
0.0
 10
60.499979
 20
180.090030
 30
0.0
  0
SPLINE
  5
1a0
100
AcDbEntity
  8
visible
 62
1
100
AcDbSpline
 70
8
 71
3
 72
8
 73
4
 74
0
 40
0
 40
0
 40
0
 40
0
 40
1
 40
1
 40
1
 40
1
 10
61.538871
 20
178.626137
 30
0.0
 10
61.538871
 20
178.350606
 30
0.0
 10
61.429417
 20
178.086360
 30
0.0
 10
61.234587
 20
177.891530
 30
0.0
  0
SPLINE
  5
1a1
100
AcDbEntity
  8
visible
 62
1
100
AcDbSpline
 70
8
 71
3
 72
8
 73
4
 74
0
 40
0
 40
0
 40
0
 40
0
 40
1
 40
1
 40
1
 40
1
 10
61.234587
 20
177.891530
 30
0.0
 10
61.039757
 20
177.696700
 30
0.0
 10
60.775510
 20
177.587245
 30
0.0
 10
60.499979
 20
177.587245
 30
0.0
  0
LWPOLYLINE
  5
1a2
100
AcDbEntity
  8
visible
 62
1
100
AcDbPolyline
 90
2
 70
0
 10
61.538871
 20
179.051138
 30
0.0
 10
61.538871
 20
178.626137
 30
0.0
  0
SPLINE
  5
1a3
100
AcDbEntity
  8
visible
 62
1
100
AcDbSpline
 70
8
 71
3
 72
8
 73
4
 74
0
 40
0
 40
0
 40
0
 40
0
 40
1
 40
1
 40
1
 40
1
 10
54.842171
 20
177.587245
 30
0.0
 10
54.566639
 20
177.587245
 30
0.0
 10
54.302393
 20
177.696700
 30
0.0
 10
54.107563
 20
177.891530
 30
0.0
  0
SPLINE
  5
1a4
100
AcDbEntity
  8
visible
 62
1
100
AcDbSpline
 70
8
 71
3
 72
8
 73
4
 74
0
 40
0
 40
0
 40
0
 40
0
 40
1
 40
1
 40
1
 40
1
 10
54.107563
 20
177.891530
 30
0.0
 10
53.912733
 20
178.086360
 30
0.0
 10
53.803279
 20
178.350606
 30
0.0
 10
53.803279
 20
178.626137
 30
0.0
  0
LWPOLYLINE
  5
1a5
100
AcDbEntity
  8
visible
 62
1
100
AcDbPolyline
 90
2
 70
0
 10
60.499979
 20
177.587245
 30
0.0
 10
54.842171
 20
177.587245
 30
0.0
  0
SPLINE
  5
1a6
100
AcDbEntity
  8
visible
 62
1
100
AcDbSpline
 70
8
 71
3
 72
8
 73
4
 74
0
 40
0
 40
0
 40
0
 40
0
 40
1
 40
1
 40
1
 40
1
 10
53.803279
 20
179.051138
 30
0.0
 10
53.803279
 20
179.326670
 30
0.0
 10
53.912733
 20
179.590916
 30
0.0
 10
54.107563
 20
179.785746
 30
0.0
  0
SPLINE
  5
1a7
100
AcDbEntity
  8
visible
 62
1
100
AcDbSpline
 70
8
 71
3
 72
8
 73
4
 74
0
 40
0
 40
0
 40
0
 40
0
 40
1
 40
1
 40
1
 40
1
 10
54.107563
 20
179.785746
 30
0.0
 10
54.302393
 20
179.980576
 30
0.0
 10
54.566639
 20
180.090030
 30
0.0
 10
54.842171
 20
180.090030
 30
0.0
  0
LWPOLYLINE
  5
1a8
100
AcDbEntity
  8
visible
 62
1
100
AcDbPolyline
 90
2
 70
0
 10
53.803279
 20
178.626137
 30
0.0
 10
53.803279
 20
179.051138
 30
0.0
  0
LWPOLYLINE
  5
1a9
100
AcDbEntity
  8
visible
 62
1
100
AcDbPolyline
 90
1
 70
1
 10
54.842171
 20
180.090030
 30
0.0
  0
SPLINE
  5
1aa
100
AcDbEntity
  8
visible
 62
1
100
AcDbSpline
 70
8
 71
3
 72
8
 73
4
 74
0
 40
0
 40
0
 40
0
 40
0
 40
1
 40
1
 40
1
 40
1
 10
71.513983
 20
180.090030
 30
0.0
 10
71.789515
 20
180.090030
 30
0.0
 10
72.053761
 20
179.980576
 30
0.0
 10
72.248591
 20
179.785746
 30
0.0
  0
SPLINE
  5
1ab
100
AcDbEntity
  8
visible
 62
1
100
AcDbSpline
 70
8
 71
3
 72
8
 73
4
 74
0
 40
0
 40
0
 40
0
 40
0
 40
1
 40
1
 40
1
 40
1
 10
72.248591
 20
179.785746
 30
0.0
 10
72.443421
 20
179.590916
 30
0.0
 10
72.552875
 20
179.326670
 30
0.0
 10
72.552875
 20
179.051138
 30
0.0
  0
LWPOLYLINE
  5
1ac
100
AcDbEntity
  8
visible
 62
1
100
AcDbPolyline
 90
2
 70
0
 10
65.846070
 20
180.090030
 30
0.0
 10
71.513983
 20
180.090030
 30
0.0
  0
SPLINE
  5
1ad
100
AcDbEntity
  8
visible
 62
1
100
AcDbSpline
 70
8
 71
3
 72
8
 73
4
 74
0
 40
0
 40
0
 40
0
 40
0
 40
1
 40
1
 40
1
 40
1
 10
72.552875
 20
178.626137
 30
0.0
 10
72.552875
 20
178.350606
 30
0.0
 10
72.443421
 20
178.086360
 30
0.0
 10
72.248591
 20
177.891530
 30
0.0
  0
SPLINE
  5
1ae
100
AcDbEntity
  8
visible
 62
1
100
AcDbSpline
 70
8
 71
3
 72
8
 73
4
 74
0
 40
0
 40
0
 40
0
 40
0
 40
1
 40
1
 40
1
 40
1
 10
72.248591
 20
177.891530
 30
0.0
 10
72.053761
 20
177.696700
 30
0.0
 10
71.789515
 20
177.587245
 30
0.0
 10
71.513983
 20
177.587245
 30
0.0
  0
LWPOLYLINE
  5
1af
100
AcDbEntity
  8
visible
 62
1
100
AcDbPolyline
 90
2
 70
0
 10
72.552875
 20
179.051138
 30
0.0
 10
72.552875
 20
178.626137
 30
0.0
  0
SPLINE
  5
1b0
100
AcDbEntity
  8
visible
 62
1
100
AcDbSpline
 70
8
 71
3
 72
8
 73
4
 74
0
 40
0
 40
0
 40
0
 40
0
 40
1
 40
1
 40
1
 40
1
 10
65.846070
 20
177.587245
 30
0.0
 10
65.570538
 20
177.587245
 30
0.0
 10
65.306292
 20
177.696700
 30
0.0
 10
65.111462
 20
177.891530
 30
0.0
  0
SPLINE
  5
1b1
100
AcDbEntity
  8
visible
 62
1
100
AcDbSpline
 70
8
 71
3
 72
8
 73
4
 74
0
 40
0
 40
0
 40
0
 40
0
 40
1
 40
1
 40
1
 40
1
 10
65.111462
 20
177.891530
 30
0.0
 10
64.916632
 20
178.086360
 30
0.0
 10
64.807178
 20
178.350606
 30
0.0
 10
64.807178
 20
178.626137
 30
0.0
  0
LWPOLYLINE
  5
1b2
100
AcDbEntity
  8
visible
 62
1
100
AcDbPolyline
 90
2
 70
0
 10
71.513983
 20
177.587245
 30
0.0
 10
65.846070
 20
177.587245
 30
0.0
  0
SPLINE
  5
1b3
100
AcDbEntity
  8
visible
 62
1
100
AcDbSpline
 70
8
 71
3
 72
8
 73
4
 74
0
 40
0
 40
0
 40
0
 40
0
 40
1
 40
1
 40
1
 40
1
 10
64.807178
 20
179.051138
 30
0.0
 10
64.807178
 20
179.326670
 30
0.0
 10
64.916632
 20
179.590916
 30
0.0
 10
65.111462
 20
179.785746
 30
0.0
  0
SPLINE
  5
1b4
100
AcDbEntity
  8
visible
 62
1
100
AcDbSpline
 70
8
 71
3
 72
8
 73
4
 74
0
 40
0
 40
0
 40
0
 40
0
 40
1
 40
1
 40
1
 40
1
 10
65.111462
 20
179.785746
 30
0.0
 10
65.306292
 20
179.980576
 30
0.0
 10
65.570538
 20
180.090030
 30
0.0
 10
65.846070
 20
180.090030
 30
0.0
  0
LWPOLYLINE
  5
1b5
100
AcDbEntity
  8
visible
 62
1
100
AcDbPolyline
 90
2
 70
0
 10
64.807178
 20
178.626137
 30
0.0
 10
64.807178
 20
179.051138
 30
0.0
  0
LWPOLYLINE
  5
1b6
100
AcDbEntity
  8
visible
 62
1
100
AcDbPolyline
 90
1
 70
1
 10
65.846070
 20
180.090030
 30
0.0
  0
SPLINE
  5
1b7
100
AcDbEntity
  8
visible
 62
1
100
AcDbSpline
 70
8
 71
3
 72
8
 73
4
 74
0
 40
0
 40
0
 40
0
 40
0
 40
1
 40
1
 40
1
 40
1
 10
68.254575
 20
176.804740
 30
0.0
 10
68.540038
 20
176.804740
 30
0.0
 10
68.813809
 20
176.691340
 30
0.0
 10
69.015662
 20
176.489487
 30
0.0
  0
SPLINE
  5
1b8
100
AcDbEntity
  8
visible
 62
1
100
AcDbSpline
 70
8
 71
3
 72
8
 73
4
 74
0
 40
0
 40
0
 40
0
 40
0
 40
1
 40
1
 40
1
 40
1
 10
69.015662
 20
176.489487
 30
0.0
 10
69.217515
 20
176.287635
 30
0.0
 10
69.330915
 20
176.013863
 30
0.0
 10
69.330915
 20
175.728400
 30
0.0
  0
LWPOLYLINE
  5
1b9
100
AcDbEntity
  8
visible
 62
1
100
AcDbPolyline
 90
2
 70
0
 10
65.883518
 20
176.804740
 30
0.0
 10
68.254575
 20
176.804740
 30
0.0
  0
SPLINE
  5
1ba
100
AcDbEntity
  8
visible
 62
1
100
AcDbSpline
 70
8
 71
3
 72
8
 73
4
 74
0
 40
0
 40
0
 40
0
 40
0
 40
1
 40
1
 40
1
 40
1
 10
69.330915
 20
175.288079
 30
0.0
 10
69.330915
 20
175.002616
 30
0.0
 10
69.217515
 20
174.728845
 30
0.0
 10
69.015662
 20
174.526992
 30
0.0
  0
SPLINE
  5
1bb
100
AcDbEntity
  8
visible
 62
1
100
AcDbSpline
 70
8
 71
3
 72
8
 73
4
 74
0
 40
0
 40
0
 40
0
 40
0
 40
1
 40
1
 40
1
 40
1
 10
69.015662
 20
174.526992
 30
0.0
 10
68.813809
 20
174.325140
 30
0.0
 10
68.540038
 20
174.211740
 30
0.0
 10
68.254575
 20
174.211740
 30
0.0
  0
LWPOLYLINE
  5
1bc
100
AcDbEntity
  8
visible
 62
1
100
AcDbPolyline
 90
2
 70
0
 10
69.330915
 20
175.728400
 30
0.0
 10
69.330915
 20
175.288079
 30
0.0
  0
SPLINE
  5
1bd
100
AcDbEntity
  8
visible
 62
1
100
AcDbSpline
 70
8
 71
3
 72
8
 73
4
 74
0
 40
0
 40
0
 40
0
 40
0
 40
1
 40
1
 40
1
 40
1
 10
65.883518
 20
174.211740
 30
0.0
 10
65.598055
 20
174.211740
 30
0.0
 10
65.324283
 20
174.325140
 30
0.0
 10
65.122431
 20
174.526992
 30
0.0
  0
SPLINE
  5
1be
100
AcDbEntity
  8
visible
 62
1
100
AcDbSpline
 70
8
 71
3
 72
8
 73
4
 74
0
 40
0
 40
0
 40
0
 40
0
 40
1
 40
1
 40
1
 40
1
 10
65.122431
 20
174.526992
 30
0.0
 10
64.920578
 20
174.728845
 30
0.0
 10
64.807178
 20
175.002616
 30
0.0
 10
64.807178
 20
175.288079
 30
0.0
  0
LWPOLYLINE
  5
1bf
100
AcDbEntity
  8
visible
 62
1
100
AcDbPolyline
 90
2
 70
0
 10
68.254575
 20
174.211740
 30
0.0
 10
65.883518
 20
174.211740
 30
0.0
  0
SPLINE
  5
1c0
100
AcDbEntity
  8
visible
 62
1
100
AcDbSpline
 70
8
 71
3
 72
8
 73
4
 74
0
 40
0
 40
0
 40
0
 40
0
 40
1
 40
1
 40
1
 40
1
 10
64.807178
 20
175.728400
 30
0.0
 10
64.807178
 20
176.013863
 30
0.0
 10
64.920578
 20
176.287635
 30
0.0
 10
65.122431
 20
176.489487
 30
0.0
  0
SPLINE
  5
1c1
100
AcDbEntity
  8
visible
 62
1
100
AcDbSpline
 70
8
 71
3
 72
8
 73
4
 74
0
 40
0
 40
0
 40
0
 40
0
 40
1
 40
1
 40
1
 40
1
 10
65.122431
 20
176.489487
 30
0.0
 10
65.324283
 20
176.691340
 30
0.0
 10
65.598055
 20
176.804740
 30
0.0
 10
65.883518
 20
176.804740
 30
0.0
  0
LWPOLYLINE
  5
1c2
100
AcDbEntity
  8
visible
 62
1
100
AcDbPolyline
 90
2
 70
0
 10
64.807178
 20
175.288079
 30
0.0
 10
64.807178
 20
175.728400
 30
0.0
  0
LWPOLYLINE
  5
1c3
100
AcDbEntity
  8
visible
 62
1
100
AcDbPolyline
 90
1
 70
1
 10
65.883518
 20
176.804740
 30
0.0
  0
SPLINE
  5
1c4
100
AcDbEntity
  8
visible
 62
1
100
AcDbSpline
 70
8
 71
3
 72
8
 73
4
 74
0
 40
0
 40
0
 40
0
 40
0
 40
1
 40
1
 40
1
 40
1
 10
68.254575
 20
173.329870
 30
0.0
 10
68.540038
 20
173.329870
 30
0.0
 10
68.813809
 20
173.216470
 30
0.0
 10
69.015662
 20
173.014617
 30
0.0
  0
SPLINE
  5
1c5
100
AcDbEntity
  8
visible
 62
1
100
AcDbSpline
 70
8
 71
3
 72
8
 73
4
 74
0
 40
0
 40
0
 40
0
 40
0
 40
1
 40
1
 40
1
 40
1
 10
69.015662
 20
173.014617
 30
0.0
 10
69.217515
 20
172.812765
 30
0.0
 10
69.330915
 20
172.538993
 30
0.0
 10
69.330915
 20
172.253531
 30
0.0
  0
LWPOLYLINE
  5
1c6
100
AcDbEntity
  8
visible
 62
1
100
AcDbPolyline
 90
2
 70
0
 10
65.883518
 20
173.329870
 30
0.0
 10
68.254575
 20
173.329870
 30
0.0
  0
SPLINE
  5
1c7
100
AcDbEntity
  8
visible
 62
1
100
AcDbSpline
 70
8
 71
3
 72
8
 73
4
 74
0
 40
0
 40
0
 40
0
 40
0
 40
1
 40
1
 40
1
 40
1
 10
69.330915
 20
171.813209
 30
0.0
 10
69.330915
 20
171.527746
 30
0.0
 10
69.217515
 20
171.253975
 30
0.0
 10
69.015662
 20
171.052122
 30
0.0
  0
SPLINE
  5
1c8
100
AcDbEntity
  8
visible
 62
1
100
AcDbSpline
 70
8
 71
3
 72
8
 73
4
 74
0
 40
0
 40
0
 40
0
 40
0
 40
1
 40
1
 40
1
 40
1
 10
69.015662
 20
171.052122
 30
0.0
 10
68.813809
 20
170.850270
 30
0.0
 10
68.540038
 20
170.736870
 30
0.0
 10
68.254575
 20
170.736870
 30
0.0
  0
LWPOLYLINE
  5
1c9
100
AcDbEntity
  8
visible
 62
1
100
AcDbPolyline
 90
2
 70
0
 10
69.330915
 20
172.253531
 30
0.0
 10
69.330915
 20
171.813209
 30
0.0
  0
SPLINE
  5
1ca
100
AcDbEntity
  8
visible
 62
1
100
AcDbSpline
 70
8
 71
3
 72
8
 73
4
 74
0
 40
0
 40
0
 40
0
 40
0
 40
1
 40
1
 40
1
 40
1
 10
65.883518
 20
170.736870
 30
0.0
 10
65.598055
 20
170.736870
 30
0.0
 10
65.324283
 20
170.850270
 30
0.0
 10
65.122431
 20
171.052122
 30
0.0
  0
SPLINE
  5
1cb
100
AcDbEntity
  8
visible
 62
1
100
AcDbSpline
 70
8
 71
3
 72
8
 73
4
 74
0
 40
0
 40
0
 40
0
 40
0
 40
1
 40
1
 40
1
 40
1
 10
65.122431
 20
171.052122
 30
0.0
 10
64.920578
 20
171.253975
 30
0.0
 10
64.807178
 20
171.527746
 30
0.0
 10
64.807178
 20
171.813209
 30
0.0
  0
LWPOLYLINE
  5
1cc
100
AcDbEntity
  8
visible
 62
1
100
AcDbPolyline
 90
2
 70
0
 10
68.254575
 20
170.736870
 30
0.0
 10
65.883518
 20
170.736870
 30
0.0
  0
SPLINE
  5
1cd
100
AcDbEntity
  8
visible
 62
1
100
AcDbSpline
 70
8
 71
3
 72
8
 73
4
 74
0
 40
0
 40
0
 40
0
 40
0
 40
1
 40
1
 40
1
 40
1
 10
64.807178
 20
172.253531
 30
0.0
 10
64.807178
 20
172.538993
 30
0.0
 10
64.920578
 20
172.812765
 30
0.0
 10
65.122431
 20
173.014617
 30
0.0
  0
SPLINE
  5
1ce
100
AcDbEntity
  8
visible
 62
1
100
AcDbSpline
 70
8
 71
3
 72
8
 73
4
 74
0
 40
0
 40
0
 40
0
 40
0
 40
1
 40
1
 40
1
 40
1
 10
65.122431
 20
173.014617
 30
0.0
 10
65.324283
 20
173.216470
 30
0.0
 10
65.598055
 20
173.329870
 30
0.0
 10
65.883518
 20
173.329870
 30
0.0
  0
LWPOLYLINE
  5
1cf
100
AcDbEntity
  8
visible
 62
1
100
AcDbPolyline
 90
2
 70
0
 10
64.807178
 20
171.813209
 30
0.0
 10
64.807178
 20
172.253531
 30
0.0
  0
LWPOLYLINE
  5
1d0
100
AcDbEntity
  8
visible
 62
1
100
AcDbPolyline
 90
1
 70
1
 10
65.883518
 20
173.329870
 30
0.0
  0
SPLINE
  5
1d1
100
AcDbEntity
  8
visible
 62
1
100
AcDbSpline
 70
8
 71
3
 72
8
 73
4
 74
0
 40
0
 40
0
 40
0
 40
0
 40
1
 40
1
 40
1
 40
1
 10
60.552785
 20
176.804740
 30
0.0
 10
60.814323
 20
176.804740
 30
0.0
 10
61.065150
 20
176.691340
 30
0.0
 10
61.250085
 20
176.489487
 30
0.0
  0
SPLINE
  5
1d2
100
AcDbEntity
  8
visible
 62
1
100
AcDbSpline
 70
8
 71
3
 72
8
 73
4
 74
0
 40
0
 40
0
 40
0
 40
0
 40
1
 40
1
 40
1
 40
1
 10
61.250085
 20
176.489487
 30
0.0
 10
61.435021
 20
176.287635
 30
0.0
 10
61.538916
 20
176.013863
 30
0.0
 10
61.538916
 20
175.728400
 30
0.0
  0
LWPOLYLINE
  5
1d3
100
AcDbEntity
  8
visible
 62
1
100
AcDbPolyline
 90
2
 70
0
 10
58.380446
 20
176.804740
 30
0.0
 10
60.552785
 20
176.804740
 30
0.0
  0
SPLINE
  5
1d4
100
AcDbEntity
  8
visible
 62
1
100
AcDbSpline
 70
8
 71
3
 72
8
 73
4
 74
0
 40
0
 40
0
 40
0
 40
0
 40
1
 40
1
 40
1
 40
1
 10
61.538916
 20
175.288079
 30
0.0
 10
61.538916
 20
175.002616
 30
0.0
 10
61.435021
 20
174.728845
 30
0.0
 10
61.250085
 20
174.526992
 30
0.0
  0
SPLINE
  5
1d5
100
AcDbEntity
  8
visible
 62
1
100
AcDbSpline
 70
8
 71
3
 72
8
 73
4
 74
0
 40
0
 40
0
 40
0
 40
0
 40
1
 40
1
 40
1
 40
1
 10
61.250085
 20
174.526992
 30
0.0
 10
61.065150
 20
174.325140
 30
0.0
 10
60.814323
 20
174.211740
 30
0.0
 10
60.552785
 20
174.211740
 30
0.0
  0
LWPOLYLINE
  5
1d6
100
AcDbEntity
  8
visible
 62
1
100
AcDbPolyline
 90
2
 70
0
 10
61.538916
 20
175.728400
 30
0.0
 10
61.538916
 20
175.288079
 30
0.0
  0
SPLINE
  5
1d7
100
AcDbEntity
  8
visible
 62
1
100
AcDbSpline
 70
8
 71
3
 72
8
 73
4
 74
0
 40
0
 40
0
 40
0
 40
0
 40
1
 40
1
 40
1
 40
1
 10
58.380446
 20
174.211740
 30
0.0
 10
58.118907
 20
174.211740
 30
0.0
 10
57.868081
 20
174.325140
 30
0.0
 10
57.683145
 20
174.526992
 30
0.0
  0
SPLINE
  5
1d8
100
AcDbEntity
  8
visible
 62
1
100
AcDbSpline
 70
8
 71
3
 72
8
 73
4
 74
0
 40
0
 40
0
 40
0
 40
0
 40
1
 40
1
 40
1
 40
1
 10
57.683145
 20
174.526992
 30
0.0
 10
57.498210
 20
174.728845
 30
0.0
 10
57.394314
 20
175.002616
 30
0.0
 10
57.394314
 20
175.288079
 30
0.0
  0
LWPOLYLINE
  5
1d9
100
AcDbEntity
  8
visible
 62
1
100
AcDbPolyline
 90
2
 70
0
 10
60.552785
 20
174.211740
 30
0.0
 10
58.380446
 20
174.211740
 30
0.0
  0
SPLINE
  5
1da
100
AcDbEntity
  8
visible
 62
1
100
AcDbSpline
 70
8
 71
3
 72
8
 73
4
 74
0
 40
0
 40
0
 40
0
 40
0
 40
1
 40
1
 40
1
 40
1
 10
57.394314
 20
175.728400
 30
0.0
 10
57.394314
 20
176.013863
 30
0.0
 10
57.498210
 20
176.287635
 30
0.0
 10
57.683145
 20
176.489487
 30
0.0
  0
SPLINE
  5
1db
100
AcDbEntity
  8
visible
 62
1
100
AcDbSpline
 70
8
 71
3
 72
8
 73
4
 74
0
 40
0
 40
0
 40
0
 40
0
 40
1
 40
1
 40
1
 40
1
 10
57.683145
 20
176.489487
 30
0.0
 10
57.868081
 20
176.691340
 30
0.0
 10
58.118907
 20
176.804740
 30
0.0
 10
58.380446
 20
176.804740
 30
0.0
  0
LWPOLYLINE
  5
1dc
100
AcDbEntity
  8
visible
 62
1
100
AcDbPolyline
 90
2
 70
0
 10
57.394314
 20
175.288079
 30
0.0
 10
57.394314
 20
175.728400
 30
0.0
  0
LWPOLYLINE
  5
1dd
100
AcDbEntity
  8
visible
 62
1
100
AcDbPolyline
 90
1
 70
1
 10
58.380446
 20
176.804740
 30
0.0
  0
SPLINE
  5
1de
100
AcDbEntity
  8
visible
 62
1
100
AcDbSpline
 70
8
 71
3
 72
8
 73
4
 74
0
 40
0
 40
0
 40
0
 40
0
 40
1
 40
1
 40
1
 40
1
 10
60.552785
 20
173.329870
 30
0.0
 10
60.814323
 20
173.329870
 30
0.0
 10
61.065150
 20
173.216470
 30
0.0
 10
61.250085
 20
173.014617
 30
0.0
  0
SPLINE
  5
1df
100
AcDbEntity
  8
visible
 62
1
100
AcDbSpline
 70
8
 71
3
 72
8
 73
4
 74
0
 40
0
 40
0
 40
0
 40
0
 40
1
 40
1
 40
1
 40
1
 10
61.250085
 20
173.014617
 30
0.0
 10
61.435021
 20
172.812765
 30
0.0
 10
61.538916
 20
172.538993
 30
0.0
 10
61.538916
 20
172.253531
 30
0.0
  0
LWPOLYLINE
  5
1e0
100
AcDbEntity
  8
visible
 62
1
100
AcDbPolyline
 90
2
 70
0
 10
58.380446
 20
173.329870
 30
0.0
 10
60.552785
 20
173.329870
 30
0.0
  0
SPLINE
  5
1e1
100
AcDbEntity
  8
visible
 62
1
100
AcDbSpline
 70
8
 71
3
 72
8
 73
4
 74
0
 40
0
 40
0
 40
0
 40
0
 40
1
 40
1
 40
1
 40
1
 10
61.538916
 20
171.813209
 30
0.0
 10
61.538916
 20
171.527746
 30
0.0
 10
61.435021
 20
171.253975
 30
0.0
 10
61.250085
 20
171.052122
 30
0.0
  0
SPLINE
  5
1e2
100
AcDbEntity
  8
visible
 62
1
100
AcDbSpline
 70
8
 71
3
 72
8
 73
4
 74
0
 40
0
 40
0
 40
0
 40
0
 40
1
 40
1
 40
1
 40
1
 10
61.250085
 20
171.052122
 30
0.0
 10
61.065150
 20
170.850270
 30
0.0
 10
60.814323
 20
170.736870
 30
0.0
 10
60.552785
 20
170.736870
 30
0.0
  0
LWPOLYLINE
  5
1e3
100
AcDbEntity
  8
visible
 62
1
100
AcDbPolyline
 90
2
 70
0
 10
61.538916
 20
172.253531
 30
0.0
 10
61.538916
 20
171.813209
 30
0.0
  0
SPLINE
  5
1e4
100
AcDbEntity
  8
visible
 62
1
100
AcDbSpline
 70
8
 71
3
 72
8
 73
4
 74
0
 40
0
 40
0
 40
0
 40
0
 40
1
 40
1
 40
1
 40
1
 10
58.380446
 20
170.736870
 30
0.0
 10
58.118907
 20
170.736870
 30
0.0
 10
57.868081
 20
170.850270
 30
0.0
 10
57.683145
 20
171.052122
 30
0.0
  0
SPLINE
  5
1e5
100
AcDbEntity
  8
visible
 62
1
100
AcDbSpline
 70
8
 71
3
 72
8
 73
4
 74
0
 40
0
 40
0
 40
0
 40
0
 40
1
 40
1
 40
1
 40
1
 10
57.683145
 20
171.052122
 30
0.0
 10
57.498210
 20
171.253975
 30
0.0
 10
57.394314
 20
171.527746
 30
0.0
 10
57.394314
 20
171.813209
 30
0.0
  0
LWPOLYLINE
  5
1e6
100
AcDbEntity
  8
visible
 62
1
100
AcDbPolyline
 90
2
 70
0
 10
60.552785
 20
170.736870
 30
0.0
 10
58.380446
 20
170.736870
 30
0.0
  0
SPLINE
  5
1e7
100
AcDbEntity
  8
visible
 62
1
100
AcDbSpline
 70
8
 71
3
 72
8
 73
4
 74
0
 40
0
 40
0
 40
0
 40
0
 40
1
 40
1
 40
1
 40
1
 10
57.394314
 20
172.253531
 30
0.0
 10
57.394314
 20
172.538993
 30
0.0
 10
57.498210
 20
172.812765
 30
0.0
 10
57.683145
 20
173.014617
 30
0.0
  0
SPLINE
  5
1e8
100
AcDbEntity
  8
visible
 62
1
100
AcDbSpline
 70
8
 71
3
 72
8
 73
4
 74
0
 40
0
 40
0
 40
0
 40
0
 40
1
 40
1
 40
1
 40
1
 10
57.683145
 20
173.014617
 30
0.0
 10
57.868081
 20
173.216470
 30
0.0
 10
58.118907
 20
173.329870
 30
0.0
 10
58.380446
 20
173.329870
 30
0.0
  0
LWPOLYLINE
  5
1e9
100
AcDbEntity
  8
visible
 62
1
100
AcDbPolyline
 90
2
 70
0
 10
57.394314
 20
171.813209
 30
0.0
 10
57.394314
 20
172.253531
 30
0.0
  0
LWPOLYLINE
  5
1ea
100
AcDbEntity
  8
visible
 62
1
100
AcDbPolyline
 90
1
 70
1
 10
58.380446
 20
173.329870
 30
0.0
  0
SPLINE
  5
1eb
100
AcDbEntity
  8
visible
 62
1
100
AcDbSpline
 70
8
 71
3
 72
8
 73
4
 74
0
 40
0
 40
0
 40
0
 40
0
 40
1
 40
1
 40
1
 40
1
 10
40.922479
 20
180.090030
 30
0.0
 10
41.198010
 20
180.090030
 30
0.0
 10
41.462257
 20
179.980576
 30
0.0
 10
41.657087
 20
179.785746
 30
0.0
  0
SPLINE
  5
1ec
100
AcDbEntity
  8
visible
 62
1
100
AcDbSpline
 70
8
 71
3
 72
8
 73
4
 74
0
 40
0
 40
0
 40
0
 40
0
 40
1
 40
1
 40
1
 40
1
 10
41.657087
 20
179.785746
 30
0.0
 10
41.851917
 20
179.590916
 30
0.0
 10
41.961371
 20
179.326670
 30
0.0
 10
41.961371
 20
179.051138
 30
0.0
  0
LWPOLYLINE
  5
1ed
100
AcDbEntity
  8
visible
 62
1
100
AcDbPolyline
 90
2
 70
0
 10
35.264671
 20
180.090030
 30
0.0
 10
40.922479
 20
180.090030
 30
0.0
  0
SPLINE
  5
1ee
100
AcDbEntity
  8
visible
 62
1
100
AcDbSpline
 70
8
 71
3
 72
8
 73
4
 74
0
 40
0
 40
0
 40
0
 40
0
 40
1
 40
1
 40
1
 40
1
 10
41.961371
 20
178.626137
 30
0.0
 10
41.961371
 20
178.350606
 30
0.0
 10
41.851917
 20
178.086360
 30
0.0
 10
41.657087
 20
177.891530
 30
0.0
  0
SPLINE
  5
1ef
100
AcDbEntity
  8
visible
 62
1
100
AcDbSpline
 70
8
 71
3
 72
8
 73
4
 74
0
 40
0
 40
0
 40
0
 40
0
 40
1
 40
1
 40
1
 40
1
 10
41.657087
 20
177.891530
 30
0.0
 10
41.462257
 20
177.696700
 30
0.0
 10
41.198010
 20
177.587245
 30
0.0
 10
40.922479
 20
177.587245
 30
0.0
  0
LWPOLYLINE
  5
1f0
100
AcDbEntity
  8
visible
 62
1
100
AcDbPolyline
 90
2
 70
0
 10
41.961371
 20
179.051138
 30
0.0
 10
41.961371
 20
178.626137
 30
0.0
  0
SPLINE
  5
1f1
100
AcDbEntity
  8
visible
 62
1
100
AcDbSpline
 70
8
 71
3
 72
8
 73
4
 74
0
 40
0
 40
0
 40
0
 40
0
 40
1
 40
1
 40
1
 40
1
 10
35.264671
 20
177.587245
 30
0.0
 10
34.989139
 20
177.587245
 30
0.0
 10
34.724893
 20
177.696700
 30
0.0
 10
34.530063
 20
177.891530
 30
0.0
  0
SPLINE
  5
1f2
100
AcDbEntity
  8
visible
 62
1
100
AcDbSpline
 70
8
 71
3
 72
8
 73
4
 74
0
 40
0
 40
0
 40
0
 40
0
 40
1
 40
1
 40
1
 40
1
 10
34.530063
 20
177.891530
 30
0.0
 10
34.335233
 20
178.086360
 30
0.0
 10
34.225779
 20
178.350606
 30
0.0
 10
34.225779
 20
178.626137
 30
0.0
  0
LWPOLYLINE
  5
1f3
100
AcDbEntity
  8
visible
 62
1
100
AcDbPolyline
 90
2
 70
0
 10
40.922479
 20
177.587245
 30
0.0
 10
35.264671
 20
177.587245
 30
0.0
  0
SPLINE
  5
1f4
100
AcDbEntity
  8
visible
 62
1
100
AcDbSpline
 70
8
 71
3
 72
8
 73
4
 74
0
 40
0
 40
0
 40
0
 40
0
 40
1
 40
1
 40
1
 40
1
 10
34.225779
 20
179.051138
 30
0.0
 10
34.225779
 20
179.326670
 30
0.0
 10
34.335233
 20
179.590916
 30
0.0
 10
34.530063
 20
179.785746
 30
0.0
  0
SPLINE
  5
1f5
100
AcDbEntity
  8
visible
 62
1
100
AcDbSpline
 70
8
 71
3
 72
8
 73
4
 74
0
 40
0
 40
0
 40
0
 40
0
 40
1
 40
1
 40
1
 40
1
 10
34.530063
 20
179.785746
 30
0.0
 10
34.724893
 20
179.980576
 30
0.0
 10
34.989139
 20
180.090030
 30
0.0
 10
35.264671
 20
180.090030
 30
0.0
  0
LWPOLYLINE
  5
1f6
100
AcDbEntity
  8
visible
 62
1
100
AcDbPolyline
 90
2
 70
0
 10
34.225779
 20
178.626137
 30
0.0
 10
34.225779
 20
179.051138
 30
0.0
  0
LWPOLYLINE
  5
1f7
100
AcDbEntity
  8
visible
 62
1
100
AcDbPolyline
 90
1
 70
1
 10
35.264671
 20
180.090030
 30
0.0
  0
SPLINE
  5
1f8
100
AcDbEntity
  8
visible
 62
1
100
AcDbSpline
 70
8
 71
3
 72
8
 73
4
 74
0
 40
0
 40
0
 40
0
 40
0
 40
1
 40
1
 40
1
 40
1
 10
51.936483
 20
180.090030
 30
0.0
 10
52.212015
 20
180.090030
 30
0.0
 10
52.476261
 20
179.980576
 30
0.0
 10
52.671091
 20
179.785746
 30
0.0
  0
SPLINE
  5
1f9
100
AcDbEntity
  8
visible
 62
1
100
AcDbSpline
 70
8
 71
3
 72
8
 73
4
 74
0
 40
0
 40
0
 40
0
 40
0
 40
1
 40
1
 40
1
 40
1
 10
52.671091
 20
179.785746
 30
0.0
 10
52.865921
 20
179.590916
 30
0.0
 10
52.975375
 20
179.326670
 30
0.0
 10
52.975375
 20
179.051138
 30
0.0
  0
LWPOLYLINE
  5
1fa
100
AcDbEntity
  8
visible
 62
1
100
AcDbPolyline
 90
2
 70
0
 10
46.268570
 20
180.090030
 30
0.0
 10
51.936483
 20
180.090030
 30
0.0
  0
SPLINE
  5
1fb
100
AcDbEntity
  8
visible
 62
1
100
AcDbSpline
 70
8
 71
3
 72
8
 73
4
 74
0
 40
0
 40
0
 40
0
 40
0
 40
1
 40
1
 40
1
 40
1
 10
52.975375
 20
178.626137
 30
0.0
 10
52.975375
 20
178.350606
 30
0.0
 10
52.865921
 20
178.086360
 30
0.0
 10
52.671091
 20
177.891530
 30
0.0
  0
SPLINE
  5
1fc
100
AcDbEntity
  8
visible
 62
1
100
AcDbSpline
 70
8
 71
3
 72
8
 73
4
 74
0
 40
0
 40
0
 40
0
 40
0
 40
1
 40
1
 40
1
 40
1
 10
52.671091
 20
177.891530
 30
0.0
 10
52.476261
 20
177.696700
 30
0.0
 10
52.212015
 20
177.587245
 30
0.0
 10
51.936483
 20
177.587245
 30
0.0
  0
LWPOLYLINE
  5
1fd
100
AcDbEntity
  8
visible
 62
1
100
AcDbPolyline
 90
2
 70
0
 10
52.975375
 20
179.051138
 30
0.0
 10
52.975375
 20
178.626137
 30
0.0
  0
SPLINE
  5
1fe
100
AcDbEntity
  8
visible
 62
1
100
AcDbSpline
 70
8
 71
3
 72
8
 73
4
 74
0
 40
0
 40
0
 40
0
 40
0
 40
1
 40
1
 40
1
 40
1
 10
46.268570
 20
177.587245
 30
0.0
 10
45.993038
 20
177.587245
 30
0.0
 10
45.728792
 20
177.696700
 30
0.0
 10
45.533962
 20
177.891530
 30
0.0
  0
SPLINE
  5
1ff
100
AcDbEntity
  8
visible
 62
1
100
AcDbSpline
 70
8
 71
3
 72
8
 73
4
 74
0
 40
0
 40
0
 40
0
 40
0
 40
1
 40
1
 40
1
 40
1
 10
45.533962
 20
177.891530
 30
0.0
 10
45.339132
 20
178.086360
 30
0.0
 10
45.229678
 20
178.350606
 30
0.0
 10
45.229678
 20
178.626137
 30
0.0
  0
LWPOLYLINE
  5
200
100
AcDbEntity
  8
visible
 62
1
100
AcDbPolyline
 90
2
 70
0
 10
51.936483
 20
177.587245
 30
0.0
 10
46.268570
 20
177.587245
 30
0.0
  0
SPLINE
  5
201
100
AcDbEntity
  8
visible
 62
1
100
AcDbSpline
 70
8
 71
3
 72
8
 73
4
 74
0
 40
0
 40
0
 40
0
 40
0
 40
1
 40
1
 40
1
 40
1
 10
45.229678
 20
179.051138
 30
0.0
 10
45.229678
 20
179.326670
 30
0.0
 10
45.339132
 20
179.590916
 30
0.0
 10
45.533962
 20
179.785746
 30
0.0
  0
SPLINE
  5
202
100
AcDbEntity
  8
visible
 62
1
100
AcDbSpline
 70
8
 71
3
 72
8
 73
4
 74
0
 40
0
 40
0
 40
0
 40
0
 40
1
 40
1
 40
1
 40
1
 10
45.533962
 20
179.785746
 30
0.0
 10
45.728792
 20
179.980576
 30
0.0
 10
45.993038
 20
180.090030
 30
0.0
 10
46.268570
 20
180.090030
 30
0.0
  0
LWPOLYLINE
  5
203
100
AcDbEntity
  8
visible
 62
1
100
AcDbPolyline
 90
2
 70
0
 10
45.229678
 20
178.626137
 30
0.0
 10
45.229678
 20
179.051138
 30
0.0
  0
LWPOLYLINE
  5
204
100
AcDbEntity
  8
visible
 62
1
100
AcDbPolyline
 90
1
 70
1
 10
46.268570
 20
180.090030
 30
0.0
  0
SPLINE
  5
205
100
AcDbEntity
  8
visible
 62
1
100
AcDbSpline
 70
8
 71
3
 72
8
 73
4
 74
0
 40
0
 40
0
 40
0
 40
0
 40
1
 40
1
 40
1
 40
1
 10
48.677075
 20
176.804740
 30
0.0
 10
48.962538
 20
176.804740
 30
0.0
 10
49.236309
 20
176.691340
 30
0.0
 10
49.438162
 20
176.489487
 30
0.0
  0
SPLINE
  5
206
100
AcDbEntity
  8
visible
 62
1
100
AcDbSpline
 70
8
 71
3
 72
8
 73
4
 74
0
 40
0
 40
0
 40
0
 40
0
 40
1
 40
1
 40
1
 40
1
 10
49.438162
 20
176.489487
 30
0.0
 10
49.640015
 20
176.287635
 30
0.0
 10
49.753414
 20
176.013863
 30
0.0
 10
49.753414
 20
175.728400
 30
0.0
  0
LWPOLYLINE
  5
207
100
AcDbEntity
  8
visible
 62
1
100
AcDbPolyline
 90
2
 70
0
 10
46.306018
 20
176.804740
 30
0.0
 10
48.677075
 20
176.804740
 30
0.0
  0
SPLINE
  5
208
100
AcDbEntity
  8
visible
 62
1
100
AcDbSpline
 70
8
 71
3
 72
8
 73
4
 74
0
 40
0
 40
0
 40
0
 40
0
 40
1
 40
1
 40
1
 40
1
 10
49.753414
 20
175.288079
 30
0.0
 10
49.753414
 20
175.002616
 30
0.0
 10
49.640015
 20
174.728845
 30
0.0
 10
49.438162
 20
174.526992
 30
0.0
  0
SPLINE
  5
209
100
AcDbEntity
  8
visible
 62
1
100
AcDbSpline
 70
8
 71
3
 72
8
 73
4
 74
0
 40
0
 40
0
 40
0
 40
0
 40
1
 40
1
 40
1
 40
1
 10
49.438162
 20
174.526992
 30
0.0
 10
49.236309
 20
174.325140
 30
0.0
 10
48.962538
 20
174.211740
 30
0.0
 10
48.677075
 20
174.211740
 30
0.0
  0
LWPOLYLINE
  5
20a
100
AcDbEntity
  8
visible
 62
1
100
AcDbPolyline
 90
2
 70
0
 10
49.753414
 20
175.728400
 30
0.0
 10
49.753414
 20
175.288079
 30
0.0
  0
SPLINE
  5
20b
100
AcDbEntity
  8
visible
 62
1
100
AcDbSpline
 70
8
 71
3
 72
8
 73
4
 74
0
 40
0
 40
0
 40
0
 40
0
 40
1
 40
1
 40
1
 40
1
 10
46.306018
 20
174.211740
 30
0.0
 10
46.020555
 20
174.211740
 30
0.0
 10
45.746783
 20
174.325140
 30
0.0
 10
45.544931
 20
174.526992
 30
0.0
  0
SPLINE
  5
20c
100
AcDbEntity
  8
visible
 62
1
100
AcDbSpline
 70
8
 71
3
 72
8
 73
4
 74
0
 40
0
 40
0
 40
0
 40
0
 40
1
 40
1
 40
1
 40
1
 10
45.544931
 20
174.526992
 30
0.0
 10
45.343078
 20
174.728845
 30
0.0
 10
45.229678
 20
175.002616
 30
0.0
 10
45.229678
 20
175.288079
 30
0.0
  0
LWPOLYLINE
  5
20d
100
AcDbEntity
  8
visible
 62
1
100
AcDbPolyline
 90
2
 70
0
 10
48.677075
 20
174.211740
 30
0.0
 10
46.306018
 20
174.211740
 30
0.0
  0
SPLINE
  5
20e
100
AcDbEntity
  8
visible
 62
1
100
AcDbSpline
 70
8
 71
3
 72
8
 73
4
 74
0
 40
0
 40
0
 40
0
 40
0
 40
1
 40
1
 40
1
 40
1
 10
45.229678
 20
175.728400
 30
0.0
 10
45.229678
 20
176.013863
 30
0.0
 10
45.343078
 20
176.287635
 30
0.0
 10
45.544931
 20
176.489487
 30
0.0
  0
SPLINE
  5
20f
100
AcDbEntity
  8
visible
 62
1
100
AcDbSpline
 70
8
 71
3
 72
8
 73
4
 74
0
 40
0
 40
0
 40
0
 40
0
 40
1
 40
1
 40
1
 40
1
 10
45.544931
 20
176.489487
 30
0.0
 10
45.746783
 20
176.691340
 30
0.0
 10
46.020555
 20
176.804740
 30
0.0
 10
46.306018
 20
176.804740
 30
0.0
  0
LWPOLYLINE
  5
210
100
AcDbEntity
  8
visible
 62
1
100
AcDbPolyline
 90
2
 70
0
 10
45.229678
 20
175.288079
 30
0.0
 10
45.229678
 20
175.728400
 30
0.0
  0
LWPOLYLINE
  5
211
100
AcDbEntity
  8
visible
 62
1
100
AcDbPolyline
 90
1
 70
1
 10
46.306018
 20
176.804740
 30
0.0
  0
SPLINE
  5
212
100
AcDbEntity
  8
visible
 62
1
100
AcDbSpline
 70
8
 71
3
 72
8
 73
4
 74
0
 40
0
 40
0
 40
0
 40
0
 40
1
 40
1
 40
1
 40
1
 10
48.677075
 20
173.329870
 30
0.0
 10
48.962538
 20
173.329870
 30
0.0
 10
49.236309
 20
173.216470
 30
0.0
 10
49.438162
 20
173.014617
 30
0.0
  0
SPLINE
  5
213
100
AcDbEntity
  8
visible
 62
1
100
AcDbSpline
 70
8
 71
3
 72
8
 73
4
 74
0
 40
0
 40
0
 40
0
 40
0
 40
1
 40
1
 40
1
 40
1
 10
49.438162
 20
173.014617
 30
0.0
 10
49.640015
 20
172.812765
 30
0.0
 10
49.753414
 20
172.538993
 30
0.0
 10
49.753414
 20
172.253531
 30
0.0
  0
LWPOLYLINE
  5
214
100
AcDbEntity
  8
visible
 62
1
100
AcDbPolyline
 90
2
 70
0
 10
46.306018
 20
173.329870
 30
0.0
 10
48.677075
 20
173.329870
 30
0.0
  0
SPLINE
  5
215
100
AcDbEntity
  8
visible
 62
1
100
AcDbSpline
 70
8
 71
3
 72
8
 73
4
 74
0
 40
0
 40
0
 40
0
 40
0
 40
1
 40
1
 40
1
 40
1
 10
49.753414
 20
171.813209
 30
0.0
 10
49.753414
 20
171.527746
 30
0.0
 10
49.640015
 20
171.253975
 30
0.0
 10
49.438162
 20
171.052122
 30
0.0
  0
SPLINE
  5
216
100
AcDbEntity
  8
visible
 62
1
100
AcDbSpline
 70
8
 71
3
 72
8
 73
4
 74
0
 40
0
 40
0
 40
0
 40
0
 40
1
 40
1
 40
1
 40
1
 10
49.438162
 20
171.052122
 30
0.0
 10
49.236309
 20
170.850270
 30
0.0
 10
48.962538
 20
170.736870
 30
0.0
 10
48.677075
 20
170.736870
 30
0.0
  0
LWPOLYLINE
  5
217
100
AcDbEntity
  8
visible
 62
1
100
AcDbPolyline
 90
2
 70
0
 10
49.753414
 20
172.253531
 30
0.0
 10
49.753414
 20
171.813209
 30
0.0
  0
SPLINE
  5
218
100
AcDbEntity
  8
visible
 62
1
100
AcDbSpline
 70
8
 71
3
 72
8
 73
4
 74
0
 40
0
 40
0
 40
0
 40
0
 40
1
 40
1
 40
1
 40
1
 10
46.306018
 20
170.736870
 30
0.0
 10
46.020555
 20
170.736870
 30
0.0
 10
45.746783
 20
170.850270
 30
0.0
 10
45.544931
 20
171.052122
 30
0.0
  0
SPLINE
  5
219
100
AcDbEntity
  8
visible
 62
1
100
AcDbSpline
 70
8
 71
3
 72
8
 73
4
 74
0
 40
0
 40
0
 40
0
 40
0
 40
1
 40
1
 40
1
 40
1
 10
45.544931
 20
171.052122
 30
0.0
 10
45.343078
 20
171.253975
 30
0.0
 10
45.229678
 20
171.527746
 30
0.0
 10
45.229678
 20
171.813209
 30
0.0
  0
LWPOLYLINE
  5
21a
100
AcDbEntity
  8
visible
 62
1
100
AcDbPolyline
 90
2
 70
0
 10
48.677075
 20
170.736870
 30
0.0
 10
46.306018
 20
170.736870
 30
0.0
  0
SPLINE
  5
21b
100
AcDbEntity
  8
visible
 62
1
100
AcDbSpline
 70
8
 71
3
 72
8
 73
4
 74
0
 40
0
 40
0
 40
0
 40
0
 40
1
 40
1
 40
1
 40
1
 10
45.229678
 20
172.253531
 30
0.0
 10
45.229678
 20
172.538993
 30
0.0
 10
45.343078
 20
172.812765
 30
0.0
 10
45.544931
 20
173.014617
 30
0.0
  0
SPLINE
  5
21c
100
AcDbEntity
  8
visible
 62
1
100
AcDbSpline
 70
8
 71
3
 72
8
 73
4
 74
0
 40
0
 40
0
 40
0
 40
0
 40
1
 40
1
 40
1
 40
1
 10
45.544931
 20
173.014617
 30
0.0
 10
45.746783
 20
173.216470
 30
0.0
 10
46.020555
 20
173.329870
 30
0.0
 10
46.306018
 20
173.329870
 30
0.0
  0
LWPOLYLINE
  5
21d
100
AcDbEntity
  8
visible
 62
1
100
AcDbPolyline
 90
2
 70
0
 10
45.229678
 20
171.813209
 30
0.0
 10
45.229678
 20
172.253531
 30
0.0
  0
LWPOLYLINE
  5
21e
100
AcDbEntity
  8
visible
 62
1
100
AcDbPolyline
 90
1
 70
1
 10
46.306018
 20
173.329870
 30
0.0
  0
SPLINE
  5
21f
100
AcDbEntity
  8
visible
 62
1
100
AcDbSpline
 70
8
 71
3
 72
8
 73
4
 74
0
 40
0
 40
0
 40
0
 40
0
 40
1
 40
1
 40
1
 40
1
 10
40.975285
 20
176.804740
 30
0.0
 10
41.236823
 20
176.804740
 30
0.0
 10
41.487650
 20
176.691340
 30
0.0
 10
41.672585
 20
176.489487
 30
0.0
  0
SPLINE
  5
220
100
AcDbEntity
  8
visible
 62
1
100
AcDbSpline
 70
8
 71
3
 72
8
 73
4
 74
0
 40
0
 40
0
 40
0
 40
0
 40
1
 40
1
 40
1
 40
1
 10
41.672585
 20
176.489487
 30
0.0
 10
41.857521
 20
176.287635
 30
0.0
 10
41.961416
 20
176.013863
 30
0.0
 10
41.961416
 20
175.728400
 30
0.0
  0
LWPOLYLINE
  5
221
100
AcDbEntity
  8
visible
 62
1
100
AcDbPolyline
 90
2
 70
0
 10
38.802946
 20
176.804740
 30
0.0
 10
40.975285
 20
176.804740
 30
0.0
  0
SPLINE
  5
222
100
AcDbEntity
  8
visible
 62
1
100
AcDbSpline
 70
8
 71
3
 72
8
 73
4
 74
0
 40
0
 40
0
 40
0
 40
0
 40
1
 40
1
 40
1
 40
1
 10
41.961416
 20
175.288079
 30
0.0
 10
41.961416
 20
175.002616
 30
0.0
 10
41.857521
 20
174.728845
 30
0.0
 10
41.672585
 20
174.526992
 30
0.0
  0
SPLINE
  5
223
100
AcDbEntity
  8
visible
 62
1
100
AcDbSpline
 70
8
 71
3
 72
8
 73
4
 74
0
 40
0
 40
0
 40
0
 40
0
 40
1
 40
1
 40
1
 40
1
 10
41.672585
 20
174.526992
 30
0.0
 10
41.487650
 20
174.325140
 30
0.0
 10
41.236823
 20
174.211740
 30
0.0
 10
40.975285
 20
174.211740
 30
0.0
  0
LWPOLYLINE
  5
224
100
AcDbEntity
  8
visible
 62
1
100
AcDbPolyline
 90
2
 70
0
 10
41.961416
 20
175.728400
 30
0.0
 10
41.961416
 20
175.288079
 30
0.0
  0
SPLINE
  5
225
100
AcDbEntity
  8
visible
 62
1
100
AcDbSpline
 70
8
 71
3
 72
8
 73
4
 74
0
 40
0
 40
0
 40
0
 40
0
 40
1
 40
1
 40
1
 40
1
 10
38.802946
 20
174.211740
 30
0.0
 10
38.541407
 20
174.211740
 30
0.0
 10
38.290581
 20
174.325140
 30
0.0
 10
38.105645
 20
174.526992
 30
0.0
  0
SPLINE
  5
226
100
AcDbEntity
  8
visible
 62
1
100
AcDbSpline
 70
8
 71
3
 72
8
 73
4
 74
0
 40
0
 40
0
 40
0
 40
0
 40
1
 40
1
 40
1
 40
1
 10
38.105645
 20
174.526992
 30
0.0
 10
37.920710
 20
174.728845
 30
0.0
 10
37.816814
 20
175.002616
 30
0.0
 10
37.816814
 20
175.288079
 30
0.0
  0
LWPOLYLINE
  5
227
100
AcDbEntity
  8
visible
 62
1
100
AcDbPolyline
 90
2
 70
0
 10
40.975285
 20
174.211740
 30
0.0
 10
38.802946
 20
174.211740
 30
0.0
  0
SPLINE
  5
228
100
AcDbEntity
  8
visible
 62
1
100
AcDbSpline
 70
8
 71
3
 72
8
 73
4
 74
0
 40
0
 40
0
 40
0
 40
0
 40
1
 40
1
 40
1
 40
1
 10
37.816814
 20
175.728400
 30
0.0
 10
37.816814
 20
176.013863
 30
0.0
 10
37.920710
 20
176.287635
 30
0.0
 10
38.105645
 20
176.489487
 30
0.0
  0
SPLINE
  5
229
100
AcDbEntity
  8
visible
 62
1
100
AcDbSpline
 70
8
 71
3
 72
8
 73
4
 74
0
 40
0
 40
0
 40
0
 40
0
 40
1
 40
1
 40
1
 40
1
 10
38.105645
 20
176.489487
 30
0.0
 10
38.290581
 20
176.691340
 30
0.0
 10
38.541407
 20
176.804740
 30
0.0
 10
38.802946
 20
176.804740
 30
0.0
  0
LWPOLYLINE
  5
22a
100
AcDbEntity
  8
visible
 62
1
100
AcDbPolyline
 90
2
 70
0
 10
37.816814
 20
175.288079
 30
0.0
 10
37.816814
 20
175.728400
 30
0.0
  0
LWPOLYLINE
  5
22b
100
AcDbEntity
  8
visible
 62
1
100
AcDbPolyline
 90
1
 70
1
 10
38.802946
 20
176.804740
 30
0.0
  0
SPLINE
  5
22c
100
AcDbEntity
  8
visible
 62
1
100
AcDbSpline
 70
8
 71
3
 72
8
 73
4
 74
0
 40
0
 40
0
 40
0
 40
0
 40
1
 40
1
 40
1
 40
1
 10
40.975285
 20
173.329870
 30
0.0
 10
41.236823
 20
173.329870
 30
0.0
 10
41.487650
 20
173.216470
 30
0.0
 10
41.672585
 20
173.014617
 30
0.0
  0
SPLINE
  5
22d
100
AcDbEntity
  8
visible
 62
1
100
AcDbSpline
 70
8
 71
3
 72
8
 73
4
 74
0
 40
0
 40
0
 40
0
 40
0
 40
1
 40
1
 40
1
 40
1
 10
41.672585
 20
173.014617
 30
0.0
 10
41.857521
 20
172.812765
 30
0.0
 10
41.961416
 20
172.538993
 30
0.0
 10
41.961416
 20
172.253531
 30
0.0
  0
LWPOLYLINE
  5
22e
100
AcDbEntity
  8
visible
 62
1
100
AcDbPolyline
 90
2
 70
0
 10
38.802946
 20
173.329870
 30
0.0
 10
40.975285
 20
173.329870
 30
0.0
  0
SPLINE
  5
22f
100
AcDbEntity
  8
visible
 62
1
100
AcDbSpline
 70
8
 71
3
 72
8
 73
4
 74
0
 40
0
 40
0
 40
0
 40
0
 40
1
 40
1
 40
1
 40
1
 10
41.961416
 20
171.813209
 30
0.0
 10
41.961416
 20
171.527746
 30
0.0
 10
41.857521
 20
171.253975
 30
0.0
 10
41.672585
 20
171.052122
 30
0.0
  0
SPLINE
  5
230
100
AcDbEntity
  8
visible
 62
1
100
AcDbSpline
 70
8
 71
3
 72
8
 73
4
 74
0
 40
0
 40
0
 40
0
 40
0
 40
1
 40
1
 40
1
 40
1
 10
41.672585
 20
171.052122
 30
0.0
 10
41.487650
 20
170.850270
 30
0.0
 10
41.236823
 20
170.736870
 30
0.0
 10
40.975285
 20
170.736870
 30
0.0
  0
LWPOLYLINE
  5
231
100
AcDbEntity
  8
visible
 62
1
100
AcDbPolyline
 90
2
 70
0
 10
41.961416
 20
172.253531
 30
0.0
 10
41.961416
 20
171.813209
 30
0.0
  0
SPLINE
  5
232
100
AcDbEntity
  8
visible
 62
1
100
AcDbSpline
 70
8
 71
3
 72
8
 73
4
 74
0
 40
0
 40
0
 40
0
 40
0
 40
1
 40
1
 40
1
 40
1
 10
38.802946
 20
170.736870
 30
0.0
 10
38.541407
 20
170.736870
 30
0.0
 10
38.290581
 20
170.850270
 30
0.0
 10
38.105645
 20
171.052122
 30
0.0
  0
SPLINE
  5
233
100
AcDbEntity
  8
visible
 62
1
100
AcDbSpline
 70
8
 71
3
 72
8
 73
4
 74
0
 40
0
 40
0
 40
0
 40
0
 40
1
 40
1
 40
1
 40
1
 10
38.105645
 20
171.052122
 30
0.0
 10
37.920710
 20
171.253975
 30
0.0
 10
37.816814
 20
171.527746
 30
0.0
 10
37.816814
 20
171.813209
 30
0.0
  0
LWPOLYLINE
  5
234
100
AcDbEntity
  8
visible
 62
1
100
AcDbPolyline
 90
2
 70
0
 10
40.975285
 20
170.736870
 30
0.0
 10
38.802946
 20
170.736870
 30
0.0
  0
SPLINE
  5
235
100
AcDbEntity
  8
visible
 62
1
100
AcDbSpline
 70
8
 71
3
 72
8
 73
4
 74
0
 40
0
 40
0
 40
0
 40
0
 40
1
 40
1
 40
1
 40
1
 10
37.816814
 20
172.253531
 30
0.0
 10
37.816814
 20
172.538993
 30
0.0
 10
37.920710
 20
172.812765
 30
0.0
 10
38.105645
 20
173.014617
 30
0.0
  0
SPLINE
  5
236
100
AcDbEntity
  8
visible
 62
1
100
AcDbSpline
 70
8
 71
3
 72
8
 73
4
 74
0
 40
0
 40
0
 40
0
 40
0
 40
1
 40
1
 40
1
 40
1
 10
38.105645
 20
173.014617
 30
0.0
 10
38.290581
 20
173.216470
 30
0.0
 10
38.541407
 20
173.329870
 30
0.0
 10
38.802946
 20
173.329870
 30
0.0
  0
LWPOLYLINE
  5
237
100
AcDbEntity
  8
visible
 62
1
100
AcDbPolyline
 90
2
 70
0
 10
37.816814
 20
171.813209
 30
0.0
 10
37.816814
 20
172.253531
 30
0.0
  0
SPLINE
  5
238
100
AcDbEntity
  8
visible
 62
7
100
AcDbSpline
 70
8
 71
3
 72
8
 73
4
 74
0
 40
0
 40
0
 40
0
 40
0
 40
1
 40
1
 40
1
 40
1
 10
43.154390
 20
157.449880
 30
0.0
 10
42.602285
 20
157.449753
 30
0.0
 10
42.154748
 20
157.002215
 30
0.0
 10
42.154621
 20
156.450110
 30
0.0
  0
LWPOLYLINE
  5
239
100
AcDbEntity
  8
visible
 62
1
100
AcDbPolyline
 90
1
 70
1
 10
38.802946
 20
173.329870
 30
0.0
  0
SPLINE
  5
23a
100
AcDbEntity
  8
visible
 62
7
100
AcDbSpline
 70
8
 71
3
 72
8
 73
4
 74
0
 40
0
 40
0
 40
0
 40
0
 40
1
 40
1
 40
1
 40
1
 10
42.154621
 20
154.418880
 30
0.0
 10
42.154753
 20
153.866779
 30
0.0
 10
42.602289
 20
153.419247
 30
0.0
 10
43.154390
 20
153.419120
 30
0.0
  0
SPLINE
  5
23b
100
AcDbEntity
  8
visible
 62
7
100
AcDbSpline
 70
8
 71
3
 72
8
 73
4
 74
0
 40
0
 40
0
 40
0
 40
0
 40
1
 40
1
 40
1
 40
1
 10
43.154390
 20
153.419120
 30
0.0
 10
43.706489
 20
153.419250
 30
0.0
 10
44.154023
 20
153.866781
 30
0.0
 10
44.154155
 20
154.418880
 30
0.0
  0
LWPOLYLINE
  5
23c
100
AcDbEntity
  8
visible
 62
7
100
AcDbPolyline
 90
2
 70
0
 10
42.154621
 20
156.450110
 30
0.0
 10
42.154621
 20
154.418880
 30
0.0
  0
SPLINE
  5
23d
100
AcDbEntity
  8
visible
 62
7
100
AcDbSpline
 70
8
 71
3
 72
8
 73
4
 74
0
 40
0
 40
0
 40
0
 40
0
 40
1
 40
1
 40
1
 40
1
 10
44.154155
 20
156.450110
 30
0.0
 10
44.154028
 20
157.002213
 30
0.0
 10
43.706493
 20
157.449750
 30
0.0
 10
43.154390
 20
157.449880
 30
0.0
  0
LWPOLYLINE
  5
23e
100
AcDbEntity
  8
visible
 62
7
100
AcDbPolyline
 90
2
 70
0
 10
44.154155
 20
154.418880
 30
0.0
 10
44.154155
 20
156.450110
 30
0.0
  0
SPLINE
  5
23f
100
AcDbEntity
  8
visible
 62
7
100
AcDbSpline
 70
8
 71
3
 72
8
 73
4
 74
0
 40
0
 40
0
 40
0
 40
0
 40
1
 40
1
 40
1
 40
1
 10
52.583825
 20
157.449880
 30
0.0
 10
52.031720
 20
157.449753
 30
0.0
 10
51.584183
 20
157.002215
 30
0.0
 10
51.584056
 20
156.450110
 30
0.0
  0
LWPOLYLINE
  5
240
100
AcDbEntity
  8
visible
 62
7
100
AcDbPolyline
 90
1
 70
1
 10
43.154390
 20
157.449880
 30
0.0
  0
SPLINE
  5
241
100
AcDbEntity
  8
visible
 62
7
100
AcDbSpline
 70
8
 71
3
 72
8
 73
4
 74
0
 40
0
 40
0
 40
0
 40
0
 40
1
 40
1
 40
1
 40
1
 10
51.584056
 20
154.418880
 30
0.0
 10
51.584188
 20
153.866779
 30
0.0
 10
52.031724
 20
153.419247
 30
0.0
 10
52.583825
 20
153.419120
 30
0.0
  0
SPLINE
  5
242
100
AcDbEntity
  8
visible
 62
7
100
AcDbSpline
 70
8
 71
3
 72
8
 73
4
 74
0
 40
0
 40
0
 40
0
 40
0
 40
1
 40
1
 40
1
 40
1
 10
52.583825
 20
153.419120
 30
0.0
 10
53.135924
 20
153.419250
 30
0.0
 10
53.583458
 20
153.866781
 30
0.0
 10
53.583590
 20
154.418880
 30
0.0
  0
LWPOLYLINE
  5
243
100
AcDbEntity
  8
visible
 62
7
100
AcDbPolyline
 90
2
 70
0
 10
51.584056
 20
156.450110
 30
0.0
 10
51.584056
 20
154.418880
 30
0.0
  0
SPLINE
  5
244
100
AcDbEntity
  8
visible
 62
7
100
AcDbSpline
 70
8
 71
3
 72
8
 73
4
 74
0
 40
0
 40
0
 40
0
 40
0
 40
1
 40
1
 40
1
 40
1
 10
53.583590
 20
156.450110
 30
0.0
 10
53.583463
 20
157.002213
 30
0.0
 10
53.135928
 20
157.449750
 30
0.0
 10
52.583825
 20
157.449880
 30
0.0
  0
LWPOLYLINE
  5
245
100
AcDbEntity
  8
visible
 62
7
100
AcDbPolyline
 90
2
 70
0
 10
53.583590
 20
154.418880
 30
0.0
 10
53.583590
 20
156.450110
 30
0.0
  0
SPLINE
  5
246
100
AcDbEntity
  8
visible
 62
7
100
AcDbSpline
 70
8
 71
3
 72
8
 73
4
 74
0
 40
0
 40
0
 40
0
 40
0
 40
1
 40
1
 40
1
 40
1
 10
71.537390
 20
157.449880
 30
0.0
 10
70.985285
 20
157.449753
 30
0.0
 10
70.537748
 20
157.002215
 30
0.0
 10
70.537621
 20
156.450110
 30
0.0
  0
LWPOLYLINE
  5
247
100
AcDbEntity
  8
visible
 62
7
100
AcDbPolyline
 90
1
 70
1
 10
52.583825
 20
157.449880
 30
0.0
  0
SPLINE
  5
248
100
AcDbEntity
  8
visible
 62
7
100
AcDbSpline
 70
8
 71
3
 72
8
 73
4
 74
0
 40
0
 40
0
 40
0
 40
0
 40
1
 40
1
 40
1
 40
1
 10
70.537621
 20
154.418880
 30
0.0
 10
70.537753
 20
153.866779
 30
0.0
 10
70.985289
 20
153.419247
 30
0.0
 10
71.537390
 20
153.419120
 30
0.0
  0
SPLINE
  5
249
100
AcDbEntity
  8
visible
 62
7
100
AcDbSpline
 70
8
 71
3
 72
8
 73
4
 74
0
 40
0
 40
0
 40
0
 40
0
 40
1
 40
1
 40
1
 40
1
 10
71.537390
 20
153.419120
 30
0.0
 10
72.089489
 20
153.419250
 30
0.0
 10
72.537023
 20
153.866781
 30
0.0
 10
72.537155
 20
154.418880
 30
0.0
  0
LWPOLYLINE
  5
24a
100
AcDbEntity
  8
visible
 62
7
100
AcDbPolyline
 90
2
 70
0
 10
70.537621
 20
156.450110
 30
0.0
 10
70.537621
 20
154.418880
 30
0.0
  0
SPLINE
  5
24b
100
AcDbEntity
  8
visible
 62
7
100
AcDbSpline
 70
8
 71
3
 72
8
 73
4
 74
0
 40
0
 40
0
 40
0
 40
0
 40
1
 40
1
 40
1
 40
1
 10
72.537155
 20
156.450110
 30
0.0
 10
72.537028
 20
157.002213
 30
0.0
 10
72.089493
 20
157.449750
 30
0.0
 10
71.537390
 20
157.449880
 30
0.0
  0
LWPOLYLINE
  5
24c
100
AcDbEntity
  8
visible
 62
7
100
AcDbPolyline
 90
2
 70
0
 10
72.537155
 20
154.418880
 30
0.0
 10
72.537155
 20
156.450110
 30
0.0
  0
SPLINE
  5
24d
100
AcDbEntity
  8
visible
 62
7
100
AcDbSpline
 70
8
 71
3
 72
8
 73
4
 74
0
 40
0
 40
0
 40
0
 40
0
 40
1
 40
1
 40
1
 40
1
 10
80.966825
 20
157.449880
 30
0.0
 10
80.414720
 20
157.449753
 30
0.0
 10
79.967183
 20
157.002215
 30
0.0
 10
79.967056
 20
156.450110
 30
0.0
  0
LWPOLYLINE
  5
24e
100
AcDbEntity
  8
visible
 62
7
100
AcDbPolyline
 90
1
 70
1
 10
71.537390
 20
157.449880
 30
0.0
  0
SPLINE
  5
24f
100
AcDbEntity
  8
visible
 62
7
100
AcDbSpline
 70
8
 71
3
 72
8
 73
4
 74
0
 40
0
 40
0
 40
0
 40
0
 40
1
 40
1
 40
1
 40
1
 10
79.967056
 20
154.418880
 30
0.0
 10
79.967188
 20
153.866779
 30
0.0
 10
80.414724
 20
153.419247
 30
0.0
 10
80.966825
 20
153.419120
 30
0.0
  0
SPLINE
  5
250
100
AcDbEntity
  8
visible
 62
7
100
AcDbSpline
 70
8
 71
3
 72
8
 73
4
 74
0
 40
0
 40
0
 40
0
 40
0
 40
1
 40
1
 40
1
 40
1
 10
80.966825
 20
153.419120
 30
0.0
 10
81.518924
 20
153.419250
 30
0.0
 10
81.966458
 20
153.866781
 30
0.0
 10
81.966590
 20
154.418880
 30
0.0
  0
LWPOLYLINE
  5
251
100
AcDbEntity
  8
visible
 62
7
100
AcDbPolyline
 90
2
 70
0
 10
79.967056
 20
156.450110
 30
0.0
 10
79.967056
 20
154.418880
 30
0.0
  0
SPLINE
  5
252
100
AcDbEntity
  8
visible
 62
7
100
AcDbSpline
 70
8
 71
3
 72
8
 73
4
 74
0
 40
0
 40
0
 40
0
 40
0
 40
1
 40
1
 40
1
 40
1
 10
81.966590
 20
156.450110
 30
0.0
 10
81.966463
 20
157.002213
 30
0.0
 10
81.518928
 20
157.449750
 30
0.0
 10
80.966825
 20
157.449880
 30
0.0
  0
LWPOLYLINE
  5
253
100
AcDbEntity
  8
visible
 62
7
100
AcDbPolyline
 90
2
 70
0
 10
81.966590
 20
154.418880
 30
0.0
 10
81.966590
 20
156.450110
 30
0.0
  0
SPLINE
  5
254
100
AcDbEntity
  8
visible
 62
7
100
AcDbSpline
 70
8
 71
3
 72
8
 73
4
 74
0
 40
0
 40
0
 40
0
 40
0
 40
1
 40
1
 40
1
 40
1
 10
99.853190
 20
157.449880
 30
0.0
 10
99.301085
 20
157.449753
 30
0.0
 10
98.853548
 20
157.002215
 30
0.0
 10
98.853421
 20
156.450110
 30
0.0
  0
LWPOLYLINE
  5
255
100
AcDbEntity
  8
visible
 62
7
100
AcDbPolyline
 90
1
 70
1
 10
80.966825
 20
157.449880
 30
0.0
  0
SPLINE
  5
256
100
AcDbEntity
  8
visible
 62
7
100
AcDbSpline
 70
8
 71
3
 72
8
 73
4
 74
0
 40
0
 40
0
 40
0
 40
0
 40
1
 40
1
 40
1
 40
1
 10
98.853421
 20
154.418880
 30
0.0
 10
98.853553
 20
153.866779
 30
0.0
 10
99.301089
 20
153.419247
 30
0.0
 10
99.853190
 20
153.419120
 30
0.0
  0
SPLINE
  5
257
100
AcDbEntity
  8
visible
 62
7
100
AcDbSpline
 70
8
 71
3
 72
8
 73
4
 74
0
 40
0
 40
0
 40
0
 40
0
 40
1
 40
1
 40
1
 40
1
 10
99.853190
 20
153.419120
 30
0.0
 10
100.405289
 20
153.419250
 30
0.0
 10
100.852823
 20
153.866781
 30
0.0
 10
100.852955
 20
154.418880
 30
0.0
  0
LWPOLYLINE
  5
258
100
AcDbEntity
  8
visible
 62
7
100
AcDbPolyline
 90
2
 70
0
 10
98.853421
 20
156.450110
 30
0.0
 10
98.853421
 20
154.418880
 30
0.0
  0
SPLINE
  5
259
100
AcDbEntity
  8
visible
 62
7
100
AcDbSpline
 70
8
 71
3
 72
8
 73
4
 74
0
 40
0
 40
0
 40
0
 40
0
 40
1
 40
1
 40
1
 40
1
 10
100.852955
 20
156.450110
 30
0.0
 10
100.852828
 20
157.002213
 30
0.0
 10
100.405293
 20
157.449750
 30
0.0
 10
99.853190
 20
157.449880
 30
0.0
  0
LWPOLYLINE
  5
25a
100
AcDbEntity
  8
visible
 62
7
100
AcDbPolyline
 90
2
 70
0
 10
100.852955
 20
154.418880
 30
0.0
 10
100.852955
 20
156.450110
 30
0.0
  0
SPLINE
  5
25b
100
AcDbEntity
  8
visible
 62
7
100
AcDbSpline
 70
8
 71
3
 72
8
 73
4
 74
0
 40
0
 40
0
 40
0
 40
0
 40
1
 40
1
 40
1
 40
1
 10
109.282625
 20
157.449880
 30
0.0
 10
108.730520
 20
157.449753
 30
0.0
 10
108.282983
 20
157.002215
 30
0.0
 10
108.282856
 20
156.450110
 30
0.0
  0
LWPOLYLINE
  5
25c
100
AcDbEntity
  8
visible
 62
7
100
AcDbPolyline
 90
1
 70
1
 10
99.853190
 20
157.449880
 30
0.0
  0
SPLINE
  5
25d
100
AcDbEntity
  8
visible
 62
7
100
AcDbSpline
 70
8
 71
3
 72
8
 73
4
 74
0
 40
0
 40
0
 40
0
 40
0
 40
1
 40
1
 40
1
 40
1
 10
108.282856
 20
154.418880
 30
0.0
 10
108.282988
 20
153.866779
 30
0.0
 10
108.730524
 20
153.419247
 30
0.0
 10
109.282625
 20
153.419120
 30
0.0
  0
SPLINE
  5
25e
100
AcDbEntity
  8
visible
 62
7
100
AcDbSpline
 70
8
 71
3
 72
8
 73
4
 74
0
 40
0
 40
0
 40
0
 40
0
 40
1
 40
1
 40
1
 40
1
 10
109.282625
 20
153.419120
 30
0.0
 10
109.834724
 20
153.419250
 30
0.0
 10
110.282258
 20
153.866781
 30
0.0
 10
110.282390
 20
154.418880
 30
0.0
  0
LWPOLYLINE
  5
25f
100
AcDbEntity
  8
visible
 62
7
100
AcDbPolyline
 90
2
 70
0
 10
108.282856
 20
156.450110
 30
0.0
 10
108.282856
 20
154.418880
 30
0.0
  0
SPLINE
  5
260
100
AcDbEntity
  8
visible
 62
7
100
AcDbSpline
 70
8
 71
3
 72
8
 73
4
 74
0
 40
0
 40
0
 40
0
 40
0
 40
1
 40
1
 40
1
 40
1
 10
110.282390
 20
156.450110
 30
0.0
 10
110.282263
 20
157.002213
 30
0.0
 10
109.834728
 20
157.449750
 30
0.0
 10
109.282625
 20
157.449880
 30
0.0
  0
LWPOLYLINE
  5
261
100
AcDbEntity
  8
visible
 62
7
100
AcDbPolyline
 90
2
 70
0
 10
110.282390
 20
154.418880
 30
0.0
 10
110.282390
 20
156.450110
 30
0.0
  0
SPLINE
  5
262
100
AcDbEntity
  8
visible
 62
7
100
AcDbSpline
 70
8
 71
3
 72
8
 73
4
 74
0
 40
0
 40
0
 40
0
 40
0
 40
1
 40
1
 40
1
 40
1
 10
45.439690
 20
148.661288
 30
0.0
 10
45.168188
 20
148.661288
 30
0.0
 10
44.923419
 20
148.497739
 30
0.0
 10
44.819520
 20
148.246903
 30
0.0
  0
SPLINE
  5
263
100
AcDbEntity
  8
visible
 62
7
100
AcDbSpline
 70
8
 71
3
 72
8
 73
4
 74
0
 40
0
 40
0
 40
0
 40
0
 40
1
 40
1
 40
1
 40
1
 10
44.819520
 20
148.246903
 30
0.0
 10
44.715620
 20
147.996067
 30
0.0
 10
44.773051
 20
147.707343
 30
0.0
 10
44.965032
 20
147.515362
 30
0.0
  0
SPLINE
  5
264
100
AcDbEntity
  8
visible
 62
7
100
AcDbSpline
 70
8
 71
3
 72
8
 73
4
 74
0
 40
0
 40
0
 40
0
 40
0
 40
1
 40
1
 40
1
 40
1
 10
44.965032
 20
147.515362
 30
0.0
 10
45.157013
 20
147.323381
 30
0.0
 10
45.445737
 20
147.265950
 30
0.0
 10
45.696573
 20
147.369850
 30
0.0
  0
SPLINE
  5
265
100
AcDbEntity
  8
visible
 62
7
100
AcDbSpline
 70
8
 71
3
 72
8
 73
4
 74
0
 40
0
 40
0
 40
0
 40
0
 40
1
 40
1
 40
1
 40
1
 10
45.696573
 20
147.369850
 30
0.0
 10
45.947409
 20
147.473749
 30
0.0
 10
46.110958
 20
147.718518
 30
0.0
 10
46.110958
 20
147.990020
 30
0.0
  0
SPLINE
  5
266
100
AcDbEntity
  8
visible
 62
7
100
AcDbSpline
 70
8
 71
3
 72
8
 73
4
 74
0
 40
0
 40
0
 40
0
 40
0
 40
1
 40
1
 40
1
 40
1
 10
46.110958
 20
147.990020
 30
0.0
 10
46.110958
 20
148.168051
 30
0.0
 10
46.040235
 20
148.338791
 30
0.0
 10
45.914348
 20
148.464678
 30
0.0
  0
SPLINE
  5
267
100
AcDbEntity
  8
visible
 62
7
100
AcDbSpline
 70
8
 71
3
 72
8
 73
4
 74
0
 40
0
 40
0
 40
0
 40
0
 40
1
 40
1
 40
1
 40
1
 10
45.914348
 20
148.464678
 30
0.0
 10
45.788461
 20
148.590565
 30
0.0
 10
45.617721
 20
148.661288
 30
0.0
 10
45.439690
 20
148.661288
 30
0.0
  0
LWPOLYLINE
  5
268
100
AcDbEntity
  8
visible
 62
7
100
AcDbPolyline
 90
1
 70
1
 10
109.282625
 20
157.449880
 30
0.0
  0
SPLINE
  5
269
100
AcDbEntity
  8
visible
 62
7
100
AcDbSpline
 70
8
 71
3
 72
8
 73
4
 74
0
 40
0
 40
0
 40
0
 40
0
 40
1
 40
1
 40
1
 40
1
 10
47.896461
 20
148.661288
 30
0.0
 10
47.525730
 20
148.661288
 30
0.0
 10
47.225193
 20
148.360751
 30
0.0
 10
47.225193
 20
147.990020
 30
0.0
  0
SPLINE
  5
26a
100
AcDbEntity
  8
visible
 62
7
100
AcDbSpline
 70
8
 71
3
 72
8
 73
4
 74
0
 40
0
 40
0
 40
0
 40
0
 40
1
 40
1
 40
1
 40
1
 10
47.225193
 20
147.990020
 30
0.0
 10
47.225193
 20
147.619289
 30
0.0
 10
47.525730
 20
147.318752
 30
0.0
 10
47.896461
 20
147.318752
 30
0.0
  0
SPLINE
  5
26b
100
AcDbEntity
  8
visible
 62
7
100
AcDbSpline
 70
8
 71
3
 72
8
 73
4
 74
0
 40
0
 40
0
 40
0
 40
0
 40
1
 40
1
 40
1
 40
1
 10
47.896461
 20
147.318752
 30
0.0
 10
48.267192
 20
147.318752
 30
0.0
 10
48.567729
 20
147.619289
 30
0.0
 10
48.567729
 20
147.990020
 30
0.0
  0
SPLINE
  5
26c
100
AcDbEntity
  8
visible
 62
7
100
AcDbSpline
 70
8
 71
3
 72
8
 73
4
 74
0
 40
0
 40
0
 40
0
 40
0
 40
1
 40
1
 40
1
 40
1
 10
48.567729
 20
147.990020
 30
0.0
 10
48.567729
 20
148.168051
 30
0.0
 10
48.497006
 20
148.338791
 30
0.0
 10
48.371119
 20
148.464678
 30
0.0
  0
SPLINE
  5
26d
100
AcDbEntity
  8
visible
 62
7
100
AcDbSpline
 70
8
 71
3
 72
8
 73
4
 74
0
 40
0
 40
0
 40
0
 40
0
 40
1
 40
1
 40
1
 40
1
 10
48.371119
 20
148.464678
 30
0.0
 10
48.245232
 20
148.590565
 30
0.0
 10
48.074492
 20
148.661288
 30
0.0
 10
47.896461
 20
148.661288
 30
0.0
  0
LWPOLYLINE
  5
26e
100
AcDbEntity
  8
visible
 62
7
100
AcDbPolyline
 90
1
 70
1
 10
45.439690
 20
148.661288
 30
0.0
  0
SPLINE
  5
26f
100
AcDbEntity
  8
visible
 62
7
100
AcDbSpline
 70
8
 71
3
 72
8
 73
4
 74
0
 40
0
 40
0
 40
0
 40
0
 40
1
 40
1
 40
1
 40
1
 10
50.455044
 20
148.661288
 30
0.0
 10
50.183542
 20
148.661288
 30
0.0
 10
49.938773
 20
148.497739
 30
0.0
 10
49.834874
 20
148.246903
 30
0.0
  0
SPLINE
  5
270
100
AcDbEntity
  8
visible
 62
7
100
AcDbSpline
 70
8
 71
3
 72
8
 73
4
 74
0
 40
0
 40
0
 40
0
 40
0
 40
1
 40
1
 40
1
 40
1
 10
49.834874
 20
148.246903
 30
0.0
 10
49.730974
 20
147.996067
 30
0.0
 10
49.788405
 20
147.707343
 30
0.0
 10
49.980386
 20
147.515362
 30
0.0
  0
SPLINE
  5
271
100
AcDbEntity
  8
visible
 62
7
100
AcDbSpline
 70
8
 71
3
 72
8
 73
4
 74
0
 40
0
 40
0
 40
0
 40
0
 40
1
 40
1
 40
1
 40
1
 10
49.980386
 20
147.515362
 30
0.0
 10
50.172367
 20
147.323381
 30
0.0
 10
50.461091
 20
147.265950
 30
0.0
 10
50.711927
 20
147.369850
 30
0.0
  0
SPLINE
  5
272
100
AcDbEntity
  8
visible
 62
7
100
AcDbSpline
 70
8
 71
3
 72
8
 73
4
 74
0
 40
0
 40
0
 40
0
 40
0
 40
1
 40
1
 40
1
 40
1
 10
50.711927
 20
147.369850
 30
0.0
 10
50.962763
 20
147.473749
 30
0.0
 10
51.126312
 20
147.718518
 30
0.0
 10
51.126312
 20
147.990020
 30
0.0
  0
SPLINE
  5
273
100
AcDbEntity
  8
visible
 62
7
100
AcDbSpline
 70
8
 71
3
 72
8
 73
4
 74
0
 40
0
 40
0
 40
0
 40
0
 40
1
 40
1
 40
1
 40
1
 10
51.126312
 20
147.990020
 30
0.0
 10
51.126312
 20
148.168051
 30
0.0
 10
51.055589
 20
148.338791
 30
0.0
 10
50.929702
 20
148.464678
 30
0.0
  0
SPLINE
  5
274
100
AcDbEntity
  8
visible
 62
7
100
AcDbSpline
 70
8
 71
3
 72
8
 73
4
 74
0
 40
0
 40
0
 40
0
 40
0
 40
1
 40
1
 40
1
 40
1
 10
50.929702
 20
148.464678
 30
0.0
 10
50.803815
 20
148.590565
 30
0.0
 10
50.633075
 20
148.661288
 30
0.0
 10
50.455044
 20
148.661288
 30
0.0
  0
LWPOLYLINE
  5
275
100
AcDbEntity
  8
visible
 62
7
100
AcDbPolyline
 90
1
 70
1
 10
47.896461
 20
148.661288
 30
0.0
  0
SPLINE
  5
276
100
AcDbEntity
  8
visible
 62
7
100
AcDbSpline
 70
8
 71
3
 72
8
 73
4
 74
0
 40
0
 40
0
 40
0
 40
0
 40
1
 40
1
 40
1
 40
1
 10
73.784190
 20
148.661288
 30
0.0
 10
73.512688
 20
148.661288
 30
0.0
 10
73.267919
 20
148.497739
 30
0.0
 10
73.164020
 20
148.246903
 30
0.0
  0
SPLINE
  5
277
100
AcDbEntity
  8
visible
 62
7
100
AcDbSpline
 70
8
 71
3
 72
8
 73
4
 74
0
 40
0
 40
0
 40
0
 40
0
 40
1
 40
1
 40
1
 40
1
 10
73.164020
 20
148.246903
 30
0.0
 10
73.060120
 20
147.996067
 30
0.0
 10
73.117551
 20
147.707343
 30
0.0
 10
73.309532
 20
147.515362
 30
0.0
  0
SPLINE
  5
278
100
AcDbEntity
  8
visible
 62
7
100
AcDbSpline
 70
8
 71
3
 72
8
 73
4
 74
0
 40
0
 40
0
 40
0
 40
0
 40
1
 40
1
 40
1
 40
1
 10
73.309532
 20
147.515362
 30
0.0
 10
73.501513
 20
147.323381
 30
0.0
 10
73.790237
 20
147.265950
 30
0.0
 10
74.041073
 20
147.369850
 30
0.0
  0
SPLINE
  5
279
100
AcDbEntity
  8
visible
 62
7
100
AcDbSpline
 70
8
 71
3
 72
8
 73
4
 74
0
 40
0
 40
0
 40
0
 40
0
 40
1
 40
1
 40
1
 40
1
 10
74.041073
 20
147.369850
 30
0.0
 10
74.291909
 20
147.473749
 30
0.0
 10
74.455458
 20
147.718518
 30
0.0
 10
74.455458
 20
147.990020
 30
0.0
  0
SPLINE
  5
27a
100
AcDbEntity
  8
visible
 62
7
100
AcDbSpline
 70
8
 71
3
 72
8
 73
4
 74
0
 40
0
 40
0
 40
0
 40
0
 40
1
 40
1
 40
1
 40
1
 10
74.455458
 20
147.990020
 30
0.0
 10
74.455458
 20
148.168051
 30
0.0
 10
74.384735
 20
148.338791
 30
0.0
 10
74.258848
 20
148.464678
 30
0.0
  0
SPLINE
  5
27b
100
AcDbEntity
  8
visible
 62
7
100
AcDbSpline
 70
8
 71
3
 72
8
 73
4
 74
0
 40
0
 40
0
 40
0
 40
0
 40
1
 40
1
 40
1
 40
1
 10
74.258848
 20
148.464678
 30
0.0
 10
74.132961
 20
148.590565
 30
0.0
 10
73.962221
 20
148.661288
 30
0.0
 10
73.784190
 20
148.661288
 30
0.0
  0
LWPOLYLINE
  5
27c
100
AcDbEntity
  8
visible
 62
7
100
AcDbPolyline
 90
1
 70
1
 10
50.455044
 20
148.661288
 30
0.0
  0
SPLINE
  5
27d
100
AcDbEntity
  8
visible
 62
7
100
AcDbSpline
 70
8
 71
3
 72
8
 73
4
 74
0
 40
0
 40
0
 40
0
 40
0
 40
1
 40
1
 40
1
 40
1
 10
76.240961
 20
148.661288
 30
0.0
 10
75.870230
 20
148.661288
 30
0.0
 10
75.569693
 20
148.360751
 30
0.0
 10
75.569693
 20
147.990020
 30
0.0
  0
SPLINE
  5
27e
100
AcDbEntity
  8
visible
 62
7
100
AcDbSpline
 70
8
 71
3
 72
8
 73
4
 74
0
 40
0
 40
0
 40
0
 40
0
 40
1
 40
1
 40
1
 40
1
 10
75.569693
 20
147.990020
 30
0.0
 10
75.569693
 20
147.619289
 30
0.0
 10
75.870230
 20
147.318752
 30
0.0
 10
76.240961
 20
147.318752
 30
0.0
  0
SPLINE
  5
27f
100
AcDbEntity
  8
visible
 62
7
100
AcDbSpline
 70
8
 71
3
 72
8
 73
4
 74
0
 40
0
 40
0
 40
0
 40
0
 40
1
 40
1
 40
1
 40
1
 10
76.240961
 20
147.318752
 30
0.0
 10
76.611692
 20
147.318752
 30
0.0
 10
76.912229
 20
147.619289
 30
0.0
 10
76.912229
 20
147.990020
 30
0.0
  0
SPLINE
  5
280
100
AcDbEntity
  8
visible
 62
7
100
AcDbSpline
 70
8
 71
3
 72
8
 73
4
 74
0
 40
0
 40
0
 40
0
 40
0
 40
1
 40
1
 40
1
 40
1
 10
76.912229
 20
147.990020
 30
0.0
 10
76.912229
 20
148.168051
 30
0.0
 10
76.841506
 20
148.338791
 30
0.0
 10
76.715619
 20
148.464678
 30
0.0
  0
SPLINE
  5
281
100
AcDbEntity
  8
visible
 62
7
100
AcDbSpline
 70
8
 71
3
 72
8
 73
4
 74
0
 40
0
 40
0
 40
0
 40
0
 40
1
 40
1
 40
1
 40
1
 10
76.715619
 20
148.464678
 30
0.0
 10
76.589732
 20
148.590565
 30
0.0
 10
76.418992
 20
148.661288
 30
0.0
 10
76.240961
 20
148.661288
 30
0.0
  0
LWPOLYLINE
  5
282
100
AcDbEntity
  8
visible
 62
7
100
AcDbPolyline
 90
1
 70
1
 10
73.784190
 20
148.661288
 30
0.0
  0
SPLINE
  5
283
100
AcDbEntity
  8
visible
 62
7
100
AcDbSpline
 70
8
 71
3
 72
8
 73
4
 74
0
 40
0
 40
0
 40
0
 40
0
 40
1
 40
1
 40
1
 40
1
 10
78.799544
 20
148.661288
 30
0.0
 10
78.528042
 20
148.661288
 30
0.0
 10
78.283273
 20
148.497739
 30
0.0
 10
78.179374
 20
148.246903
 30
0.0
  0
SPLINE
  5
284
100
AcDbEntity
  8
visible
 62
7
100
AcDbSpline
 70
8
 71
3
 72
8
 73
4
 74
0
 40
0
 40
0
 40
0
 40
0
 40
1
 40
1
 40
1
 40
1
 10
78.179374
 20
148.246903
 30
0.0
 10
78.075474
 20
147.996067
 30
0.0
 10
78.132905
 20
147.707343
 30
0.0
 10
78.324886
 20
147.515362
 30
0.0
  0
SPLINE
  5
285
100
AcDbEntity
  8
visible
 62
7
100
AcDbSpline
 70
8
 71
3
 72
8
 73
4
 74
0
 40
0
 40
0
 40
0
 40
0
 40
1
 40
1
 40
1
 40
1
 10
78.324886
 20
147.515362
 30
0.0
 10
78.516867
 20
147.323381
 30
0.0
 10
78.805591
 20
147.265950
 30
0.0
 10
79.056427
 20
147.369850
 30
0.0
  0
SPLINE
  5
286
100
AcDbEntity
  8
visible
 62
7
100
AcDbSpline
 70
8
 71
3
 72
8
 73
4
 74
0
 40
0
 40
0
 40
0
 40
0
 40
1
 40
1
 40
1
 40
1
 10
79.056427
 20
147.369850
 30
0.0
 10
79.307263
 20
147.473749
 30
0.0
 10
79.470812
 20
147.718518
 30
0.0
 10
79.470812
 20
147.990020
 30
0.0
  0
SPLINE
  5
287
100
AcDbEntity
  8
visible
 62
7
100
AcDbSpline
 70
8
 71
3
 72
8
 73
4
 74
0
 40
0
 40
0
 40
0
 40
0
 40
1
 40
1
 40
1
 40
1
 10
79.470812
 20
147.990020
 30
0.0
 10
79.470812
 20
148.168051
 30
0.0
 10
79.400089
 20
148.338791
 30
0.0
 10
79.274202
 20
148.464678
 30
0.0
  0
SPLINE
  5
288
100
AcDbEntity
  8
visible
 62
7
100
AcDbSpline
 70
8
 71
3
 72
8
 73
4
 74
0
 40
0
 40
0
 40
0
 40
0
 40
1
 40
1
 40
1
 40
1
 10
79.274202
 20
148.464678
 30
0.0
 10
79.148315
 20
148.590565
 30
0.0
 10
78.977575
 20
148.661288
 30
0.0
 10
78.799544
 20
148.661288
 30
0.0
  0
LWPOLYLINE
  5
289
100
AcDbEntity
  8
visible
 62
7
100
AcDbPolyline
 90
1
 70
1
 10
76.240961
 20
148.661288
 30
0.0
  0
SPLINE
  5
28a
100
AcDbEntity
  8
visible
 62
7
100
AcDbSpline
 70
8
 71
3
 72
8
 73
4
 74
0
 40
0
 40
0
 40
0
 40
0
 40
1
 40
1
 40
1
 40
1
 10
102.087390
 20
148.661288
 30
0.0
 10
101.815888
 20
148.661288
 30
0.0
 10
101.571119
 20
148.497739
 30
0.0
 10
101.467220
 20
148.246903
 30
0.0
  0
SPLINE
  5
28b
100
AcDbEntity
  8
visible
 62
7
100
AcDbSpline
 70
8
 71
3
 72
8
 73
4
 74
0
 40
0
 40
0
 40
0
 40
0
 40
1
 40
1
 40
1
 40
1
 10
101.467220
 20
148.246903
 30
0.0
 10
101.363320
 20
147.996067
 30
0.0
 10
101.420751
 20
147.707343
 30
0.0
 10
101.612732
 20
147.515362
 30
0.0
  0
SPLINE
  5
28c
100
AcDbEntity
  8
visible
 62
7
100
AcDbSpline
 70
8
 71
3
 72
8
 73
4
 74
0
 40
0
 40
0
 40
0
 40
0
 40
1
 40
1
 40
1
 40
1
 10
101.612732
 20
147.515362
 30
0.0
 10
101.804713
 20
147.323381
 30
0.0
 10
102.093437
 20
147.265950
 30
0.0
 10
102.344273
 20
147.369850
 30
0.0
  0
SPLINE
  5
28d
100
AcDbEntity
  8
visible
 62
7
100
AcDbSpline
 70
8
 71
3
 72
8
 73
4
 74
0
 40
0
 40
0
 40
0
 40
0
 40
1
 40
1
 40
1
 40
1
 10
102.344273
 20
147.369850
 30
0.0
 10
102.595109
 20
147.473749
 30
0.0
 10
102.758658
 20
147.718518
 30
0.0
 10
102.758658
 20
147.990020
 30
0.0
  0
SPLINE
  5
28e
100
AcDbEntity
  8
visible
 62
7
100
AcDbSpline
 70
8
 71
3
 72
8
 73
4
 74
0
 40
0
 40
0
 40
0
 40
0
 40
1
 40
1
 40
1
 40
1
 10
102.758658
 20
147.990020
 30
0.0
 10
102.758658
 20
148.168051
 30
0.0
 10
102.687935
 20
148.338791
 30
0.0
 10
102.562048
 20
148.464678
 30
0.0
  0
SPLINE
  5
28f
100
AcDbEntity
  8
visible
 62
7
100
AcDbSpline
 70
8
 71
3
 72
8
 73
4
 74
0
 40
0
 40
0
 40
0
 40
0
 40
1
 40
1
 40
1
 40
1
 10
102.562048
 20
148.464678
 30
0.0
 10
102.436161
 20
148.590565
 30
0.0
 10
102.265421
 20
148.661288
 30
0.0
 10
102.087390
 20
148.661288
 30
0.0
  0
LWPOLYLINE
  5
290
100
AcDbEntity
  8
visible
 62
7
100
AcDbPolyline
 90
1
 70
1
 10
78.799544
 20
148.661288
 30
0.0
  0
SPLINE
  5
291
100
AcDbEntity
  8
visible
 62
7
100
AcDbSpline
 70
8
 71
3
 72
8
 73
4
 74
0
 40
0
 40
0
 40
0
 40
0
 40
1
 40
1
 40
1
 40
1
 10
104.544161
 20
148.661288
 30
0.0
 10
104.173430
 20
148.661288
 30
0.0
 10
103.872893
 20
148.360751
 30
0.0
 10
103.872893
 20
147.990020
 30
0.0
  0
SPLINE
  5
292
100
AcDbEntity
  8
visible
 62
7
100
AcDbSpline
 70
8
 71
3
 72
8
 73
4
 74
0
 40
0
 40
0
 40
0
 40
0
 40
1
 40
1
 40
1
 40
1
 10
103.872893
 20
147.990020
 30
0.0
 10
103.872893
 20
147.619289
 30
0.0
 10
104.173430
 20
147.318752
 30
0.0
 10
104.544161
 20
147.318752
 30
0.0
  0
SPLINE
  5
293
100
AcDbEntity
  8
visible
 62
7
100
AcDbSpline
 70
8
 71
3
 72
8
 73
4
 74
0
 40
0
 40
0
 40
0
 40
0
 40
1
 40
1
 40
1
 40
1
 10
104.544161
 20
147.318752
 30
0.0
 10
104.914892
 20
147.318752
 30
0.0
 10
105.215429
 20
147.619289
 30
0.0
 10
105.215429
 20
147.990020
 30
0.0
  0
SPLINE
  5
294
100
AcDbEntity
  8
visible
 62
7
100
AcDbSpline
 70
8
 71
3
 72
8
 73
4
 74
0
 40
0
 40
0
 40
0
 40
0
 40
1
 40
1
 40
1
 40
1
 10
105.215429
 20
147.990020
 30
0.0
 10
105.215429
 20
148.168051
 30
0.0
 10
105.144706
 20
148.338791
 30
0.0
 10
105.018819
 20
148.464678
 30
0.0
  0
SPLINE
  5
295
100
AcDbEntity
  8
visible
 62
7
100
AcDbSpline
 70
8
 71
3
 72
8
 73
4
 74
0
 40
0
 40
0
 40
0
 40
0
 40
1
 40
1
 40
1
 40
1
 10
105.018819
 20
148.464678
 30
0.0
 10
104.892932
 20
148.590565
 30
0.0
 10
104.722192
 20
148.661288
 30
0.0
 10
104.544161
 20
148.661288
 30
0.0
  0
LWPOLYLINE
  5
296
100
AcDbEntity
  8
visible
 62
7
100
AcDbPolyline
 90
1
 70
1
 10
102.087390
 20
148.661288
 30
0.0
  0
SPLINE
  5
297
100
AcDbEntity
  8
visible
 62
7
100
AcDbSpline
 70
8
 71
3
 72
8
 73
4
 74
0
 40
0
 40
0
 40
0
 40
0
 40
1
 40
1
 40
1
 40
1
 10
107.102744
 20
148.661288
 30
0.0
 10
106.831242
 20
148.661288
 30
0.0
 10
106.586473
 20
148.497739
 30
0.0
 10
106.482574
 20
148.246903
 30
0.0
  0
SPLINE
  5
298
100
AcDbEntity
  8
visible
 62
7
100
AcDbSpline
 70
8
 71
3
 72
8
 73
4
 74
0
 40
0
 40
0
 40
0
 40
0
 40
1
 40
1
 40
1
 40
1
 10
106.482574
 20
148.246903
 30
0.0
 10
106.378674
 20
147.996067
 30
0.0
 10
106.436105
 20
147.707343
 30
0.0
 10
106.628086
 20
147.515362
 30
0.0
  0
SPLINE
  5
299
100
AcDbEntity
  8
visible
 62
7
100
AcDbSpline
 70
8
 71
3
 72
8
 73
4
 74
0
 40
0
 40
0
 40
0
 40
0
 40
1
 40
1
 40
1
 40
1
 10
106.628086
 20
147.515362
 30
0.0
 10
106.820067
 20
147.323381
 30
0.0
 10
107.108791
 20
147.265950
 30
0.0
 10
107.359627
 20
147.369850
 30
0.0
  0
SPLINE
  5
29a
100
AcDbEntity
  8
visible
 62
7
100
AcDbSpline
 70
8
 71
3
 72
8
 73
4
 74
0
 40
0
 40
0
 40
0
 40
0
 40
1
 40
1
 40
1
 40
1
 10
107.359627
 20
147.369850
 30
0.0
 10
107.610463
 20
147.473749
 30
0.0
 10
107.774012
 20
147.718518
 30
0.0
 10
107.774012
 20
147.990020
 30
0.0
  0
SPLINE
  5
29b
100
AcDbEntity
  8
visible
 62
7
100
AcDbSpline
 70
8
 71
3
 72
8
 73
4
 74
0
 40
0
 40
0
 40
0
 40
0
 40
1
 40
1
 40
1
 40
1
 10
107.774012
 20
147.990020
 30
0.0
 10
107.774012
 20
148.168051
 30
0.0
 10
107.703289
 20
148.338791
 30
0.0
 10
107.577402
 20
148.464678
 30
0.0
  0
SPLINE
  5
29c
100
AcDbEntity
  8
visible
 62
7
100
AcDbSpline
 70
8
 71
3
 72
8
 73
4
 74
0
 40
0
 40
0
 40
0
 40
0
 40
1
 40
1
 40
1
 40
1
 10
107.577402
 20
148.464678
 30
0.0
 10
107.451515
 20
148.590565
 30
0.0
 10
107.280775
 20
148.661288
 30
0.0
 10
107.102744
 20
148.661288
 30
0.0
  0
LWPOLYLINE
  5
29d
100
AcDbEntity
  8
visible
 62
7
100
AcDbPolyline
 90
1
 70
1
 10
104.544161
 20
148.661288
 30
0.0
  0
LWPOLYLINE
  5
29e
100
AcDbEntity
  8
visible
 62
7
100
AcDbPolyline
 90
1
 70
1
 10
107.102744
 20
148.661288
 30
0.0
  0
ENDSEC
  0
SECTION
  2
OBJECTS
  0
DICTIONARY
  5
C
330
0
100
AcDbDictionary
  3
ACAD_GROUP
350
D
  3
ACAD_MLINESTYLE
350
17
  0
DICTIONARY
  5
D
330
C
100
AcDbDictionary
  0
DICTIONARY
  5
1A
330
C
100
AcDbDictionary
  0
DICTIONARY
  5
17
330
C
100
AcDbDictionary
  3
STANDARD
350
18
  0
DICTIONARY
  5
19
330
C
100
AcDbDictionary
  0
ENDSEC
  0
EOF
